<svg xmlns="http://www.w3.org/2000/svg" xmlns:xlink="http://www.w3.org/1999/xlink" width="33" zoomAndPan="magnify" viewBox="0 0 24.75 206.249994" height="275" preserveAspectRatio="xMidYMid meet" version="1.0"><defs><clipPath id="36d465819f"><path d="M 0.144531 0.734375 L 23.859375 0.734375 L 23.859375 204.597656 L 0.144531 204.597656 Z M 0.144531 0.734375 " clip-rule="nonzero"/></clipPath><clipPath id="4dd50aa3b1"><path d="M 0.144531 0.6875 L 23.871094 0.6875 L 23.871094 9.039062 L 0.144531 9.039062 Z M 0.144531 0.6875 " clip-rule="nonzero"/></clipPath><clipPath id="2eebcbfeee"><path d="M 0.15625 0.6875 L 23.847656 0.6875 L 23.847656 8.855469 L 0.15625 8.855469 Z M 0.15625 0.6875 " clip-rule="nonzero"/></clipPath><clipPath id="91a52a2dde"><path d="M 0.144531 11.796875 L 23.859375 11.796875 L 23.859375 34.613281 L 0.144531 34.613281 Z M 0.144531 11.796875 " clip-rule="nonzero"/></clipPath><clipPath id="8a8876c784"><path d="M 0.144531 194.230469 L 23.871094 194.230469 L 23.871094 202.582031 L 0.144531 202.582031 Z M 0.144531 194.230469 " clip-rule="nonzero"/></clipPath><clipPath id="aacca51e1b"><path d="M 0.15625 194.230469 L 23.847656 194.230469 L 23.847656 202.398438 L 0.15625 202.398438 Z M 0.15625 194.230469 " clip-rule="nonzero"/></clipPath></defs><g clip-path="url(#36d465819f)"><path stroke-linecap="butt" transform="matrix(0.7425, 0, 0, 0.7425, 0.145054, 0.733734)" fill="none" stroke-linejoin="miter" d="M -0.000704415 0.000863342 L 31.93848 0.000863342 L 31.93848 274.564217 L -0.000704415 274.564217 Z M -0.000704415 0.000863342 " stroke="#a5abaa" stroke-width="6" stroke-opacity="1" stroke-miterlimit="4"/></g><g clip-path="url(#4dd50aa3b1)"><path fill="#a5abaa" d="M 0.144531 0.6875 L 23.871094 0.6875 L 23.871094 9.039062 L 0.144531 9.039062 Z M 0.144531 0.6875 " fill-opacity="1" fill-rule="nonzero"/></g><g clip-path="url(#2eebcbfeee)"><path stroke-linecap="butt" transform="matrix(0.7425, 0, 0, 0.7425, 0.154397, 0.688429)" fill="none" stroke-linejoin="miter" d="M 0.00249626 -0.00125122 L 31.910115 -0.00125122 L 31.910115 11.236123 L 0.00249626 11.236123 Z M 0.00249626 -0.00125122 " stroke="#a5abaa" stroke-width="6" stroke-opacity="1" stroke-miterlimit="4"/></g><g clip-path="url(#91a52a2dde)"><path stroke-linecap="butt" transform="matrix(0.7425, 0, 0, 0.7425, 0.145054, 11.79829)" fill="none" stroke-linejoin="miter" d="M -0.000704415 -0.00190525 L 31.93848 -0.00190525 L 31.93848 30.727263 L -0.000704415 30.727263 Z M -0.000704415 -0.00190525 " stroke="#a5abaa" stroke-width="6" stroke-opacity="1" stroke-miterlimit="4"/></g><g clip-path="url(#8a8876c784)"><path fill="#a5abaa" d="M 0.144531 194.230469 L 23.871094 194.230469 L 23.871094 202.582031 L 0.144531 202.582031 Z M 0.144531 194.230469 " fill-opacity="1" fill-rule="nonzero"/></g><g clip-path="url(#aacca51e1b)"><path stroke-linecap="butt" transform="matrix(0.7425, 0, 0, 0.7425, 0.154397, 194.229608)" fill="none" stroke-linejoin="miter" d="M 0.00249626 0.00115892 L 31.910115 0.00115892 L 31.910115 11.233272 L 0.00249626 11.233272 Z M 0.00249626 0.00115892 " stroke="#a5abaa" stroke-width="6" stroke-opacity="1" stroke-miterlimit="4"/></g></svg>