<svg xmlns="http://www.w3.org/2000/svg" xmlns:xlink="http://www.w3.org/1999/xlink" width="33" zoomAndPan="magnify" viewBox="0 0 24.75 206.249994" height="275" preserveAspectRatio="xMidYMid meet" version="1.0"><defs><clipPath id="cc2ffae2e4"><path d="M 0.144531 0.734375 L 23.859375 0.734375 L 23.859375 204.597656 L 0.144531 204.597656 Z M 0.144531 0.734375 " clip-rule="nonzero"/></clipPath><clipPath id="3ad4c80c9e"><path d="M 0.144531 0.6875 L 23.871094 0.6875 L 23.871094 9.039062 L 0.144531 9.039062 Z M 0.144531 0.6875 " clip-rule="nonzero"/></clipPath><clipPath id="a740cb4137"><path d="M 0.15625 0.6875 L 23.847656 0.6875 L 23.847656 8.855469 L 0.15625 8.855469 Z M 0.15625 0.6875 " clip-rule="nonzero"/></clipPath><clipPath id="ff3cd7ce53"><path d="M 0.144531 194.230469 L 23.871094 194.230469 L 23.871094 202.582031 L 0.144531 202.582031 Z M 0.144531 194.230469 " clip-rule="nonzero"/></clipPath><clipPath id="12a64f4d72"><path d="M 0.15625 194.230469 L 23.847656 194.230469 L 23.847656 202.398438 L 0.15625 202.398438 Z M 0.15625 194.230469 " clip-rule="nonzero"/></clipPath></defs><g clip-path="url(#cc2ffae2e4)"><path stroke-linecap="butt" transform="matrix(0.7425, 0, 0, 0.7425, 0.145054, 0.733734)" fill="none" stroke-linejoin="miter" d="M -0.000704415 0.000863342 L 31.93848 0.000863342 L 31.93848 274.564217 L -0.000704415 274.564217 Z M -0.000704415 0.000863342 " stroke="#a5abaa" stroke-width="6" stroke-opacity="1" stroke-miterlimit="4"/></g><g clip-path="url(#3ad4c80c9e)"><path fill="#a5abaa" d="M 0.144531 0.6875 L 23.871094 0.6875 L 23.871094 9.039062 L 0.144531 9.039062 Z M 0.144531 0.6875 " fill-opacity="1" fill-rule="nonzero"/></g><g clip-path="url(#a740cb4137)"><path stroke-linecap="butt" transform="matrix(0.7425, 0, 0, 0.7425, 0.154397, 0.688429)" fill="none" stroke-linejoin="miter" d="M 0.00249626 -0.00125122 L 31.910115 -0.00125122 L 31.910115 11.236123 L 0.00249626 11.236123 Z M 0.00249626 -0.00125122 " stroke="#a5abaa" stroke-width="6" stroke-opacity="1" stroke-miterlimit="4"/></g><g clip-path="url(#ff3cd7ce53)"><path fill="#a5abaa" d="M 0.144531 194.230469 L 23.871094 194.230469 L 23.871094 202.582031 L 0.144531 202.582031 Z M 0.144531 194.230469 " fill-opacity="1" fill-rule="nonzero"/></g><g clip-path="url(#12a64f4d72)"><path stroke-linecap="butt" transform="matrix(0.7425, 0, 0, 0.7425, 0.154397, 194.229608)" fill="none" stroke-linejoin="miter" d="M 0.00249626 0.00115892 L 31.910115 0.00115892 L 31.910115 11.233272 L 0.00249626 11.233272 Z M 0.00249626 0.00115892 " stroke="#a5abaa" stroke-width="6" stroke-opacity="1" stroke-miterlimit="4"/></g></svg>