<svg xmlns="http://www.w3.org/2000/svg" xmlns:xlink="http://www.w3.org/1999/xlink" width="145" zoomAndPan="magnify" viewBox="0 0 108.75 23.999999" height="32" preserveAspectRatio="xMidYMid meet" version="1.0"><defs><filter x="0%" y="0%" width="100%" height="100%" id="0d03efec26"><feColorMatrix values="0 0 0 0 1 0 0 0 0 1 0 0 0 0 1 0 0 0 1 0" color-interpolation-filters="sRGB"/></filter><g/><clipPath id="0102e37fda"><path d="M 0.128906 0.492188 L 107.878906 0.492188 L 107.878906 23.691406 L 0.128906 23.691406 Z M 0.128906 0.492188 " clip-rule="nonzero"/></clipPath><mask id="86f12b943b"><g filter="url(#0d03efec26)"><rect x="-10.875" width="130.5" fill="#000000" y="-2.4" height="28.799999" fill-opacity="0.3"/></g></mask><clipPath id="e20e45faeb"><path d="M 0.589844 0.183594 L 103.316406 0.183594 L 103.316406 20.058594 L 0.589844 20.058594 Z M 0.589844 0.183594 " clip-rule="nonzero"/></clipPath><clipPath id="069212e4f6"><rect x="0" width="104" y="0" height="21"/></clipPath></defs><g clip-path="url(#0102e37fda)"><path fill="#2d7b80" d="M 0.171875 0.492188 L 107.835938 0.492188 L 107.835938 23.808594 L 0.171875 23.808594 Z M 0.171875 0.492188 " fill-opacity="1" fill-rule="nonzero"/><path fill="#000000" d="M 106.058594 0.492188 L 0.171875 0.492188 L 0.171875 23.808594 L 107.808594 23.808594 L 107.808594 0.492188 Z M 106.058594 22.027344 L 1.980469 22.027344 L 1.980469 2.300781 L 106.058594 2.300781 Z M 106.058594 22.027344 " fill-opacity="1" fill-rule="nonzero"/></g><path fill="#5ce3eb" d="M 104.25 2.273438 L 1.949219 2.273438 L 1.949219 22.027344 L 3.757812 22.027344 L 3.757812 4.082031 L 104.25 4.082031 Z M 104.25 2.273438 " fill-opacity="1" fill-rule="nonzero"/><g mask="url(#86f12b943b)"><g transform="matrix(1, 0, 0, 1, 3, 2)"><g clip-path="url(#069212e4f6)"><g clip-path="url(#e20e45faeb)"><path fill="#000000" d="M 0.757812 20.027344 L 103.058594 20.027344 L 103.058594 0.273438 L 101.25 0.273438 L 101.25 18.246094 L 0.757812 18.246094 Z M 0.757812 20.027344 " fill-opacity="1" fill-rule="nonzero"/></g></g></g></g><g fill="#5ce3eb" fill-opacity="1"><g transform="translate(25.546535, 15.891994)"><g><path d="M 2.390625 -1.203125 L 5.984375 -1.203125 L 5.984375 0 L 0 0 L 0 -8.375 L 5.984375 -8.375 L 5.984375 -7.1875 L 2.390625 -7.1875 L 2.390625 -4.78125 L 5.984375 -4.78125 L 5.984375 -3.59375 L 2.390625 -3.59375 Z M 2.390625 -1.203125 "/></g></g></g><g fill="#5ce3eb" fill-opacity="1"><g transform="translate(32.838942, 15.891994)"><g><path d="M 5.984375 -4.78125 L 5.984375 0 L 3.59375 0 L 3.59375 -4.78125 L 2.390625 -4.78125 L 2.390625 0 L 0 0 L 0 -5.984375 L 4.78125 -5.984375 L 4.78125 -4.78125 Z M 5.984375 -4.78125 "/></g></g></g><g fill="#5ce3eb" fill-opacity="1"><g transform="translate(40.13135, 15.891994)"><g><path d="M 2.390625 -4.78125 L 2.390625 -1.203125 L 3.59375 -1.203125 L 3.59375 -4.78125 Z M 1.203125 -1.203125 L 0 -1.203125 L 0 -4.78125 L 1.203125 -4.78125 L 1.203125 -5.984375 L 3.59375 -5.984375 L 3.59375 -8.375 L 5.984375 -8.375 L 5.984375 0 L 1.203125 0 Z M 1.203125 -1.203125 "/></g></g></g><g fill="#5ce3eb" fill-opacity="1"><g transform="translate(47.423757, 15.891994)"><g/></g></g><g fill="#5ce3eb" fill-opacity="1"><g transform="translate(51.120914, 15.891994)"><g><path d="M 2.390625 -1.203125 L 5.984375 -1.203125 L 5.984375 0 L 0 0 L 0 -8.375 L 5.984375 -8.375 L 5.984375 -7.1875 L 2.390625 -7.1875 L 2.390625 -4.78125 L 5.984375 -4.78125 L 5.984375 -3.59375 L 2.390625 -3.59375 Z M 2.390625 -1.203125 "/></g></g></g><g fill="#5ce3eb" fill-opacity="1"><g transform="translate(58.413322, 15.891994)"><g><path d="M 0 -4.78125 L 1.203125 -4.78125 L 1.203125 -5.984375 L 4.78125 -5.984375 L 4.78125 -4.78125 L 5.984375 -4.78125 L 5.984375 0 L 1.203125 0 L 1.203125 -1.203125 L 0 -1.203125 L 0 -2.390625 L 1.203125 -2.390625 L 1.203125 -3.59375 L 0 -3.59375 Z M 2.390625 -2.390625 L 2.390625 -1.203125 L 3.59375 -1.203125 L 3.59375 -2.390625 Z M 2.390625 -4.78125 L 2.390625 -3.59375 L 3.59375 -3.59375 L 3.59375 -4.78125 Z M 2.390625 -4.78125 "/></g></g></g><g fill="#5ce3eb" fill-opacity="1"><g transform="translate(65.705731, 15.891994)"><g><path d="M 0 -5.984375 L 4.78125 -5.984375 L 4.78125 -4.78125 L 3.59375 -4.78125 L 3.59375 -3.59375 L 2.390625 -3.59375 L 2.390625 0 L 0 0 Z M 0 -5.984375 "/></g></g></g><g fill="#5ce3eb" fill-opacity="1"><g transform="translate(70.601305, 15.891994)"><g><path d="M 0 -8.375 L 2.390625 -8.375 L 2.390625 0 L 0 0 Z M 0 -8.375 "/></g></g></g><g fill="#5ce3eb" fill-opacity="1"><g transform="translate(74.29846, 15.891994)"><g><path d="M 0 1.203125 L 1.203125 1.203125 L 1.203125 -2.390625 L 0 -2.390625 L 0 -4.78125 L -1.203125 -4.78125 L -1.203125 -5.984375 L 1.203125 -5.984375 L 1.203125 -4.78125 L 3.59375 -4.78125 L 3.59375 -5.984375 L 5.984375 -5.984375 L 5.984375 -4.78125 L 4.78125 -4.78125 L 4.78125 -2.390625 L 3.59375 -2.390625 L 3.59375 1.203125 L 2.390625 1.203125 L 2.390625 2.390625 L 0 2.390625 Z M 0 1.203125 "/></g></g></g></svg>