<svg xmlns="http://www.w3.org/2000/svg" xmlns:xlink="http://www.w3.org/1999/xlink" width="308" zoomAndPan="magnify" viewBox="0 0 230.87999 30.000001" height="40" preserveAspectRatio="xMidYMid meet" version="1.0"><defs><filter x="0%" y="0%" width="100%" height="100%" id="b0bc249b1b"><feColorMatrix values="0 0 0 0 1 0 0 0 0 1 0 0 0 0 1 0 0 0 1 0" color-interpolation-filters="sRGB"/></filter><g/><clipPath id="1a4c571f4f"><path d="M 4.125 0.0195312 L 135.496094 0.0195312 L 135.496094 28.328125 L 4.125 28.328125 Z M 4.125 0.0195312 " clip-rule="nonzero"/></clipPath><mask id="dd5174fc47"><g filter="url(#b0bc249b1b)"><rect x="-23.087999" width="277.055988" fill="#000000" y="-3" height="36.000001" fill-opacity="0.3"/></g></mask><clipPath id="5fffa1c692"><path d="M 0.3125 0.0898438 L 125.5 0.0898438 L 125.5 24.476562 L 0.3125 24.476562 Z M 0.3125 0.0898438 " clip-rule="nonzero"/></clipPath><clipPath id="63cfa3ebe3"><rect x="0" width="126" y="0" height="25"/></clipPath><clipPath id="7bda2350b7"><path d="M 105.222656 0.0195312 L 227.097656 0.0195312 L 227.097656 26.148438 L 105.222656 26.148438 Z M 105.222656 0.0195312 " clip-rule="nonzero"/></clipPath><clipPath id="41ac76f666"><path d="M 105.222656 2 L 223 2 L 223 26.148438 L 105.222656 26.148438 Z M 105.222656 2 " clip-rule="nonzero"/></clipPath><clipPath id="08c0b05658"><path d="M 105.222656 2 L 226 2 L 226 26.148438 L 105.222656 26.148438 Z M 105.222656 2 " clip-rule="nonzero"/></clipPath><mask id="6376fe6a88"><g filter="url(#b0bc249b1b)"><rect x="-23.087999" width="277.055988" fill="#000000" y="-3" height="36.000001" fill-opacity="0.3"/></g></mask><clipPath id="57c7ee6576"><path d="M 0.222656 0.0898438 L 120 0.0898438 L 120 24.148438 L 0.222656 24.148438 Z M 0.222656 0.0898438 " clip-rule="nonzero"/></clipPath><clipPath id="bcf8a898bd"><rect x="0" width="121" y="0" height="25"/></clipPath></defs><g clip-path="url(#1a4c571f4f)"><path fill="#b8291e" d="M 4.175781 0.0195312 L 135.425781 0.0195312 L 135.425781 28.441406 L 4.175781 28.441406 Z M 4.175781 0.0195312 " fill-opacity="1" fill-rule="nonzero"/><path fill="#000000" d="M 133.253906 0.0195312 L 4.175781 0.0195312 L 4.175781 28.441406 L 135.390625 28.441406 L 135.390625 0.0195312 Z M 133.253906 26.269531 L 6.378906 26.269531 L 6.378906 2.226562 L 133.253906 2.226562 Z M 133.253906 26.269531 " fill-opacity="1" fill-rule="nonzero"/></g><path fill="#faa7c6" d="M 131.050781 2.191406 L 6.34375 2.191406 L 6.34375 26.269531 L 8.550781 26.269531 L 8.550781 4.394531 L 131.050781 4.394531 Z M 131.050781 2.191406 " fill-opacity="1" fill-rule="nonzero"/><g mask="url(#dd5174fc47)"><g transform="matrix(1, 0, 0, 1, 8, 2)"><g clip-path="url(#63cfa3ebe3)"><g clip-path="url(#5fffa1c692)"><path fill="#000000" d="M 0.550781 24.269531 L 125.253906 24.269531 L 125.253906 0.191406 L 123.050781 0.191406 L 123.050781 22.101562 L 0.550781 22.101562 Z M 0.550781 24.269531 " fill-opacity="1" fill-rule="nonzero"/></g></g></g></g><g clip-path="url(#7bda2350b7)"><path fill="#b8291e" d="M 95.890625 0.0195312 L 227.140625 0.0195312 L 227.140625 28.441406 L 95.890625 28.441406 Z M 95.890625 0.0195312 " fill-opacity="1" fill-rule="nonzero"/><path fill="#000000" d="M 224.972656 0.0195312 L 95.890625 0.0195312 L 95.890625 28.441406 L 227.105469 28.441406 L 227.105469 0.0195312 Z M 224.972656 26.269531 L 98.097656 26.269531 L 98.097656 2.226562 L 224.972656 2.226562 Z M 224.972656 26.269531 " fill-opacity="1" fill-rule="nonzero"/></g><g clip-path="url(#41ac76f666)"><path fill="#faa7c6" d="M 222.765625 2.191406 L 98.0625 2.191406 L 98.0625 26.269531 L 100.265625 26.269531 L 100.265625 4.394531 L 222.765625 4.394531 Z M 222.765625 2.191406 " fill-opacity="1" fill-rule="nonzero"/></g><g clip-path="url(#08c0b05658)"><g mask="url(#6376fe6a88)"><g transform="matrix(1, 0, 0, 1, 105, 2)"><g clip-path="url(#bcf8a898bd)"><g clip-path="url(#57c7ee6576)"><path fill="#000000" d="M -4.734375 24.269531 L 119.972656 24.269531 L 119.972656 0.191406 L 117.765625 0.191406 L 117.765625 22.101562 L -4.734375 22.101562 Z M -4.734375 24.269531 " fill-opacity="1" fill-rule="nonzero"/></g></g></g></g></g><g fill="#faa7c6" fill-opacity="1"><g transform="translate(20.861243, 17.754076)"><g><path d="M 2.921875 -5.84375 L 5.84375 -5.84375 L 5.84375 -8.75 L 2.921875 -8.75 Z M 7.296875 -5.84375 L 7.296875 -4.375 L 2.921875 -4.375 L 2.921875 0 L 0 0 L 0 -10.21875 L 7.296875 -10.21875 L 7.296875 -8.75 L 8.75 -8.75 L 8.75 -5.84375 Z M 7.296875 -5.84375 "/></g></g></g><g fill="#faa7c6" fill-opacity="1"><g transform="translate(31.21175, 17.754076)"><g><path d="M 0 -7.296875 L 5.84375 -7.296875 L 5.84375 -5.84375 L 4.375 -5.84375 L 4.375 -4.375 L 2.921875 -4.375 L 2.921875 0 L 0 0 Z M 0 -7.296875 "/></g></g></g><g fill="#faa7c6" fill-opacity="1"><g transform="translate(37.179565, 17.754076)"><g><path d="M 2.921875 -5.84375 L 2.921875 -4.375 L 4.375 -4.375 L 4.375 -5.84375 Z M 2.921875 -1.453125 L 7.296875 -1.453125 L 7.296875 0 L 1.453125 0 L 1.453125 -1.453125 L 0 -1.453125 L 0 -5.84375 L 1.453125 -5.84375 L 1.453125 -7.296875 L 5.84375 -7.296875 L 5.84375 -5.84375 L 7.296875 -5.84375 L 7.296875 -2.921875 L 2.921875 -2.921875 Z M 2.921875 -1.453125 "/></g></g></g><g fill="#faa7c6" fill-opacity="1"><g transform="translate(46.069173, 17.754076)"><g><path d="M 4.375 -1.453125 L 4.375 -5.84375 L 2.921875 -5.84375 L 2.921875 -1.453125 Z M 5.84375 -5.84375 L 7.296875 -5.84375 L 7.296875 -1.453125 L 5.84375 -1.453125 L 5.84375 0 L 2.921875 0 L 2.921875 2.921875 L 0 2.921875 L 0 -7.296875 L 5.84375 -7.296875 Z M 5.84375 -5.84375 "/></g></g></g><g fill="#faa7c6" fill-opacity="1"><g transform="translate(54.958783, 17.754076)"><g><path d="M 0 -5.84375 L 1.453125 -5.84375 L 1.453125 -7.296875 L 5.84375 -7.296875 L 5.84375 -5.84375 L 7.296875 -5.84375 L 7.296875 0 L 1.453125 0 L 1.453125 -1.453125 L 0 -1.453125 L 0 -2.921875 L 1.453125 -2.921875 L 1.453125 -4.375 L 0 -4.375 Z M 2.921875 -2.921875 L 2.921875 -1.453125 L 4.375 -1.453125 L 4.375 -2.921875 Z M 2.921875 -5.84375 L 2.921875 -4.375 L 4.375 -4.375 L 4.375 -5.84375 Z M 2.921875 -5.84375 "/></g></g></g><g fill="#faa7c6" fill-opacity="1"><g transform="translate(63.848393, 17.754076)"><g><path d="M 0 -7.296875 L 5.84375 -7.296875 L 5.84375 -5.84375 L 4.375 -5.84375 L 4.375 -4.375 L 2.921875 -4.375 L 2.921875 0 L 0 0 Z M 0 -7.296875 "/></g></g></g><g fill="#faa7c6" fill-opacity="1"><g transform="translate(69.816209, 17.754076)"><g><path d="M 2.921875 -5.84375 L 2.921875 -4.375 L 4.375 -4.375 L 4.375 -5.84375 Z M 2.921875 -1.453125 L 7.296875 -1.453125 L 7.296875 0 L 1.453125 0 L 1.453125 -1.453125 L 0 -1.453125 L 0 -5.84375 L 1.453125 -5.84375 L 1.453125 -7.296875 L 5.84375 -7.296875 L 5.84375 -5.84375 L 7.296875 -5.84375 L 7.296875 -2.921875 L 2.921875 -2.921875 Z M 2.921875 -1.453125 "/></g></g></g><g fill="#faa7c6" fill-opacity="1"><g transform="translate(78.705819, 17.754076)"><g/></g></g><g fill="#faa7c6" fill-opacity="1"><g transform="translate(83.212734, 17.754076)"><g><path d="M 2.921875 -1.453125 L 7.296875 -1.453125 L 7.296875 0 L 0 0 L 0 -10.21875 L 7.296875 -10.21875 L 7.296875 -8.75 L 2.921875 -8.75 L 2.921875 -5.84375 L 7.296875 -5.84375 L 7.296875 -4.375 L 2.921875 -4.375 Z M 2.921875 -1.453125 "/></g></g></g><g fill="#faa7c6" fill-opacity="1"><g transform="translate(92.102341, 17.754076)"><g><path d="M 5.84375 -5.84375 L 5.84375 -1.453125 L 7.296875 -1.453125 L 7.296875 0 L 4.375 0 L 4.375 -1.453125 L 2.921875 -1.453125 L 2.921875 0 L 0 0 L 0 -1.453125 L 1.453125 -1.453125 L 1.453125 -5.84375 L 0 -5.84375 L 0 -7.296875 L 2.921875 -7.296875 L 2.921875 -5.84375 L 4.375 -5.84375 L 4.375 -7.296875 L 7.296875 -7.296875 L 7.296875 -5.84375 Z M 5.84375 -5.84375 "/></g></g></g><g fill="#faa7c6" fill-opacity="1"><g transform="translate(100.991948, 17.754076)"><g><path d="M 4.375 -1.453125 L 4.375 -5.84375 L 2.921875 -5.84375 L 2.921875 -1.453125 Z M 5.84375 -5.84375 L 7.296875 -5.84375 L 7.296875 -1.453125 L 5.84375 -1.453125 L 5.84375 0 L 2.921875 0 L 2.921875 2.921875 L 0 2.921875 L 0 -7.296875 L 5.84375 -7.296875 Z M 5.84375 -5.84375 "/></g></g></g><g fill="#faa7c6" fill-opacity="1"><g transform="translate(109.881554, 17.754076)"><g><path d="M 2.921875 -5.84375 L 2.921875 -4.375 L 4.375 -4.375 L 4.375 -5.84375 Z M 2.921875 -1.453125 L 7.296875 -1.453125 L 7.296875 0 L 1.453125 0 L 1.453125 -1.453125 L 0 -1.453125 L 0 -5.84375 L 1.453125 -5.84375 L 1.453125 -7.296875 L 5.84375 -7.296875 L 5.84375 -5.84375 L 7.296875 -5.84375 L 7.296875 -2.921875 L 2.921875 -2.921875 Z M 2.921875 -1.453125 "/></g></g></g><g fill="#faa7c6" fill-opacity="1"><g transform="translate(118.771161, 17.754076)"><g><path d="M 2.921875 -5.84375 L 2.921875 -1.453125 L 4.375 -1.453125 L 4.375 -5.84375 Z M 1.453125 -1.453125 L 0 -1.453125 L 0 -5.84375 L 1.453125 -5.84375 L 1.453125 -7.296875 L 4.375 -7.296875 L 4.375 -10.21875 L 7.296875 -10.21875 L 7.296875 0 L 1.453125 0 Z M 1.453125 -1.453125 "/></g></g></g><g fill="#faa7c6" fill-opacity="1"><g transform="translate(127.660767, 17.754076)"><g><path d="M 0 -10.21875 L 2.921875 -10.21875 L 2.921875 -8.75 L 0 -8.75 Z M 0 -7.296875 L 2.921875 -7.296875 L 2.921875 0 L 0 0 Z M 0 -7.296875 "/></g></g></g><g fill="#faa7c6" fill-opacity="1"><g transform="translate(132.167683, 17.754076)"><g><path d="M 1.453125 0 L 1.453125 -1.453125 L 0 -1.453125 L 0 -5.84375 L -1.453125 -5.84375 L -1.453125 -7.296875 L 0 -7.296875 L 0 -10.21875 L 2.921875 -10.21875 L 2.921875 -7.296875 L 4.375 -7.296875 L 4.375 -5.84375 L 2.921875 -5.84375 L 2.921875 -1.453125 L 4.375 -1.453125 L 4.375 0 Z M 1.453125 0 "/></g></g></g><g fill="#faa7c6" fill-opacity="1"><g transform="translate(138.135502, 17.754076)"><g><path d="M 0 -10.21875 L 2.921875 -10.21875 L 2.921875 -8.75 L 0 -8.75 Z M 0 -7.296875 L 2.921875 -7.296875 L 2.921875 0 L 0 0 Z M 0 -7.296875 "/></g></g></g><g fill="#faa7c6" fill-opacity="1"><g transform="translate(142.642417, 17.754076)"><g><path d="M 2.921875 -5.84375 L 2.921875 -1.453125 L 4.375 -1.453125 L 4.375 -5.84375 Z M 1.453125 -1.453125 L 0 -1.453125 L 0 -5.84375 L 1.453125 -5.84375 L 1.453125 -7.296875 L 5.84375 -7.296875 L 5.84375 -5.84375 L 7.296875 -5.84375 L 7.296875 -1.453125 L 5.84375 -1.453125 L 5.84375 0 L 1.453125 0 Z M 1.453125 -1.453125 "/></g></g></g><g fill="#faa7c6" fill-opacity="1"><g transform="translate(151.532024, 17.754076)"><g><path d="M 7.296875 -5.84375 L 7.296875 0 L 4.375 0 L 4.375 -5.84375 L 2.921875 -5.84375 L 2.921875 0 L 0 0 L 0 -7.296875 L 5.84375 -7.296875 L 5.84375 -5.84375 Z M 7.296875 -5.84375 "/></g></g></g><g fill="#faa7c6" fill-opacity="1"><g transform="translate(160.42163, 17.754076)"><g/></g></g><g fill="#faa7c6" fill-opacity="1"><g transform="translate(164.928545, 17.754076)"><g><path d="M 1.453125 -10.21875 L 4.375 -10.21875 L 4.375 -7.296875 L 2.921875 -7.296875 L 2.921875 0 L 4.375 0 L 4.375 2.921875 L 1.453125 2.921875 L 1.453125 0 L 0 0 L 0 -7.296875 L 1.453125 -7.296875 Z M 1.453125 -10.21875 "/></g></g></g><g fill="#faa7c6" fill-opacity="1"><g transform="translate(170.896358, 17.754076)"><g><path d="M 1.453125 -1.453125 L 0 -1.453125 L 0 -2.921875 L 2.921875 -2.921875 L 2.921875 -1.453125 L 5.84375 -1.453125 L 5.84375 -4.375 L 1.453125 -4.375 L 1.453125 -5.84375 L 0 -5.84375 L 0 -8.75 L 1.453125 -8.75 L 1.453125 -10.21875 L 7.296875 -10.21875 L 7.296875 -8.75 L 8.75 -8.75 L 8.75 -7.296875 L 5.84375 -7.296875 L 5.84375 -8.75 L 2.921875 -8.75 L 2.921875 -5.84375 L 7.296875 -5.84375 L 7.296875 -4.375 L 8.75 -4.375 L 8.75 -1.453125 L 7.296875 -1.453125 L 7.296875 0 L 1.453125 0 Z M 1.453125 -1.453125 "/></g></g></g><g fill="#faa7c6" fill-opacity="1"><g transform="translate(181.246861, 17.754076)"><g><path d="M 2.921875 -5.84375 L 2.921875 -4.375 L 4.375 -4.375 L 4.375 -5.84375 Z M 2.921875 -1.453125 L 7.296875 -1.453125 L 7.296875 0 L 1.453125 0 L 1.453125 -1.453125 L 0 -1.453125 L 0 -5.84375 L 1.453125 -5.84375 L 1.453125 -7.296875 L 5.84375 -7.296875 L 5.84375 -5.84375 L 7.296875 -5.84375 L 7.296875 -2.921875 L 2.921875 -2.921875 Z M 2.921875 -1.453125 "/></g></g></g><g fill="#faa7c6" fill-opacity="1"><g transform="translate(190.136468, 17.754076)"><g><path d="M 7.296875 -5.84375 L 7.296875 0 L 4.375 0 L 4.375 -5.84375 L 2.921875 -5.84375 L 2.921875 0 L 0 0 L 0 -7.296875 L 5.84375 -7.296875 L 5.84375 -5.84375 Z M 7.296875 -5.84375 "/></g></g></g><g fill="#faa7c6" fill-opacity="1"><g transform="translate(199.026075, 17.754076)"><g><path d="M 2.921875 -5.84375 L 2.921875 -1.453125 L 4.375 -1.453125 L 4.375 -5.84375 Z M 1.453125 -1.453125 L 0 -1.453125 L 0 -5.84375 L 1.453125 -5.84375 L 1.453125 -7.296875 L 4.375 -7.296875 L 4.375 -10.21875 L 7.296875 -10.21875 L 7.296875 0 L 1.453125 0 Z M 1.453125 -1.453125 "/></g></g></g><g fill="#faa7c6" fill-opacity="1"><g transform="translate(207.915681, 17.754076)"><g><path d="M 0 -10.21875 L 2.921875 -10.21875 L 2.921875 -7.296875 L 4.375 -7.296875 L 4.375 0 L 2.921875 0 L 2.921875 2.921875 L 0 2.921875 L 0 0 L 1.453125 0 L 1.453125 -7.296875 L 0 -7.296875 Z M 0 -10.21875 "/></g></g></g></svg>