<svg xmlns="http://www.w3.org/2000/svg" xmlns:xlink="http://www.w3.org/1999/xlink" width="182" zoomAndPan="magnify" viewBox="0 0 136.5 30.750001" height="41" preserveAspectRatio="xMidYMid meet" version="1.0"><defs><filter x="0%" y="0%" width="100%" height="100%" id="ab7d14ac33"><feColorMatrix values="0 0 0 0 1 0 0 0 0 1 0 0 0 0 1 0 0 0 1 0" color-interpolation-filters="sRGB"/></filter><g/><clipPath id="edb95cac48"><path d="M 0.535156 0.667969 L 135.191406 0.667969 L 135.191406 29.683594 L 0.535156 29.683594 Z M 0.535156 0.667969 " clip-rule="nonzero"/></clipPath><mask id="254a38bd7b"><g filter="url(#ab7d14ac33)"><rect x="-13.65" width="163.8" fill="#000000" y="-3.075" height="36.900001" fill-opacity="0.3"/></g></mask><clipPath id="b1b2453e34"><path d="M 1 0.617188 L 129 0.617188 L 129 25.617188 L 1 25.617188 Z M 1 0.617188 " clip-rule="nonzero"/></clipPath><clipPath id="34e0451300"><rect x="0" width="130" y="0" height="26"/></clipPath></defs><g clip-path="url(#edb95cac48)"><path fill="#2d7b80" d="M 0.585938 0.667969 L 135.117188 0.667969 L 135.117188 29.796875 L 0.585938 29.796875 Z M 0.585938 0.667969 " fill-opacity="1" fill-rule="nonzero"/><path fill="#000000" d="M 132.890625 0.667969 L 0.585938 0.667969 L 0.585938 29.796875 L 135.082031 29.796875 L 135.082031 0.667969 Z M 132.890625 27.574219 L 2.84375 27.574219 L 2.84375 2.929688 L 132.890625 2.929688 Z M 132.890625 27.574219 " fill-opacity="1" fill-rule="nonzero"/></g><path fill="#5ce3eb" d="M 130.632812 2.890625 L 2.808594 2.890625 L 2.808594 27.574219 L 5.070312 27.574219 L 5.070312 5.152344 L 130.632812 5.152344 Z M 130.632812 2.890625 " fill-opacity="1" fill-rule="nonzero"/><g mask="url(#254a38bd7b)"><g transform="matrix(1, 0, 0, 1, 4, 2)"><g clip-path="url(#34e0451300)"><g clip-path="url(#b1b2453e34)"><path fill="#000000" d="M 1.070312 25.574219 L 128.890625 25.574219 L 128.890625 0.890625 L 126.632812 0.890625 L 126.632812 23.351562 L 1.070312 23.351562 Z M 1.070312 25.574219 " fill-opacity="1" fill-rule="nonzero"/></g></g></g></g><g fill="#5ce3eb" fill-opacity="1"><g transform="translate(23.926498, 18.602746)"><g><path d="M 8.96875 -10.46875 L 8.96875 0 L 5.984375 0 L 5.984375 -3 L 4.484375 -3 L 4.484375 -4.484375 L 3 -4.484375 L 3 0 L 0 0 L 0 -10.46875 L 3 -10.46875 L 3 -8.96875 L 4.484375 -8.96875 L 4.484375 -7.484375 L 5.984375 -7.484375 L 5.984375 -10.46875 Z M 8.96875 -10.46875 "/></g></g></g><g fill="#5ce3eb" fill-opacity="1"><g transform="translate(34.535767, 18.602746)"><g><path d="M 3 -5.984375 L 3 -4.484375 L 4.484375 -4.484375 L 4.484375 -5.984375 Z M 3 -1.5 L 7.484375 -1.5 L 7.484375 0 L 1.5 0 L 1.5 -1.5 L 0 -1.5 L 0 -5.984375 L 1.5 -5.984375 L 1.5 -7.484375 L 5.984375 -7.484375 L 5.984375 -5.984375 L 7.484375 -5.984375 L 7.484375 -3 L 3 -3 Z M 3 -1.5 "/></g></g></g><g fill="#5ce3eb" fill-opacity="1"><g transform="translate(43.647617, 18.602746)"><g><path d="M 5.984375 -5.984375 L 5.984375 -1.5 L 7.484375 -1.5 L 7.484375 0 L 4.484375 0 L 4.484375 -1.5 L 3 -1.5 L 3 0 L 0 0 L 0 -1.5 L 1.5 -1.5 L 1.5 -5.984375 L 0 -5.984375 L 0 -7.484375 L 3 -7.484375 L 3 -5.984375 L 4.484375 -5.984375 L 4.484375 -7.484375 L 7.484375 -7.484375 L 7.484375 -5.984375 Z M 5.984375 -5.984375 "/></g></g></g><g fill="#5ce3eb" fill-opacity="1"><g transform="translate(52.759465, 18.602746)"><g><path d="M 1.5 0 L 1.5 -1.5 L 0 -1.5 L 0 -5.984375 L -1.5 -5.984375 L -1.5 -7.484375 L 0 -7.484375 L 0 -10.46875 L 3 -10.46875 L 3 -7.484375 L 4.484375 -7.484375 L 4.484375 -5.984375 L 3 -5.984375 L 3 -1.5 L 4.484375 -1.5 L 4.484375 0 Z M 1.5 0 "/></g></g></g><g fill="#5ce3eb" fill-opacity="1"><g transform="translate(58.876476, 18.602746)"><g/></g></g><g fill="#5ce3eb" fill-opacity="1"><g transform="translate(63.496068, 18.602746)"><g><path d="M 7.484375 -1.5 L 7.484375 0 L 0 0 L 0 -10.46875 L 2.984375 -10.46875 L 2.984375 -1.5 Z M 7.484375 -1.5 "/></g></g></g><g fill="#5ce3eb" fill-opacity="1"><g transform="translate(72.607918, 18.602746)"><g><path d="M 3 -5.984375 L 3 -4.484375 L 4.484375 -4.484375 L 4.484375 -5.984375 Z M 3 -1.5 L 7.484375 -1.5 L 7.484375 0 L 1.5 0 L 1.5 -1.5 L 0 -1.5 L 0 -5.984375 L 1.5 -5.984375 L 1.5 -7.484375 L 5.984375 -7.484375 L 5.984375 -5.984375 L 7.484375 -5.984375 L 7.484375 -3 L 3 -3 Z M 3 -1.5 "/></g></g></g><g fill="#5ce3eb" fill-opacity="1"><g transform="translate(81.719769, 18.602746)"><g><path d="M -1.5 -7.484375 L 1.5 -7.484375 L 1.5 -5.984375 L 4.484375 -5.984375 L 4.484375 -7.484375 L 7.484375 -7.484375 L 7.484375 -5.984375 L 5.984375 -5.984375 L 5.984375 -3 L 4.484375 -3 L 4.484375 0 L 1.5 0 L 1.5 -3 L 0 -3 L 0 -5.984375 L -1.5 -5.984375 Z M -1.5 -7.484375 "/></g></g></g><g fill="#5ce3eb" fill-opacity="1"><g transform="translate(89.334196, 18.602746)"><g><path d="M 3 -5.984375 L 3 -4.484375 L 4.484375 -4.484375 L 4.484375 -5.984375 Z M 3 -1.5 L 7.484375 -1.5 L 7.484375 0 L 1.5 0 L 1.5 -1.5 L 0 -1.5 L 0 -5.984375 L 1.5 -5.984375 L 1.5 -7.484375 L 5.984375 -7.484375 L 5.984375 -5.984375 L 7.484375 -5.984375 L 7.484375 -3 L 3 -3 Z M 3 -1.5 "/></g></g></g><g fill="#5ce3eb" fill-opacity="1"><g transform="translate(98.446043, 18.602746)"><g><path d="M 0 -10.46875 L 3 -10.46875 L 3 0 L 0 0 Z M 0 -10.46875 "/></g></g></g><g fill="#5ce3eb" fill-opacity="1"><g transform="translate(103.065631, 18.602746)"><g/></g></g><g fill="#5ce3eb" fill-opacity="1"><g transform="translate(107.685219, 18.602746)"><g><path d="M 3 -3 L 3 -1.5 L 0 -1.5 L 0 -3 L 1.5 -3 L 1.5 -4.484375 L 4.484375 -4.484375 L 4.484375 -5.984375 L 1.5 -5.984375 L 1.5 -7.484375 L 0 -7.484375 L 0 -8.96875 L 3 -8.96875 L 3 -7.484375 L 5.984375 -7.484375 L 5.984375 -5.984375 L 8.96875 -5.984375 L 8.96875 -4.484375 L 5.984375 -4.484375 L 5.984375 -3 Z M 3 -3 "/></g></g></g></svg>