<svg xmlns="http://www.w3.org/2000/svg" xmlns:xlink="http://www.w3.org/1999/xlink" width="309" zoomAndPan="magnify" viewBox="0 0 231.75 30.000001" height="40" preserveAspectRatio="xMidYMid meet" version="1.0"><defs><filter x="0%" y="0%" width="100%" height="100%" id="75b7772ca4"><feColorMatrix values="0 0 0 0 1 0 0 0 0 1 0 0 0 0 1 0 0 0 1 0" color-interpolation-filters="sRGB"/></filter><g/><clipPath id="7bb7e44baa"><path d="M 4.21875 0.105469 L 135.589844 0.105469 L 135.589844 28.410156 L 4.21875 28.410156 Z M 4.21875 0.105469 " clip-rule="nonzero"/></clipPath><mask id="7336ac5ba7"><g filter="url(#75b7772ca4)"><rect x="-23.175" width="278.1" fill="#000000" y="-3" height="36.000001" fill-opacity="0.3"/></g></mask><clipPath id="e7152eb2e9"><path d="M 0.261719 0.0898438 L 125.449219 0.0898438 L 125.449219 24.476562 L 0.261719 24.476562 Z M 0.261719 0.0898438 " clip-rule="nonzero"/></clipPath><clipPath id="cbaab94a56"><rect x="0" width="126" y="0" height="25"/></clipPath><clipPath id="e3bcb4a623"><path d="M 105.316406 0.105469 L 227.253906 0.105469 L 227.253906 26.234375 L 105.316406 26.234375 Z M 105.316406 0.105469 " clip-rule="nonzero"/></clipPath><clipPath id="70e5702558"><path d="M 105.316406 2 L 223 2 L 223 26.234375 L 105.316406 26.234375 Z M 105.316406 2 " clip-rule="nonzero"/></clipPath><clipPath id="191df913a1"><path d="M 105.316406 2 L 226 2 L 226 26.234375 L 105.316406 26.234375 Z M 105.316406 2 " clip-rule="nonzero"/></clipPath><mask id="e76394ce02"><g filter="url(#75b7772ca4)"><rect x="-23.175" width="278.1" fill="#000000" y="-3" height="36.000001" fill-opacity="0.3"/></g></mask><clipPath id="a897a8679f"><path d="M 0.316406 0.0898438 L 120.191406 0.0898438 L 120.191406 24.234375 L 0.316406 24.234375 Z M 0.316406 0.0898438 " clip-rule="nonzero"/></clipPath><clipPath id="9c74cc721f"><rect x="0" width="121" y="0" height="25"/></clipPath></defs><g clip-path="url(#7bb7e44baa)"><path fill="#b8291e" d="M 4.269531 0.105469 L 135.519531 0.105469 L 135.519531 28.523438 L 4.269531 28.523438 Z M 4.269531 0.105469 " fill-opacity="1" fill-rule="nonzero"/><path fill="#000000" d="M 133.347656 0.105469 L 4.269531 0.105469 L 4.269531 28.523438 L 135.484375 28.523438 L 135.484375 0.105469 Z M 133.347656 26.355469 L 6.472656 26.355469 L 6.472656 2.308594 L 133.347656 2.308594 Z M 133.347656 26.355469 " fill-opacity="1" fill-rule="nonzero"/></g><path fill="#faa7c6" d="M 131.144531 2.273438 L 6.4375 2.273438 L 6.4375 26.355469 L 8.644531 26.355469 L 8.644531 4.480469 L 131.144531 4.480469 Z M 131.144531 2.273438 " fill-opacity="1" fill-rule="nonzero"/><g mask="url(#7336ac5ba7)"><g transform="matrix(1, 0, 0, 1, 8, 2)"><g clip-path="url(#cbaab94a56)"><g clip-path="url(#e7152eb2e9)"><path fill="#000000" d="M 0.644531 24.355469 L 125.347656 24.355469 L 125.347656 0.273438 L 123.144531 0.273438 L 123.144531 22.183594 L 0.644531 22.183594 Z M 0.644531 24.355469 " fill-opacity="1" fill-rule="nonzero"/></g></g></g></g><g clip-path="url(#e3bcb4a623)"><path fill="#b8291e" d="M 95.984375 0.105469 L 227.234375 0.105469 L 227.234375 28.523438 L 95.984375 28.523438 Z M 95.984375 0.105469 " fill-opacity="1" fill-rule="nonzero"/><path fill="#000000" d="M 225.066406 0.105469 L 95.984375 0.105469 L 95.984375 28.523438 L 227.199219 28.523438 L 227.199219 0.105469 Z M 225.066406 26.355469 L 98.191406 26.355469 L 98.191406 2.308594 L 225.066406 2.308594 Z M 225.066406 26.355469 " fill-opacity="1" fill-rule="nonzero"/></g><g clip-path="url(#70e5702558)"><path fill="#faa7c6" d="M 222.859375 2.273438 L 98.15625 2.273438 L 98.15625 26.355469 L 100.359375 26.355469 L 100.359375 4.480469 L 222.859375 4.480469 Z M 222.859375 2.273438 " fill-opacity="1" fill-rule="nonzero"/></g><g clip-path="url(#191df913a1)"><g mask="url(#e76394ce02)"><g transform="matrix(1, 0, 0, 1, 105, 2)"><g clip-path="url(#9c74cc721f)"><g clip-path="url(#a897a8679f)"><path fill="#000000" d="M -4.640625 24.355469 L 120.066406 24.355469 L 120.066406 0.273438 L 117.859375 0.273438 L 117.859375 22.183594 L -4.640625 22.183594 Z M -4.640625 24.355469 " fill-opacity="1" fill-rule="nonzero"/></g></g></g></g></g><g fill="#faa7c6" fill-opacity="1"><g transform="translate(20.955749, 17.837577)"><g><path d="M 2.921875 -5.84375 L 5.84375 -5.84375 L 5.84375 -8.75 L 2.921875 -8.75 Z M 7.296875 -5.84375 L 7.296875 -4.375 L 2.921875 -4.375 L 2.921875 0 L 0 0 L 0 -10.21875 L 7.296875 -10.21875 L 7.296875 -8.75 L 8.75 -8.75 L 8.75 -5.84375 Z M 7.296875 -5.84375 "/></g></g></g><g fill="#faa7c6" fill-opacity="1"><g transform="translate(31.306255, 17.837577)"><g><path d="M 0 -7.296875 L 5.84375 -7.296875 L 5.84375 -5.84375 L 4.375 -5.84375 L 4.375 -4.375 L 2.921875 -4.375 L 2.921875 0 L 0 0 Z M 0 -7.296875 "/></g></g></g><g fill="#faa7c6" fill-opacity="1"><g transform="translate(37.27407, 17.837577)"><g><path d="M 2.921875 -5.84375 L 2.921875 -4.375 L 4.375 -4.375 L 4.375 -5.84375 Z M 2.921875 -1.453125 L 7.296875 -1.453125 L 7.296875 0 L 1.453125 0 L 1.453125 -1.453125 L 0 -1.453125 L 0 -5.84375 L 1.453125 -5.84375 L 1.453125 -7.296875 L 5.84375 -7.296875 L 5.84375 -5.84375 L 7.296875 -5.84375 L 7.296875 -2.921875 L 2.921875 -2.921875 Z M 2.921875 -1.453125 "/></g></g></g><g fill="#faa7c6" fill-opacity="1"><g transform="translate(46.163679, 17.837577)"><g><path d="M 4.375 -1.453125 L 4.375 -5.84375 L 2.921875 -5.84375 L 2.921875 -1.453125 Z M 5.84375 -5.84375 L 7.296875 -5.84375 L 7.296875 -1.453125 L 5.84375 -1.453125 L 5.84375 0 L 2.921875 0 L 2.921875 2.921875 L 0 2.921875 L 0 -7.296875 L 5.84375 -7.296875 Z M 5.84375 -5.84375 "/></g></g></g><g fill="#faa7c6" fill-opacity="1"><g transform="translate(55.053289, 17.837577)"><g><path d="M 0 -5.84375 L 1.453125 -5.84375 L 1.453125 -7.296875 L 5.84375 -7.296875 L 5.84375 -5.84375 L 7.296875 -5.84375 L 7.296875 0 L 1.453125 0 L 1.453125 -1.453125 L 0 -1.453125 L 0 -2.921875 L 1.453125 -2.921875 L 1.453125 -4.375 L 0 -4.375 Z M 2.921875 -2.921875 L 2.921875 -1.453125 L 4.375 -1.453125 L 4.375 -2.921875 Z M 2.921875 -5.84375 L 2.921875 -4.375 L 4.375 -4.375 L 4.375 -5.84375 Z M 2.921875 -5.84375 "/></g></g></g><g fill="#faa7c6" fill-opacity="1"><g transform="translate(63.942899, 17.837577)"><g><path d="M 0 -7.296875 L 5.84375 -7.296875 L 5.84375 -5.84375 L 4.375 -5.84375 L 4.375 -4.375 L 2.921875 -4.375 L 2.921875 0 L 0 0 Z M 0 -7.296875 "/></g></g></g><g fill="#faa7c6" fill-opacity="1"><g transform="translate(69.910715, 17.837577)"><g><path d="M 2.921875 -5.84375 L 2.921875 -4.375 L 4.375 -4.375 L 4.375 -5.84375 Z M 2.921875 -1.453125 L 7.296875 -1.453125 L 7.296875 0 L 1.453125 0 L 1.453125 -1.453125 L 0 -1.453125 L 0 -5.84375 L 1.453125 -5.84375 L 1.453125 -7.296875 L 5.84375 -7.296875 L 5.84375 -5.84375 L 7.296875 -5.84375 L 7.296875 -2.921875 L 2.921875 -2.921875 Z M 2.921875 -1.453125 "/></g></g></g><g fill="#faa7c6" fill-opacity="1"><g transform="translate(78.800325, 17.837577)"><g/></g></g><g fill="#faa7c6" fill-opacity="1"><g transform="translate(83.30724, 17.837577)"><g><path d="M 2.921875 -1.453125 L 7.296875 -1.453125 L 7.296875 0 L 0 0 L 0 -10.21875 L 7.296875 -10.21875 L 7.296875 -8.75 L 2.921875 -8.75 L 2.921875 -5.84375 L 7.296875 -5.84375 L 7.296875 -4.375 L 2.921875 -4.375 Z M 2.921875 -1.453125 "/></g></g></g><g fill="#faa7c6" fill-opacity="1"><g transform="translate(92.196846, 17.837577)"><g><path d="M 5.84375 -5.84375 L 5.84375 -1.453125 L 7.296875 -1.453125 L 7.296875 0 L 4.375 0 L 4.375 -1.453125 L 2.921875 -1.453125 L 2.921875 0 L 0 0 L 0 -1.453125 L 1.453125 -1.453125 L 1.453125 -5.84375 L 0 -5.84375 L 0 -7.296875 L 2.921875 -7.296875 L 2.921875 -5.84375 L 4.375 -5.84375 L 4.375 -7.296875 L 7.296875 -7.296875 L 7.296875 -5.84375 Z M 5.84375 -5.84375 "/></g></g></g><g fill="#faa7c6" fill-opacity="1"><g transform="translate(101.086453, 17.837577)"><g><path d="M 4.375 -1.453125 L 4.375 -5.84375 L 2.921875 -5.84375 L 2.921875 -1.453125 Z M 5.84375 -5.84375 L 7.296875 -5.84375 L 7.296875 -1.453125 L 5.84375 -1.453125 L 5.84375 0 L 2.921875 0 L 2.921875 2.921875 L 0 2.921875 L 0 -7.296875 L 5.84375 -7.296875 Z M 5.84375 -5.84375 "/></g></g></g><g fill="#faa7c6" fill-opacity="1"><g transform="translate(109.97606, 17.837577)"><g><path d="M 2.921875 -5.84375 L 2.921875 -4.375 L 4.375 -4.375 L 4.375 -5.84375 Z M 2.921875 -1.453125 L 7.296875 -1.453125 L 7.296875 0 L 1.453125 0 L 1.453125 -1.453125 L 0 -1.453125 L 0 -5.84375 L 1.453125 -5.84375 L 1.453125 -7.296875 L 5.84375 -7.296875 L 5.84375 -5.84375 L 7.296875 -5.84375 L 7.296875 -2.921875 L 2.921875 -2.921875 Z M 2.921875 -1.453125 "/></g></g></g><g fill="#faa7c6" fill-opacity="1"><g transform="translate(118.865666, 17.837577)"><g><path d="M 2.921875 -5.84375 L 2.921875 -1.453125 L 4.375 -1.453125 L 4.375 -5.84375 Z M 1.453125 -1.453125 L 0 -1.453125 L 0 -5.84375 L 1.453125 -5.84375 L 1.453125 -7.296875 L 4.375 -7.296875 L 4.375 -10.21875 L 7.296875 -10.21875 L 7.296875 0 L 1.453125 0 Z M 1.453125 -1.453125 "/></g></g></g><g fill="#faa7c6" fill-opacity="1"><g transform="translate(127.755273, 17.837577)"><g><path d="M 0 -10.21875 L 2.921875 -10.21875 L 2.921875 -8.75 L 0 -8.75 Z M 0 -7.296875 L 2.921875 -7.296875 L 2.921875 0 L 0 0 Z M 0 -7.296875 "/></g></g></g><g fill="#faa7c6" fill-opacity="1"><g transform="translate(132.262188, 17.837577)"><g><path d="M 1.453125 0 L 1.453125 -1.453125 L 0 -1.453125 L 0 -5.84375 L -1.453125 -5.84375 L -1.453125 -7.296875 L 0 -7.296875 L 0 -10.21875 L 2.921875 -10.21875 L 2.921875 -7.296875 L 4.375 -7.296875 L 4.375 -5.84375 L 2.921875 -5.84375 L 2.921875 -1.453125 L 4.375 -1.453125 L 4.375 0 Z M 1.453125 0 "/></g></g></g><g fill="#faa7c6" fill-opacity="1"><g transform="translate(138.230007, 17.837577)"><g><path d="M 0 -10.21875 L 2.921875 -10.21875 L 2.921875 -8.75 L 0 -8.75 Z M 0 -7.296875 L 2.921875 -7.296875 L 2.921875 0 L 0 0 Z M 0 -7.296875 "/></g></g></g><g fill="#faa7c6" fill-opacity="1"><g transform="translate(142.736922, 17.837577)"><g><path d="M 2.921875 -5.84375 L 2.921875 -1.453125 L 4.375 -1.453125 L 4.375 -5.84375 Z M 1.453125 -1.453125 L 0 -1.453125 L 0 -5.84375 L 1.453125 -5.84375 L 1.453125 -7.296875 L 5.84375 -7.296875 L 5.84375 -5.84375 L 7.296875 -5.84375 L 7.296875 -1.453125 L 5.84375 -1.453125 L 5.84375 0 L 1.453125 0 Z M 1.453125 -1.453125 "/></g></g></g><g fill="#faa7c6" fill-opacity="1"><g transform="translate(151.626529, 17.837577)"><g><path d="M 7.296875 -5.84375 L 7.296875 0 L 4.375 0 L 4.375 -5.84375 L 2.921875 -5.84375 L 2.921875 0 L 0 0 L 0 -7.296875 L 5.84375 -7.296875 L 5.84375 -5.84375 Z M 7.296875 -5.84375 "/></g></g></g><g fill="#faa7c6" fill-opacity="1"><g transform="translate(160.516136, 17.837577)"><g/></g></g><g fill="#faa7c6" fill-opacity="1"><g transform="translate(165.023051, 17.837577)"><g><path d="M 1.453125 -10.21875 L 4.375 -10.21875 L 4.375 -7.296875 L 2.921875 -7.296875 L 2.921875 0 L 4.375 0 L 4.375 2.921875 L 1.453125 2.921875 L 1.453125 0 L 0 0 L 0 -7.296875 L 1.453125 -7.296875 Z M 1.453125 -10.21875 "/></g></g></g><g fill="#faa7c6" fill-opacity="1"><g transform="translate(170.990863, 17.837577)"><g><path d="M 1.453125 -1.453125 L 0 -1.453125 L 0 -2.921875 L 2.921875 -2.921875 L 2.921875 -1.453125 L 5.84375 -1.453125 L 5.84375 -4.375 L 1.453125 -4.375 L 1.453125 -5.84375 L 0 -5.84375 L 0 -8.75 L 1.453125 -8.75 L 1.453125 -10.21875 L 7.296875 -10.21875 L 7.296875 -8.75 L 8.75 -8.75 L 8.75 -7.296875 L 5.84375 -7.296875 L 5.84375 -8.75 L 2.921875 -8.75 L 2.921875 -5.84375 L 7.296875 -5.84375 L 7.296875 -4.375 L 8.75 -4.375 L 8.75 -1.453125 L 7.296875 -1.453125 L 7.296875 0 L 1.453125 0 Z M 1.453125 -1.453125 "/></g></g></g><g fill="#faa7c6" fill-opacity="1"><g transform="translate(181.341367, 17.837577)"><g><path d="M 2.921875 -5.84375 L 2.921875 -4.375 L 4.375 -4.375 L 4.375 -5.84375 Z M 2.921875 -1.453125 L 7.296875 -1.453125 L 7.296875 0 L 1.453125 0 L 1.453125 -1.453125 L 0 -1.453125 L 0 -5.84375 L 1.453125 -5.84375 L 1.453125 -7.296875 L 5.84375 -7.296875 L 5.84375 -5.84375 L 7.296875 -5.84375 L 7.296875 -2.921875 L 2.921875 -2.921875 Z M 2.921875 -1.453125 "/></g></g></g><g fill="#faa7c6" fill-opacity="1"><g transform="translate(190.230974, 17.837577)"><g><path d="M 7.296875 -5.84375 L 7.296875 0 L 4.375 0 L 4.375 -5.84375 L 2.921875 -5.84375 L 2.921875 0 L 0 0 L 0 -7.296875 L 5.84375 -7.296875 L 5.84375 -5.84375 Z M 7.296875 -5.84375 "/></g></g></g><g fill="#faa7c6" fill-opacity="1"><g transform="translate(199.12058, 17.837577)"><g><path d="M 2.921875 -5.84375 L 2.921875 -1.453125 L 4.375 -1.453125 L 4.375 -5.84375 Z M 1.453125 -1.453125 L 0 -1.453125 L 0 -5.84375 L 1.453125 -5.84375 L 1.453125 -7.296875 L 4.375 -7.296875 L 4.375 -10.21875 L 7.296875 -10.21875 L 7.296875 0 L 1.453125 0 Z M 1.453125 -1.453125 "/></g></g></g><g fill="#faa7c6" fill-opacity="1"><g transform="translate(208.010187, 17.837577)"><g><path d="M 0 -10.21875 L 2.921875 -10.21875 L 2.921875 -7.296875 L 4.375 -7.296875 L 4.375 0 L 2.921875 0 L 2.921875 2.921875 L 0 2.921875 L 0 0 L 1.453125 0 L 1.453125 -7.296875 L 0 -7.296875 Z M 0 -10.21875 "/></g></g></g></svg>