<svg xmlns="http://www.w3.org/2000/svg" xmlns:xlink="http://www.w3.org/1999/xlink" width="182" zoomAndPan="magnify" viewBox="0 0 136.5 30.000001" height="40" preserveAspectRatio="xMidYMid meet" version="1.0"><defs><filter x="0%" y="0%" width="100%" height="100%" id="e71379d01c"><feColorMatrix values="0 0 0 0 1 0 0 0 0 1 0 0 0 0 1 0 0 0 1 0" color-interpolation-filters="sRGB"/></filter><g/><clipPath id="9550bb1549"><path d="M 2.578125 0.105469 L 133.949219 0.105469 L 133.949219 28.410156 L 2.578125 28.410156 Z M 2.578125 0.105469 " clip-rule="nonzero"/></clipPath><mask id="91d07ddf56"><g filter="url(#e71379d01c)"><rect x="-13.65" width="163.8" fill="#000000" y="-3" height="36.000001" fill-opacity="0.3"/></g></mask><clipPath id="6f93024e28"><path d="M 1 0.0898438 L 125.792969 0.0898438 L 125.792969 24.476562 L 1 24.476562 Z M 1 0.0898438 " clip-rule="nonzero"/></clipPath><clipPath id="5250cbb6ad"><rect x="0" width="126" y="0" height="25"/></clipPath></defs><g clip-path="url(#9550bb1549)"><path fill="#2d7b80" d="M 2.628906 0.105469 L 133.878906 0.105469 L 133.878906 28.523438 L 2.628906 28.523438 Z M 2.628906 0.105469 " fill-opacity="1" fill-rule="nonzero"/><path fill="#000000" d="M 131.707031 0.105469 L 2.628906 0.105469 L 2.628906 28.523438 L 133.84375 28.523438 L 133.84375 0.105469 Z M 131.707031 26.355469 L 4.835938 26.355469 L 4.835938 2.308594 L 131.707031 2.308594 Z M 131.707031 26.355469 " fill-opacity="1" fill-rule="nonzero"/></g><path fill="#5ce3eb" d="M 129.503906 2.273438 L 4.800781 2.273438 L 4.800781 26.355469 L 7.003906 26.355469 L 7.003906 4.480469 L 129.503906 4.480469 Z M 129.503906 2.273438 " fill-opacity="1" fill-rule="nonzero"/><g mask="url(#91d07ddf56)"><g transform="matrix(1, 0, 0, 1, 6, 2)"><g clip-path="url(#5250cbb6ad)"><g clip-path="url(#6f93024e28)"><path fill="#000000" d="M 1.003906 24.355469 L 125.707031 24.355469 L 125.707031 0.273438 L 123.503906 0.273438 L 123.503906 22.183594 L 1.003906 22.183594 Z M 1.003906 24.355469 " fill-opacity="1" fill-rule="nonzero"/></g></g></g></g><g fill="#5ce3eb" fill-opacity="1"><g transform="translate(32.286181, 18.874826)"><g><path d="M 1.453125 -1.453125 L 0 -1.453125 L 0 -2.921875 L 2.921875 -2.921875 L 2.921875 -1.453125 L 5.84375 -1.453125 L 5.84375 -4.375 L 1.453125 -4.375 L 1.453125 -5.84375 L 0 -5.84375 L 0 -8.75 L 1.453125 -8.75 L 1.453125 -10.21875 L 7.296875 -10.21875 L 7.296875 -8.75 L 8.75 -8.75 L 8.75 -7.296875 L 5.84375 -7.296875 L 5.84375 -8.75 L 2.921875 -8.75 L 2.921875 -5.84375 L 7.296875 -5.84375 L 7.296875 -4.375 L 8.75 -4.375 L 8.75 -1.453125 L 7.296875 -1.453125 L 7.296875 0 L 1.453125 0 Z M 1.453125 -1.453125 "/></g></g></g><g fill="#5ce3eb" fill-opacity="1"><g transform="translate(42.636688, 18.874826)"><g><path d="M 2.921875 -5.84375 L 2.921875 -4.375 L 4.375 -4.375 L 4.375 -5.84375 Z M 2.921875 -1.453125 L 7.296875 -1.453125 L 7.296875 0 L 1.453125 0 L 1.453125 -1.453125 L 0 -1.453125 L 0 -5.84375 L 1.453125 -5.84375 L 1.453125 -7.296875 L 5.84375 -7.296875 L 5.84375 -5.84375 L 7.296875 -5.84375 L 7.296875 -2.921875 L 2.921875 -2.921875 Z M 2.921875 -1.453125 "/></g></g></g><g fill="#5ce3eb" fill-opacity="1"><g transform="translate(51.526297, 18.874826)"><g><path d="M 0 -10.21875 L 2.921875 -10.21875 L 2.921875 0 L 0 0 Z M 0 -10.21875 "/></g></g></g><g fill="#5ce3eb" fill-opacity="1"><g transform="translate(56.033214, 18.874826)"><g><path d="M 2.921875 -5.84375 L 2.921875 -4.375 L 4.375 -4.375 L 4.375 -5.84375 Z M 2.921875 -1.453125 L 7.296875 -1.453125 L 7.296875 0 L 1.453125 0 L 1.453125 -1.453125 L 0 -1.453125 L 0 -5.84375 L 1.453125 -5.84375 L 1.453125 -7.296875 L 5.84375 -7.296875 L 5.84375 -5.84375 L 7.296875 -5.84375 L 7.296875 -2.921875 L 2.921875 -2.921875 Z M 2.921875 -1.453125 "/></g></g></g><g fill="#5ce3eb" fill-opacity="1"><g transform="translate(64.922824, 18.874826)"><g><path d="M 4.375 -2.921875 L 7.296875 -2.921875 L 7.296875 -1.453125 L 5.84375 -1.453125 L 5.84375 0 L 1.453125 0 L 1.453125 -1.453125 L 0 -1.453125 L 0 -5.84375 L 1.453125 -5.84375 L 1.453125 -7.296875 L 5.84375 -7.296875 L 5.84375 -5.84375 L 7.296875 -5.84375 L 7.296875 -4.375 L 4.375 -4.375 L 4.375 -5.84375 L 2.921875 -5.84375 L 2.921875 -1.453125 L 4.375 -1.453125 Z M 4.375 -2.921875 "/></g></g></g><g fill="#5ce3eb" fill-opacity="1"><g transform="translate(73.812434, 18.874826)"><g><path d="M 1.453125 0 L 1.453125 -1.453125 L 0 -1.453125 L 0 -5.84375 L -1.453125 -5.84375 L -1.453125 -7.296875 L 0 -7.296875 L 0 -10.21875 L 2.921875 -10.21875 L 2.921875 -7.296875 L 4.375 -7.296875 L 4.375 -5.84375 L 2.921875 -5.84375 L 2.921875 -1.453125 L 4.375 -1.453125 L 4.375 0 Z M 1.453125 0 "/></g></g></g><g fill="#5ce3eb" fill-opacity="1"><g transform="translate(79.78025, 18.874826)"><g/></g></g><g fill="#5ce3eb" fill-opacity="1"><g transform="translate(84.287168, 18.874826)"><g><path d="M 0 -5.84375 L 1.453125 -5.84375 L 1.453125 -8.75 L 2.921875 -8.75 L 2.921875 -10.21875 L 5.84375 -10.21875 L 5.84375 -8.75 L 7.296875 -8.75 L 7.296875 -5.84375 L 8.75 -5.84375 L 8.75 0 L 5.84375 0 L 5.84375 -2.921875 L 2.921875 -2.921875 L 2.921875 0 L 0 0 Z M 2.921875 -4.375 L 5.84375 -4.375 L 5.84375 -7.296875 L 2.921875 -7.296875 Z M 2.921875 -4.375 "/></g></g></g><g fill="#5ce3eb" fill-opacity="1"><g transform="translate(94.637672, 18.874826)"><g><path d="M 0 -10.21875 L 2.921875 -10.21875 L 2.921875 0 L 0 0 Z M 0 -10.21875 "/></g></g></g><g fill="#5ce3eb" fill-opacity="1"><g transform="translate(99.144587, 18.874826)"><g><path d="M 0 -10.21875 L 2.921875 -10.21875 L 2.921875 0 L 0 0 Z M 0 -10.21875 "/></g></g></g><g fill="#5ce3eb" fill-opacity="1"><g transform="translate(103.663479, 18.874826)"><g/></g></g></svg>