<svg xmlns="http://www.w3.org/2000/svg" xmlns:xlink="http://www.w3.org/1999/xlink" width="1920" zoomAndPan="magnify" viewBox="0 0 1440 1439.999935" height="1920" preserveAspectRatio="xMidYMid meet" version="1.0"><defs><clipPath id="193746d8ed"><path d="M 0 528.839844 L 464 528.839844 L 464 732.429688 L 0 732.429688 Z M 0 528.839844 " clip-rule="nonzero"/></clipPath><clipPath id="e08137341c"><path d="M 487.667969 528.839844 L 951 528.839844 L 951 732.429688 L 487.667969 732.429688 Z M 487.667969 528.839844 " clip-rule="nonzero"/></clipPath><clipPath id="483448df16"><path d="M 976.882812 527.160156 L 1440 527.160156 L 1440 730.75 L 976.882812 730.75 Z M 976.882812 527.160156 " clip-rule="nonzero"/></clipPath></defs><g clip-path="url(#193746d8ed)"><path fill="#5ce3eb" d="M 5.675781 528.867188 C 8.921875 528.867188 11.351562 531.300781 11.351562 534.542969 C 11.351562 537.785156 8.921875 540.21875 5.675781 540.21875 C 2.433594 540.21875 0 537.785156 0 534.542969 C 0 531.300781 2.433594 528.867188 5.675781 528.867188 Z M 457.375 723.492188 C 460.621094 723.492188 463.050781 726.332031 463.050781 729.171875 C 463.050781 732.414062 460.621094 734.847656 457.375 734.847656 C 454.132812 734.847656 451.699219 732.414062 451.699219 729.171875 C 451.699219 726.332031 454.132812 723.492188 457.375 723.492188 Z M 457.375 684.570312 C 460.621094 684.570312 463.050781 687 463.050781 690.246094 C 463.050781 693.488281 460.621094 695.921875 457.375 695.921875 C 454.132812 695.921875 451.699219 693.488281 451.699219 690.246094 C 451.699219 687 454.132812 684.570312 457.375 684.570312 Z M 457.375 645.644531 C 460.621094 645.644531 463.050781 648.074219 463.050781 651.320312 C 463.050781 654.5625 460.621094 656.996094 457.375 656.996094 C 454.132812 656.996094 451.699219 654.5625 451.699219 651.320312 C 451.699219 648.074219 454.132812 645.644531 457.375 645.644531 Z M 457.375 606.71875 C 460.621094 606.71875 463.050781 609.148438 463.050781 612.394531 C 463.050781 615.636719 460.621094 618.070312 457.375 618.070312 C 454.132812 618.070312 451.699219 615.636719 451.699219 612.394531 C 451.699219 609.148438 454.132812 606.71875 457.375 606.71875 Z M 457.375 567.792969 C 460.621094 567.792969 463.050781 570.222656 463.050781 573.46875 C 463.050781 576.710938 460.621094 579.144531 457.375 579.144531 C 454.132812 579.144531 451.699219 576.710938 451.699219 573.46875 C 451.699219 570.222656 454.132812 567.792969 457.375 567.792969 Z M 419.667969 723.492188 C 422.910156 723.492188 425.34375 726.332031 425.34375 729.171875 C 425.34375 732.414062 422.910156 734.847656 419.667969 734.847656 C 416.828125 734.847656 413.988281 732.414062 413.988281 729.171875 C 413.988281 726.332031 416.828125 723.492188 419.667969 723.492188 Z M 419.667969 684.570312 C 422.910156 684.570312 425.34375 687 425.34375 690.246094 C 425.34375 693.488281 422.910156 695.921875 419.667969 695.921875 C 416.828125 695.921875 413.988281 693.488281 413.988281 690.246094 C 413.988281 687 416.828125 684.570312 419.667969 684.570312 Z M 419.667969 645.644531 C 422.910156 645.644531 425.34375 648.074219 425.34375 651.320312 C 425.34375 654.5625 422.910156 656.996094 419.667969 656.996094 C 416.828125 656.996094 413.988281 654.5625 413.988281 651.320312 C 413.988281 648.074219 416.828125 645.644531 419.667969 645.644531 Z M 419.667969 606.71875 C 422.910156 606.71875 425.34375 609.148438 425.34375 612.394531 C 425.34375 615.636719 422.910156 618.070312 419.667969 618.070312 C 416.828125 618.070312 413.988281 615.636719 413.988281 612.394531 C 413.988281 609.148438 416.828125 606.71875 419.667969 606.71875 Z M 419.667969 567.792969 C 422.910156 567.792969 425.34375 570.222656 425.34375 573.46875 C 425.34375 576.710938 422.910156 579.144531 419.667969 579.144531 C 416.828125 579.144531 413.988281 576.710938 413.988281 573.46875 C 413.988281 570.222656 416.828125 567.792969 419.667969 567.792969 Z M 382.363281 723.492188 C 385.199219 723.492188 388.039062 726.332031 388.039062 729.171875 C 388.039062 732.414062 385.199219 734.847656 382.363281 734.847656 C 379.117188 734.847656 376.28125 732.414062 376.28125 729.171875 C 376.28125 726.332031 379.117188 723.492188 382.363281 723.492188 Z M 382.363281 684.570312 C 385.199219 684.570312 388.039062 687 388.039062 690.246094 C 388.039062 693.488281 385.199219 695.921875 382.363281 695.921875 C 379.117188 695.921875 376.28125 693.488281 376.28125 690.246094 C 376.28125 687 379.117188 684.570312 382.363281 684.570312 Z M 382.363281 645.644531 C 385.199219 645.644531 388.039062 648.074219 388.039062 651.320312 C 388.039062 654.5625 385.199219 656.996094 382.363281 656.996094 C 379.117188 656.996094 376.28125 654.5625 376.28125 651.320312 C 376.28125 648.074219 379.117188 645.644531 382.363281 645.644531 Z M 382.363281 606.71875 C 385.199219 606.71875 388.039062 609.148438 388.039062 612.394531 C 388.039062 615.636719 385.199219 618.070312 382.363281 618.070312 C 379.117188 618.070312 376.28125 615.636719 376.28125 612.394531 C 376.28125 609.148438 379.117188 606.71875 382.363281 606.71875 Z M 382.363281 567.792969 C 385.199219 567.792969 388.039062 570.222656 388.039062 573.46875 C 388.039062 576.710938 385.199219 579.144531 382.363281 579.144531 C 379.117188 579.144531 376.28125 576.710938 376.28125 573.46875 C 376.28125 570.222656 379.117188 567.792969 382.363281 567.792969 Z M 344.652344 723.492188 C 347.492188 723.492188 350.332031 726.332031 350.332031 729.171875 C 350.332031 732.414062 347.492188 734.847656 344.652344 734.847656 C 341.410156 734.847656 338.976562 732.414062 338.976562 729.171875 C 338.976562 726.332031 341.410156 723.492188 344.652344 723.492188 Z M 344.652344 684.570312 C 347.492188 684.570312 350.332031 687 350.332031 690.246094 C 350.332031 693.488281 347.492188 695.921875 344.652344 695.921875 C 341.410156 695.921875 338.976562 693.488281 338.976562 690.246094 C 338.976562 687 341.410156 684.570312 344.652344 684.570312 Z M 344.652344 645.644531 C 347.492188 645.644531 350.332031 648.074219 350.332031 651.320312 C 350.332031 654.5625 347.492188 656.996094 344.652344 656.996094 C 341.410156 656.996094 338.976562 654.5625 338.976562 651.320312 C 338.976562 648.074219 341.410156 645.644531 344.652344 645.644531 Z M 344.652344 606.71875 C 347.492188 606.71875 350.332031 609.148438 350.332031 612.394531 C 350.332031 615.636719 347.492188 618.070312 344.652344 618.070312 C 341.410156 618.070312 338.976562 615.636719 338.976562 612.394531 C 338.976562 609.148438 341.410156 606.71875 344.652344 606.71875 Z M 344.652344 567.792969 C 347.492188 567.792969 350.332031 570.222656 350.332031 573.46875 C 350.332031 576.710938 347.492188 579.144531 344.652344 579.144531 C 341.410156 579.144531 338.976562 576.710938 338.976562 573.46875 C 338.976562 570.222656 341.410156 567.792969 344.652344 567.792969 Z M 306.945312 723.492188 C 310.1875 723.492188 312.621094 726.332031 312.621094 729.171875 C 312.621094 732.414062 310.1875 734.847656 306.945312 734.847656 C 303.699219 734.847656 301.269531 732.414062 301.269531 729.171875 C 301.269531 726.332031 303.699219 723.492188 306.945312 723.492188 Z M 306.945312 684.570312 C 310.1875 684.570312 312.621094 687 312.621094 690.246094 C 312.621094 693.488281 310.1875 695.921875 306.945312 695.921875 C 303.699219 695.921875 301.269531 693.488281 301.269531 690.246094 C 301.269531 687 303.699219 684.570312 306.945312 684.570312 Z M 306.945312 645.644531 C 310.1875 645.644531 312.621094 648.074219 312.621094 651.320312 C 312.621094 654.5625 310.1875 656.996094 306.945312 656.996094 C 303.699219 656.996094 301.269531 654.5625 301.269531 651.320312 C 301.269531 648.074219 303.699219 645.644531 306.945312 645.644531 Z M 306.945312 606.71875 C 310.1875 606.71875 312.621094 609.148438 312.621094 612.394531 C 312.621094 615.636719 310.1875 618.070312 306.945312 618.070312 C 303.699219 618.070312 301.269531 615.636719 301.269531 612.394531 C 301.269531 609.148438 303.699219 606.71875 306.945312 606.71875 Z M 306.945312 567.792969 C 310.1875 567.792969 312.621094 570.222656 312.621094 573.46875 C 312.621094 576.710938 310.1875 579.144531 306.945312 579.144531 C 303.699219 579.144531 301.269531 576.710938 301.269531 573.46875 C 301.269531 570.222656 303.699219 567.792969 306.945312 567.792969 Z M 269.234375 723.492188 C 272.480469 723.492188 274.910156 726.332031 274.910156 729.171875 C 274.910156 732.414062 272.480469 734.847656 269.234375 734.847656 C 265.992188 734.847656 263.558594 732.414062 263.558594 729.171875 C 263.558594 726.332031 265.992188 723.492188 269.234375 723.492188 Z M 269.234375 684.570312 C 272.480469 684.570312 274.910156 687 274.910156 690.246094 C 274.910156 693.488281 272.480469 695.921875 269.234375 695.921875 C 265.992188 695.921875 263.558594 693.488281 263.558594 690.246094 C 263.558594 687 265.992188 684.570312 269.234375 684.570312 Z M 269.234375 645.644531 C 272.480469 645.644531 274.910156 648.074219 274.910156 651.320312 C 274.910156 654.5625 272.480469 656.996094 269.234375 656.996094 C 265.992188 656.996094 263.558594 654.5625 263.558594 651.320312 C 263.558594 648.074219 265.992188 645.644531 269.234375 645.644531 Z M 269.234375 606.71875 C 272.480469 606.71875 274.910156 609.148438 274.910156 612.394531 C 274.910156 615.636719 272.480469 618.070312 269.234375 618.070312 C 265.992188 618.070312 263.558594 615.636719 263.558594 612.394531 C 263.558594 609.148438 265.992188 606.71875 269.234375 606.71875 Z M 269.234375 567.792969 C 272.480469 567.792969 274.910156 570.222656 274.910156 573.46875 C 274.910156 576.710938 272.480469 579.144531 269.234375 579.144531 C 265.992188 579.144531 263.558594 576.710938 263.558594 573.46875 C 263.558594 570.222656 265.992188 567.792969 269.234375 567.792969 Z M 231.527344 723.492188 C 234.769531 723.492188 237.203125 726.332031 237.203125 729.171875 C 237.203125 732.414062 234.769531 734.847656 231.527344 734.847656 C 228.28125 734.847656 225.847656 732.414062 225.847656 729.171875 C 225.847656 726.332031 228.28125 723.492188 231.527344 723.492188 Z M 231.527344 684.570312 C 234.769531 684.570312 237.203125 687 237.203125 690.246094 C 237.203125 693.488281 234.769531 695.921875 231.527344 695.921875 C 228.28125 695.921875 225.847656 693.488281 225.847656 690.246094 C 225.847656 687 228.28125 684.570312 231.527344 684.570312 Z M 231.527344 645.644531 C 234.769531 645.644531 237.203125 648.074219 237.203125 651.320312 C 237.203125 654.5625 234.769531 656.996094 231.527344 656.996094 C 228.28125 656.996094 225.847656 654.5625 225.847656 651.320312 C 225.847656 648.074219 228.28125 645.644531 231.527344 645.644531 Z M 231.527344 606.71875 C 234.769531 606.71875 237.203125 609.148438 237.203125 612.394531 C 237.203125 615.636719 234.769531 618.070312 231.527344 618.070312 C 228.28125 618.070312 225.847656 615.636719 225.847656 612.394531 C 225.847656 609.148438 228.28125 606.71875 231.527344 606.71875 Z M 231.527344 567.792969 C 234.769531 567.792969 237.203125 570.222656 237.203125 573.46875 C 237.203125 576.710938 234.769531 579.144531 231.527344 579.144531 C 228.28125 579.144531 225.847656 576.710938 225.847656 573.46875 C 225.847656 570.222656 228.28125 567.792969 231.527344 567.792969 Z M 193.816406 723.492188 C 197.0625 723.492188 199.492188 726.332031 199.492188 729.171875 C 199.492188 732.414062 197.0625 734.847656 193.816406 734.847656 C 190.980469 734.847656 188.140625 732.414062 188.140625 729.171875 C 188.140625 726.332031 190.980469 723.492188 193.816406 723.492188 Z M 193.816406 684.570312 C 197.0625 684.570312 199.492188 687 199.492188 690.246094 C 199.492188 693.488281 197.0625 695.921875 193.816406 695.921875 C 190.980469 695.921875 188.140625 693.488281 188.140625 690.246094 C 188.140625 687 190.980469 684.570312 193.816406 684.570312 Z M 193.816406 645.644531 C 197.0625 645.644531 199.492188 648.074219 199.492188 651.320312 C 199.492188 654.5625 197.0625 656.996094 193.816406 656.996094 C 190.980469 656.996094 188.140625 654.5625 188.140625 651.320312 C 188.140625 648.074219 190.980469 645.644531 193.816406 645.644531 Z M 193.816406 606.71875 C 197.0625 606.71875 199.492188 609.148438 199.492188 612.394531 C 199.492188 615.636719 197.0625 618.070312 193.816406 618.070312 C 190.980469 618.070312 188.140625 615.636719 188.140625 612.394531 C 188.140625 609.148438 190.980469 606.71875 193.816406 606.71875 Z M 193.816406 567.792969 C 197.0625 567.792969 199.492188 570.222656 199.492188 573.46875 C 199.492188 576.710938 197.0625 579.144531 193.816406 579.144531 C 190.980469 579.144531 188.140625 576.710938 188.140625 573.46875 C 188.140625 570.222656 190.980469 567.792969 193.816406 567.792969 Z M 156.109375 723.492188 C 159.351562 723.492188 162.191406 726.332031 162.191406 729.171875 C 162.191406 732.414062 159.351562 734.847656 156.109375 734.847656 C 153.269531 734.847656 150.429688 732.414062 150.429688 729.171875 C 150.429688 726.332031 153.269531 723.492188 156.109375 723.492188 Z M 156.109375 684.570312 C 159.351562 684.570312 162.191406 687 162.191406 690.246094 C 162.191406 693.488281 159.351562 695.921875 156.109375 695.921875 C 153.269531 695.921875 150.429688 693.488281 150.429688 690.246094 C 150.429688 687 153.269531 684.570312 156.109375 684.570312 Z M 156.109375 645.644531 C 159.351562 645.644531 162.191406 648.074219 162.191406 651.320312 C 162.191406 654.5625 159.351562 656.996094 156.109375 656.996094 C 153.269531 656.996094 150.429688 654.5625 150.429688 651.320312 C 150.429688 648.074219 153.269531 645.644531 156.109375 645.644531 Z M 156.109375 606.71875 C 159.351562 606.71875 162.191406 609.148438 162.191406 612.394531 C 162.191406 615.636719 159.351562 618.070312 156.109375 618.070312 C 153.269531 618.070312 150.429688 615.636719 150.429688 612.394531 C 150.429688 609.148438 153.269531 606.71875 156.109375 606.71875 Z M 156.109375 567.792969 C 159.351562 567.792969 162.191406 570.222656 162.191406 573.46875 C 162.191406 576.710938 159.351562 579.144531 156.109375 579.144531 C 153.269531 579.144531 150.429688 576.710938 150.429688 573.46875 C 150.429688 570.222656 153.269531 567.792969 156.109375 567.792969 Z M 118.804688 723.492188 C 121.640625 723.492188 124.480469 726.332031 124.480469 729.171875 C 124.480469 732.414062 121.640625 734.847656 118.804688 734.847656 C 115.558594 734.847656 113.128906 732.414062 113.128906 729.171875 C 113.128906 726.332031 115.558594 723.492188 118.804688 723.492188 Z M 118.804688 684.570312 C 121.640625 684.570312 124.480469 687 124.480469 690.246094 C 124.480469 693.488281 121.640625 695.921875 118.804688 695.921875 C 115.558594 695.921875 113.128906 693.488281 113.128906 690.246094 C 113.128906 687 115.558594 684.570312 118.804688 684.570312 Z M 118.804688 645.644531 C 121.640625 645.644531 124.480469 648.074219 124.480469 651.320312 C 124.480469 654.5625 121.640625 656.996094 118.804688 656.996094 C 115.558594 656.996094 113.128906 654.5625 113.128906 651.320312 C 113.128906 648.074219 115.558594 645.644531 118.804688 645.644531 Z M 118.804688 606.71875 C 121.640625 606.71875 124.480469 609.148438 124.480469 612.394531 C 124.480469 615.636719 121.640625 618.070312 118.804688 618.070312 C 115.558594 618.070312 113.128906 615.636719 113.128906 612.394531 C 113.128906 609.148438 115.558594 606.71875 118.804688 606.71875 Z M 118.804688 567.792969 C 121.640625 567.792969 124.480469 570.222656 124.480469 573.46875 C 124.480469 576.710938 121.640625 579.144531 118.804688 579.144531 C 115.558594 579.144531 113.128906 576.710938 113.128906 573.46875 C 113.128906 570.222656 115.558594 567.792969 118.804688 567.792969 Z M 81.09375 723.492188 C 84.339844 723.492188 86.773438 726.332031 86.773438 729.171875 C 86.773438 732.414062 84.339844 734.847656 81.09375 734.847656 C 77.851562 734.847656 75.417969 732.414062 75.417969 729.171875 C 75.417969 726.332031 77.851562 723.492188 81.09375 723.492188 Z M 81.09375 684.570312 C 84.339844 684.570312 86.773438 687 86.773438 690.246094 C 86.773438 693.488281 84.339844 695.921875 81.09375 695.921875 C 77.851562 695.921875 75.417969 693.488281 75.417969 690.246094 C 75.417969 687 77.851562 684.570312 81.09375 684.570312 Z M 81.09375 645.644531 C 84.339844 645.644531 86.773438 648.074219 86.773438 651.320312 C 86.773438 654.5625 84.339844 656.996094 81.09375 656.996094 C 77.851562 656.996094 75.417969 654.5625 75.417969 651.320312 C 75.417969 648.074219 77.851562 645.644531 81.09375 645.644531 Z M 81.09375 606.71875 C 84.339844 606.71875 86.773438 609.148438 86.773438 612.394531 C 86.773438 615.636719 84.339844 618.070312 81.09375 618.070312 C 77.851562 618.070312 75.417969 615.636719 75.417969 612.394531 C 75.417969 609.148438 77.851562 606.71875 81.09375 606.71875 Z M 81.09375 567.792969 C 84.339844 567.792969 86.773438 570.222656 86.773438 573.46875 C 86.773438 576.710938 84.339844 579.144531 81.09375 579.144531 C 77.851562 579.144531 75.417969 576.710938 75.417969 573.46875 C 75.417969 570.222656 77.851562 567.792969 81.09375 567.792969 Z M 43.386719 723.492188 C 46.628906 723.492188 49.0625 726.332031 49.0625 729.171875 C 49.0625 732.414062 46.628906 734.847656 43.386719 734.847656 C 40.140625 734.847656 37.710938 732.414062 37.710938 729.171875 C 37.710938 726.332031 40.140625 723.492188 43.386719 723.492188 Z M 43.386719 684.570312 C 46.628906 684.570312 49.0625 687 49.0625 690.246094 C 49.0625 693.488281 46.628906 695.921875 43.386719 695.921875 C 40.140625 695.921875 37.710938 693.488281 37.710938 690.246094 C 37.710938 687 40.140625 684.570312 43.386719 684.570312 Z M 43.386719 645.644531 C 46.628906 645.644531 49.0625 648.074219 49.0625 651.320312 C 49.0625 654.5625 46.628906 656.996094 43.386719 656.996094 C 40.140625 656.996094 37.710938 654.5625 37.710938 651.320312 C 37.710938 648.074219 40.140625 645.644531 43.386719 645.644531 Z M 43.386719 606.71875 C 46.628906 606.71875 49.0625 609.148438 49.0625 612.394531 C 49.0625 615.636719 46.628906 618.070312 43.386719 618.070312 C 40.140625 618.070312 37.710938 615.636719 37.710938 612.394531 C 37.710938 609.148438 40.140625 606.71875 43.386719 606.71875 Z M 43.386719 567.792969 C 46.628906 567.792969 49.0625 570.222656 49.0625 573.46875 C 49.0625 576.710938 46.628906 579.144531 43.386719 579.144531 C 40.140625 579.144531 37.710938 576.710938 37.710938 573.46875 C 37.710938 570.222656 40.140625 567.792969 43.386719 567.792969 Z M 5.675781 723.492188 C 8.921875 723.492188 11.351562 726.332031 11.351562 729.171875 C 11.351562 732.414062 8.921875 734.847656 5.675781 734.847656 C 2.433594 734.847656 0 732.414062 0 729.171875 C 0 726.332031 2.433594 723.492188 5.675781 723.492188 Z M 5.675781 684.570312 C 8.921875 684.570312 11.351562 687 11.351562 690.246094 C 11.351562 693.488281 8.921875 695.921875 5.675781 695.921875 C 2.433594 695.921875 0 693.488281 0 690.246094 C 0 687 2.433594 684.570312 5.675781 684.570312 Z M 5.675781 645.644531 C 8.921875 645.644531 11.351562 648.074219 11.351562 651.320312 C 11.351562 654.5625 8.921875 656.996094 5.675781 656.996094 C 2.433594 656.996094 0 654.5625 0 651.320312 C 0 648.074219 2.433594 645.644531 5.675781 645.644531 Z M 5.675781 606.71875 C 8.921875 606.71875 11.351562 609.148438 11.351562 612.394531 C 11.351562 615.636719 8.921875 618.070312 5.675781 618.070312 C 2.433594 618.070312 0 615.636719 0 612.394531 C 0 609.148438 2.433594 606.71875 5.675781 606.71875 Z M 5.675781 567.792969 C 8.921875 567.792969 11.351562 570.222656 11.351562 573.46875 C 11.351562 576.710938 8.921875 579.144531 5.675781 579.144531 C 2.433594 579.144531 0 576.710938 0 573.46875 C 0 570.222656 2.433594 567.792969 5.675781 567.792969 Z M 457.375 528.867188 C 460.621094 528.867188 463.050781 531.300781 463.050781 534.542969 C 463.050781 537.785156 460.621094 540.21875 457.375 540.21875 C 454.132812 540.21875 451.699219 537.785156 451.699219 534.542969 C 451.699219 531.300781 454.132812 528.867188 457.375 528.867188 Z M 419.667969 528.867188 C 422.910156 528.867188 425.34375 531.300781 425.34375 534.542969 C 425.34375 537.785156 422.910156 540.21875 419.667969 540.21875 C 416.828125 540.21875 413.988281 537.785156 413.988281 534.542969 C 413.988281 531.300781 416.828125 528.867188 419.667969 528.867188 Z M 382.363281 528.867188 C 385.199219 528.867188 388.039062 531.300781 388.039062 534.542969 C 388.039062 537.785156 385.199219 540.21875 382.363281 540.21875 C 379.117188 540.21875 376.28125 537.785156 376.28125 534.542969 C 376.28125 531.300781 379.117188 528.867188 382.363281 528.867188 Z M 344.652344 528.867188 C 347.492188 528.867188 350.332031 531.300781 350.332031 534.542969 C 350.332031 537.785156 347.492188 540.21875 344.652344 540.21875 C 341.410156 540.21875 338.976562 537.785156 338.976562 534.542969 C 338.976562 531.300781 341.410156 528.867188 344.652344 528.867188 Z M 306.945312 528.867188 C 310.1875 528.867188 312.621094 531.300781 312.621094 534.542969 C 312.621094 537.785156 310.1875 540.21875 306.945312 540.21875 C 303.699219 540.21875 301.269531 537.785156 301.269531 534.542969 C 301.269531 531.300781 303.699219 528.867188 306.945312 528.867188 Z M 269.234375 528.867188 C 272.480469 528.867188 274.910156 531.300781 274.910156 534.542969 C 274.910156 537.785156 272.480469 540.21875 269.234375 540.21875 C 265.992188 540.21875 263.558594 537.785156 263.558594 534.542969 C 263.558594 531.300781 265.992188 528.867188 269.234375 528.867188 Z M 231.527344 528.867188 C 234.769531 528.867188 237.203125 531.300781 237.203125 534.542969 C 237.203125 537.785156 234.769531 540.21875 231.527344 540.21875 C 228.28125 540.21875 225.847656 537.785156 225.847656 534.542969 C 225.847656 531.300781 228.28125 528.867188 231.527344 528.867188 Z M 193.816406 528.867188 C 197.0625 528.867188 199.492188 531.300781 199.492188 534.542969 C 199.492188 537.785156 197.0625 540.21875 193.816406 540.21875 C 190.980469 540.21875 188.140625 537.785156 188.140625 534.542969 C 188.140625 531.300781 190.980469 528.867188 193.816406 528.867188 Z M 156.109375 528.867188 C 159.351562 528.867188 162.191406 531.300781 162.191406 534.542969 C 162.191406 537.785156 159.351562 540.21875 156.109375 540.21875 C 153.269531 540.21875 150.429688 537.785156 150.429688 534.542969 C 150.429688 531.300781 153.269531 528.867188 156.109375 528.867188 Z M 118.804688 528.867188 C 121.640625 528.867188 124.480469 531.300781 124.480469 534.542969 C 124.480469 537.785156 121.640625 540.21875 118.804688 540.21875 C 115.558594 540.21875 113.128906 537.785156 113.128906 534.542969 C 113.128906 531.300781 115.558594 528.867188 118.804688 528.867188 Z M 81.09375 528.867188 C 84.339844 528.867188 86.773438 531.300781 86.773438 534.542969 C 86.773438 537.785156 84.339844 540.21875 81.09375 540.21875 C 77.851562 540.21875 75.417969 537.785156 75.417969 534.542969 C 75.417969 531.300781 77.851562 528.867188 81.09375 528.867188 Z M 43.386719 528.867188 C 46.628906 528.867188 49.0625 531.300781 49.0625 534.542969 C 49.0625 537.785156 46.628906 540.21875 43.386719 540.21875 C 40.140625 540.21875 37.710938 537.785156 37.710938 534.542969 C 37.710938 531.300781 40.140625 528.867188 43.386719 528.867188 Z M 43.386719 528.867188 " fill-opacity="1" fill-rule="evenodd"/></g><g clip-path="url(#e08137341c)"><path fill="#5ce3eb" d="M 493.34375 528.867188 C 496.585938 528.867188 499.019531 531.300781 499.019531 534.542969 C 499.019531 537.785156 496.585938 540.21875 493.34375 540.21875 C 490.101562 540.21875 487.667969 537.785156 487.667969 534.542969 C 487.667969 531.300781 490.101562 528.867188 493.34375 528.867188 Z M 945.042969 723.492188 C 948.285156 723.492188 950.71875 726.332031 950.71875 729.171875 C 950.71875 732.414062 948.285156 734.847656 945.042969 734.847656 C 941.796875 734.847656 939.367188 732.414062 939.367188 729.171875 C 939.367188 726.332031 941.796875 723.492188 945.042969 723.492188 Z M 945.042969 684.570312 C 948.285156 684.570312 950.71875 687 950.71875 690.246094 C 950.71875 693.488281 948.285156 695.921875 945.042969 695.921875 C 941.796875 695.921875 939.367188 693.488281 939.367188 690.246094 C 939.367188 687 941.796875 684.570312 945.042969 684.570312 Z M 945.042969 645.644531 C 948.285156 645.644531 950.71875 648.074219 950.71875 651.320312 C 950.71875 654.5625 948.285156 656.996094 945.042969 656.996094 C 941.796875 656.996094 939.367188 654.5625 939.367188 651.320312 C 939.367188 648.074219 941.796875 645.644531 945.042969 645.644531 Z M 945.042969 606.71875 C 948.285156 606.71875 950.71875 609.148438 950.71875 612.394531 C 950.71875 615.636719 948.285156 618.070312 945.042969 618.070312 C 941.796875 618.070312 939.367188 615.636719 939.367188 612.394531 C 939.367188 609.148438 941.796875 606.71875 945.042969 606.71875 Z M 945.042969 567.792969 C 948.285156 567.792969 950.71875 570.222656 950.71875 573.46875 C 950.71875 576.710938 948.285156 579.144531 945.042969 579.144531 C 941.796875 579.144531 939.367188 576.710938 939.367188 573.46875 C 939.367188 570.222656 941.796875 567.792969 945.042969 567.792969 Z M 907.332031 723.492188 C 910.578125 723.492188 913.007812 726.332031 913.007812 729.171875 C 913.007812 732.414062 910.578125 734.847656 907.332031 734.847656 C 904.496094 734.847656 901.65625 732.414062 901.65625 729.171875 C 901.65625 726.332031 904.496094 723.492188 907.332031 723.492188 Z M 907.332031 684.570312 C 910.578125 684.570312 913.007812 687 913.007812 690.246094 C 913.007812 693.488281 910.578125 695.921875 907.332031 695.921875 C 904.496094 695.921875 901.65625 693.488281 901.65625 690.246094 C 901.65625 687 904.496094 684.570312 907.332031 684.570312 Z M 907.332031 645.644531 C 910.578125 645.644531 913.007812 648.074219 913.007812 651.320312 C 913.007812 654.5625 910.578125 656.996094 907.332031 656.996094 C 904.496094 656.996094 901.65625 654.5625 901.65625 651.320312 C 901.65625 648.074219 904.496094 645.644531 907.332031 645.644531 Z M 907.332031 606.71875 C 910.578125 606.71875 913.007812 609.148438 913.007812 612.394531 C 913.007812 615.636719 910.578125 618.070312 907.332031 618.070312 C 904.496094 618.070312 901.65625 615.636719 901.65625 612.394531 C 901.65625 609.148438 904.496094 606.71875 907.332031 606.71875 Z M 907.332031 567.792969 C 910.578125 567.792969 913.007812 570.222656 913.007812 573.46875 C 913.007812 576.710938 910.578125 579.144531 907.332031 579.144531 C 904.496094 579.144531 901.65625 576.710938 901.65625 573.46875 C 901.65625 570.222656 904.496094 567.792969 907.332031 567.792969 Z M 870.03125 723.492188 C 872.867188 723.492188 875.707031 726.332031 875.707031 729.171875 C 875.707031 732.414062 872.867188 734.847656 870.03125 734.847656 C 866.785156 734.847656 863.949219 732.414062 863.949219 729.171875 C 863.949219 726.332031 866.785156 723.492188 870.03125 723.492188 Z M 870.03125 684.570312 C 872.867188 684.570312 875.707031 687 875.707031 690.246094 C 875.707031 693.488281 872.867188 695.921875 870.03125 695.921875 C 866.785156 695.921875 863.949219 693.488281 863.949219 690.246094 C 863.949219 687 866.785156 684.570312 870.03125 684.570312 Z M 870.03125 645.644531 C 872.867188 645.644531 875.707031 648.074219 875.707031 651.320312 C 875.707031 654.5625 872.867188 656.996094 870.03125 656.996094 C 866.785156 656.996094 863.949219 654.5625 863.949219 651.320312 C 863.949219 648.074219 866.785156 645.644531 870.03125 645.644531 Z M 870.03125 606.71875 C 872.867188 606.71875 875.707031 609.148438 875.707031 612.394531 C 875.707031 615.636719 872.867188 618.070312 870.03125 618.070312 C 866.785156 618.070312 863.949219 615.636719 863.949219 612.394531 C 863.949219 609.148438 866.785156 606.71875 870.03125 606.71875 Z M 870.03125 567.792969 C 872.867188 567.792969 875.707031 570.222656 875.707031 573.46875 C 875.707031 576.710938 872.867188 579.144531 870.03125 579.144531 C 866.785156 579.144531 863.949219 576.710938 863.949219 573.46875 C 863.949219 570.222656 866.785156 567.792969 870.03125 567.792969 Z M 832.320312 723.492188 C 835.160156 723.492188 837.996094 726.332031 837.996094 729.171875 C 837.996094 732.414062 835.160156 734.847656 832.320312 734.847656 C 829.078125 734.847656 826.644531 732.414062 826.644531 729.171875 C 826.644531 726.332031 829.078125 723.492188 832.320312 723.492188 Z M 832.320312 684.570312 C 835.160156 684.570312 837.996094 687 837.996094 690.246094 C 837.996094 693.488281 835.160156 695.921875 832.320312 695.921875 C 829.078125 695.921875 826.644531 693.488281 826.644531 690.246094 C 826.644531 687 829.078125 684.570312 832.320312 684.570312 Z M 832.320312 645.644531 C 835.160156 645.644531 837.996094 648.074219 837.996094 651.320312 C 837.996094 654.5625 835.160156 656.996094 832.320312 656.996094 C 829.078125 656.996094 826.644531 654.5625 826.644531 651.320312 C 826.644531 648.074219 829.078125 645.644531 832.320312 645.644531 Z M 832.320312 606.71875 C 835.160156 606.71875 837.996094 609.148438 837.996094 612.394531 C 837.996094 615.636719 835.160156 618.070312 832.320312 618.070312 C 829.078125 618.070312 826.644531 615.636719 826.644531 612.394531 C 826.644531 609.148438 829.078125 606.71875 832.320312 606.71875 Z M 832.320312 567.792969 C 835.160156 567.792969 837.996094 570.222656 837.996094 573.46875 C 837.996094 576.710938 835.160156 579.144531 832.320312 579.144531 C 829.078125 579.144531 826.644531 576.710938 826.644531 573.46875 C 826.644531 570.222656 829.078125 567.792969 832.320312 567.792969 Z M 794.609375 723.492188 C 797.855469 723.492188 800.289062 726.332031 800.289062 729.171875 C 800.289062 732.414062 797.855469 734.847656 794.609375 734.847656 C 791.367188 734.847656 788.933594 732.414062 788.933594 729.171875 C 788.933594 726.332031 791.367188 723.492188 794.609375 723.492188 Z M 794.609375 684.570312 C 797.855469 684.570312 800.289062 687 800.289062 690.246094 C 800.289062 693.488281 797.855469 695.921875 794.609375 695.921875 C 791.367188 695.921875 788.933594 693.488281 788.933594 690.246094 C 788.933594 687 791.367188 684.570312 794.609375 684.570312 Z M 794.609375 645.644531 C 797.855469 645.644531 800.289062 648.074219 800.289062 651.320312 C 800.289062 654.5625 797.855469 656.996094 794.609375 656.996094 C 791.367188 656.996094 788.933594 654.5625 788.933594 651.320312 C 788.933594 648.074219 791.367188 645.644531 794.609375 645.644531 Z M 794.609375 606.71875 C 797.855469 606.71875 800.289062 609.148438 800.289062 612.394531 C 800.289062 615.636719 797.855469 618.070312 794.609375 618.070312 C 791.367188 618.070312 788.933594 615.636719 788.933594 612.394531 C 788.933594 609.148438 791.367188 606.71875 794.609375 606.71875 Z M 794.609375 567.792969 C 797.855469 567.792969 800.289062 570.222656 800.289062 573.46875 C 800.289062 576.710938 797.855469 579.144531 794.609375 579.144531 C 791.367188 579.144531 788.933594 576.710938 788.933594 573.46875 C 788.933594 570.222656 791.367188 567.792969 794.609375 567.792969 Z M 756.902344 723.492188 C 760.144531 723.492188 762.578125 726.332031 762.578125 729.171875 C 762.578125 732.414062 760.144531 734.847656 756.902344 734.847656 C 753.65625 734.847656 751.226562 732.414062 751.226562 729.171875 C 751.226562 726.332031 753.65625 723.492188 756.902344 723.492188 Z M 756.902344 684.570312 C 760.144531 684.570312 762.578125 687 762.578125 690.246094 C 762.578125 693.488281 760.144531 695.921875 756.902344 695.921875 C 753.65625 695.921875 751.226562 693.488281 751.226562 690.246094 C 751.226562 687 753.65625 684.570312 756.902344 684.570312 Z M 756.902344 645.644531 C 760.144531 645.644531 762.578125 648.074219 762.578125 651.320312 C 762.578125 654.5625 760.144531 656.996094 756.902344 656.996094 C 753.65625 656.996094 751.226562 654.5625 751.226562 651.320312 C 751.226562 648.074219 753.65625 645.644531 756.902344 645.644531 Z M 756.902344 606.71875 C 760.144531 606.71875 762.578125 609.148438 762.578125 612.394531 C 762.578125 615.636719 760.144531 618.070312 756.902344 618.070312 C 753.65625 618.070312 751.226562 615.636719 751.226562 612.394531 C 751.226562 609.148438 753.65625 606.71875 756.902344 606.71875 Z M 756.902344 567.792969 C 760.144531 567.792969 762.578125 570.222656 762.578125 573.46875 C 762.578125 576.710938 760.144531 579.144531 756.902344 579.144531 C 753.65625 579.144531 751.226562 576.710938 751.226562 573.46875 C 751.226562 570.222656 753.65625 567.792969 756.902344 567.792969 Z M 719.191406 723.492188 C 722.4375 723.492188 724.871094 726.332031 724.871094 729.171875 C 724.871094 732.414062 722.4375 734.847656 719.191406 734.847656 C 715.949219 734.847656 713.515625 732.414062 713.515625 729.171875 C 713.515625 726.332031 715.949219 723.492188 719.191406 723.492188 Z M 719.191406 684.570312 C 722.4375 684.570312 724.871094 687 724.871094 690.246094 C 724.871094 693.488281 722.4375 695.921875 719.191406 695.921875 C 715.949219 695.921875 713.515625 693.488281 713.515625 690.246094 C 713.515625 687 715.949219 684.570312 719.191406 684.570312 Z M 719.191406 645.644531 C 722.4375 645.644531 724.871094 648.074219 724.871094 651.320312 C 724.871094 654.5625 722.4375 656.996094 719.191406 656.996094 C 715.949219 656.996094 713.515625 654.5625 713.515625 651.320312 C 713.515625 648.074219 715.949219 645.644531 719.191406 645.644531 Z M 719.191406 606.71875 C 722.4375 606.71875 724.871094 609.148438 724.871094 612.394531 C 724.871094 615.636719 722.4375 618.070312 719.191406 618.070312 C 715.949219 618.070312 713.515625 615.636719 713.515625 612.394531 C 713.515625 609.148438 715.949219 606.71875 719.191406 606.71875 Z M 719.191406 567.792969 C 722.4375 567.792969 724.871094 570.222656 724.871094 573.46875 C 724.871094 576.710938 722.4375 579.144531 719.191406 579.144531 C 715.949219 579.144531 713.515625 576.710938 713.515625 573.46875 C 713.515625 570.222656 715.949219 567.792969 719.191406 567.792969 Z M 681.484375 723.492188 C 684.726562 723.492188 687.160156 726.332031 687.160156 729.171875 C 687.160156 732.414062 684.726562 734.847656 681.484375 734.847656 C 678.644531 734.847656 675.808594 732.414062 675.808594 729.171875 C 675.808594 726.332031 678.644531 723.492188 681.484375 723.492188 Z M 681.484375 684.570312 C 684.726562 684.570312 687.160156 687 687.160156 690.246094 C 687.160156 693.488281 684.726562 695.921875 681.484375 695.921875 C 678.644531 695.921875 675.808594 693.488281 675.808594 690.246094 C 675.808594 687 678.644531 684.570312 681.484375 684.570312 Z M 681.484375 645.644531 C 684.726562 645.644531 687.160156 648.074219 687.160156 651.320312 C 687.160156 654.5625 684.726562 656.996094 681.484375 656.996094 C 678.644531 656.996094 675.808594 654.5625 675.808594 651.320312 C 675.808594 648.074219 678.644531 645.644531 681.484375 645.644531 Z M 681.484375 606.71875 C 684.726562 606.71875 687.160156 609.148438 687.160156 612.394531 C 687.160156 615.636719 684.726562 618.070312 681.484375 618.070312 C 678.644531 618.070312 675.808594 615.636719 675.808594 612.394531 C 675.808594 609.148438 678.644531 606.71875 681.484375 606.71875 Z M 681.484375 567.792969 C 684.726562 567.792969 687.160156 570.222656 687.160156 573.46875 C 687.160156 576.710938 684.726562 579.144531 681.484375 579.144531 C 678.644531 579.144531 675.808594 576.710938 675.808594 573.46875 C 675.808594 570.222656 678.644531 567.792969 681.484375 567.792969 Z M 643.773438 723.492188 C 647.019531 723.492188 649.855469 726.332031 649.855469 729.171875 C 649.855469 732.414062 647.019531 734.847656 643.773438 734.847656 C 640.9375 734.847656 638.097656 732.414062 638.097656 729.171875 C 638.097656 726.332031 640.9375 723.492188 643.773438 723.492188 Z M 643.773438 684.570312 C 647.019531 684.570312 649.855469 687 649.855469 690.246094 C 649.855469 693.488281 647.019531 695.921875 643.773438 695.921875 C 640.9375 695.921875 638.097656 693.488281 638.097656 690.246094 C 638.097656 687 640.9375 684.570312 643.773438 684.570312 Z M 643.773438 645.644531 C 647.019531 645.644531 649.855469 648.074219 649.855469 651.320312 C 649.855469 654.5625 647.019531 656.996094 643.773438 656.996094 C 640.9375 656.996094 638.097656 654.5625 638.097656 651.320312 C 638.097656 648.074219 640.9375 645.644531 643.773438 645.644531 Z M 643.773438 606.71875 C 647.019531 606.71875 649.855469 609.148438 649.855469 612.394531 C 649.855469 615.636719 647.019531 618.070312 643.773438 618.070312 C 640.9375 618.070312 638.097656 615.636719 638.097656 612.394531 C 638.097656 609.148438 640.9375 606.71875 643.773438 606.71875 Z M 643.773438 567.792969 C 647.019531 567.792969 649.855469 570.222656 649.855469 573.46875 C 649.855469 576.710938 647.019531 579.144531 643.773438 579.144531 C 640.9375 579.144531 638.097656 576.710938 638.097656 573.46875 C 638.097656 570.222656 640.9375 567.792969 643.773438 567.792969 Z M 606.472656 723.492188 C 609.308594 723.492188 612.148438 726.332031 612.148438 729.171875 C 612.148438 732.414062 609.308594 734.847656 606.472656 734.847656 C 603.226562 734.847656 600.792969 732.414062 600.792969 729.171875 C 600.792969 726.332031 603.226562 723.492188 606.472656 723.492188 Z M 606.472656 684.570312 C 609.308594 684.570312 612.148438 687 612.148438 690.246094 C 612.148438 693.488281 609.308594 695.921875 606.472656 695.921875 C 603.226562 695.921875 600.792969 693.488281 600.792969 690.246094 C 600.792969 687 603.226562 684.570312 606.472656 684.570312 Z M 606.472656 645.644531 C 609.308594 645.644531 612.148438 648.074219 612.148438 651.320312 C 612.148438 654.5625 609.308594 656.996094 606.472656 656.996094 C 603.226562 656.996094 600.792969 654.5625 600.792969 651.320312 C 600.792969 648.074219 603.226562 645.644531 606.472656 645.644531 Z M 606.472656 606.71875 C 609.308594 606.71875 612.148438 609.148438 612.148438 612.394531 C 612.148438 615.636719 609.308594 618.070312 606.472656 618.070312 C 603.226562 618.070312 600.792969 615.636719 600.792969 612.394531 C 600.792969 609.148438 603.226562 606.71875 606.472656 606.71875 Z M 606.472656 567.792969 C 609.308594 567.792969 612.148438 570.222656 612.148438 573.46875 C 612.148438 576.710938 609.308594 579.144531 606.472656 579.144531 C 603.226562 579.144531 600.792969 576.710938 600.792969 573.46875 C 600.792969 570.222656 603.226562 567.792969 606.472656 567.792969 Z M 568.761719 723.492188 C 572.003906 723.492188 574.4375 726.332031 574.4375 729.171875 C 574.4375 732.414062 572.003906 734.847656 568.761719 734.847656 C 565.519531 734.847656 563.085938 732.414062 563.085938 729.171875 C 563.085938 726.332031 565.519531 723.492188 568.761719 723.492188 Z M 568.761719 684.570312 C 572.003906 684.570312 574.4375 687 574.4375 690.246094 C 574.4375 693.488281 572.003906 695.921875 568.761719 695.921875 C 565.519531 695.921875 563.085938 693.488281 563.085938 690.246094 C 563.085938 687 565.519531 684.570312 568.761719 684.570312 Z M 568.761719 645.644531 C 572.003906 645.644531 574.4375 648.074219 574.4375 651.320312 C 574.4375 654.5625 572.003906 656.996094 568.761719 656.996094 C 565.519531 656.996094 563.085938 654.5625 563.085938 651.320312 C 563.085938 648.074219 565.519531 645.644531 568.761719 645.644531 Z M 568.761719 606.71875 C 572.003906 606.71875 574.4375 609.148438 574.4375 612.394531 C 574.4375 615.636719 572.003906 618.070312 568.761719 618.070312 C 565.519531 618.070312 563.085938 615.636719 563.085938 612.394531 C 563.085938 609.148438 565.519531 606.71875 568.761719 606.71875 Z M 568.761719 567.792969 C 572.003906 567.792969 574.4375 570.222656 574.4375 573.46875 C 574.4375 576.710938 572.003906 579.144531 568.761719 579.144531 C 565.519531 579.144531 563.085938 576.710938 563.085938 573.46875 C 563.085938 570.222656 565.519531 567.792969 568.761719 567.792969 Z M 531.050781 723.492188 C 534.296875 723.492188 536.730469 726.332031 536.730469 729.171875 C 536.730469 732.414062 534.296875 734.847656 531.050781 734.847656 C 527.808594 734.847656 525.375 732.414062 525.375 729.171875 C 525.375 726.332031 527.808594 723.492188 531.050781 723.492188 Z M 531.050781 684.570312 C 534.296875 684.570312 536.730469 687 536.730469 690.246094 C 536.730469 693.488281 534.296875 695.921875 531.050781 695.921875 C 527.808594 695.921875 525.375 693.488281 525.375 690.246094 C 525.375 687 527.808594 684.570312 531.050781 684.570312 Z M 531.050781 645.644531 C 534.296875 645.644531 536.730469 648.074219 536.730469 651.320312 C 536.730469 654.5625 534.296875 656.996094 531.050781 656.996094 C 527.808594 656.996094 525.375 654.5625 525.375 651.320312 C 525.375 648.074219 527.808594 645.644531 531.050781 645.644531 Z M 531.050781 606.71875 C 534.296875 606.71875 536.730469 609.148438 536.730469 612.394531 C 536.730469 615.636719 534.296875 618.070312 531.050781 618.070312 C 527.808594 618.070312 525.375 615.636719 525.375 612.394531 C 525.375 609.148438 527.808594 606.71875 531.050781 606.71875 Z M 531.050781 567.792969 C 534.296875 567.792969 536.730469 570.222656 536.730469 573.46875 C 536.730469 576.710938 534.296875 579.144531 531.050781 579.144531 C 527.808594 579.144531 525.375 576.710938 525.375 573.46875 C 525.375 570.222656 527.808594 567.792969 531.050781 567.792969 Z M 493.34375 723.492188 C 496.585938 723.492188 499.019531 726.332031 499.019531 729.171875 C 499.019531 732.414062 496.585938 734.847656 493.34375 734.847656 C 490.101562 734.847656 487.667969 732.414062 487.667969 729.171875 C 487.667969 726.332031 490.101562 723.492188 493.34375 723.492188 Z M 493.34375 684.570312 C 496.585938 684.570312 499.019531 687 499.019531 690.246094 C 499.019531 693.488281 496.585938 695.921875 493.34375 695.921875 C 490.101562 695.921875 487.667969 693.488281 487.667969 690.246094 C 487.667969 687 490.101562 684.570312 493.34375 684.570312 Z M 493.34375 645.644531 C 496.585938 645.644531 499.019531 648.074219 499.019531 651.320312 C 499.019531 654.5625 496.585938 656.996094 493.34375 656.996094 C 490.101562 656.996094 487.667969 654.5625 487.667969 651.320312 C 487.667969 648.074219 490.101562 645.644531 493.34375 645.644531 Z M 493.34375 606.71875 C 496.585938 606.71875 499.019531 609.148438 499.019531 612.394531 C 499.019531 615.636719 496.585938 618.070312 493.34375 618.070312 C 490.101562 618.070312 487.667969 615.636719 487.667969 612.394531 C 487.667969 609.148438 490.101562 606.71875 493.34375 606.71875 Z M 493.34375 567.792969 C 496.585938 567.792969 499.019531 570.222656 499.019531 573.46875 C 499.019531 576.710938 496.585938 579.144531 493.34375 579.144531 C 490.101562 579.144531 487.667969 576.710938 487.667969 573.46875 C 487.667969 570.222656 490.101562 567.792969 493.34375 567.792969 Z M 945.042969 528.867188 C 948.285156 528.867188 950.71875 531.300781 950.71875 534.542969 C 950.71875 537.785156 948.285156 540.21875 945.042969 540.21875 C 941.796875 540.21875 939.367188 537.785156 939.367188 534.542969 C 939.367188 531.300781 941.796875 528.867188 945.042969 528.867188 Z M 907.332031 528.867188 C 910.578125 528.867188 913.007812 531.300781 913.007812 534.542969 C 913.007812 537.785156 910.578125 540.21875 907.332031 540.21875 C 904.496094 540.21875 901.65625 537.785156 901.65625 534.542969 C 901.65625 531.300781 904.496094 528.867188 907.332031 528.867188 Z M 870.03125 528.867188 C 872.867188 528.867188 875.707031 531.300781 875.707031 534.542969 C 875.707031 537.785156 872.867188 540.21875 870.03125 540.21875 C 866.785156 540.21875 863.949219 537.785156 863.949219 534.542969 C 863.949219 531.300781 866.785156 528.867188 870.03125 528.867188 Z M 832.320312 528.867188 C 835.160156 528.867188 837.996094 531.300781 837.996094 534.542969 C 837.996094 537.785156 835.160156 540.21875 832.320312 540.21875 C 829.078125 540.21875 826.644531 537.785156 826.644531 534.542969 C 826.644531 531.300781 829.078125 528.867188 832.320312 528.867188 Z M 794.609375 528.867188 C 797.855469 528.867188 800.289062 531.300781 800.289062 534.542969 C 800.289062 537.785156 797.855469 540.21875 794.609375 540.21875 C 791.367188 540.21875 788.933594 537.785156 788.933594 534.542969 C 788.933594 531.300781 791.367188 528.867188 794.609375 528.867188 Z M 756.902344 528.867188 C 760.144531 528.867188 762.578125 531.300781 762.578125 534.542969 C 762.578125 537.785156 760.144531 540.21875 756.902344 540.21875 C 753.65625 540.21875 751.226562 537.785156 751.226562 534.542969 C 751.226562 531.300781 753.65625 528.867188 756.902344 528.867188 Z M 719.191406 528.867188 C 722.4375 528.867188 724.871094 531.300781 724.871094 534.542969 C 724.871094 537.785156 722.4375 540.21875 719.191406 540.21875 C 715.949219 540.21875 713.515625 537.785156 713.515625 534.542969 C 713.515625 531.300781 715.949219 528.867188 719.191406 528.867188 Z M 681.484375 528.867188 C 684.726562 528.867188 687.160156 531.300781 687.160156 534.542969 C 687.160156 537.785156 684.726562 540.21875 681.484375 540.21875 C 678.644531 540.21875 675.808594 537.785156 675.808594 534.542969 C 675.808594 531.300781 678.644531 528.867188 681.484375 528.867188 Z M 643.773438 528.867188 C 647.019531 528.867188 649.855469 531.300781 649.855469 534.542969 C 649.855469 537.785156 647.019531 540.21875 643.773438 540.21875 C 640.9375 540.21875 638.097656 537.785156 638.097656 534.542969 C 638.097656 531.300781 640.9375 528.867188 643.773438 528.867188 Z M 606.472656 528.867188 C 609.308594 528.867188 612.148438 531.300781 612.148438 534.542969 C 612.148438 537.785156 609.308594 540.21875 606.472656 540.21875 C 603.226562 540.21875 600.792969 537.785156 600.792969 534.542969 C 600.792969 531.300781 603.226562 528.867188 606.472656 528.867188 Z M 568.761719 528.867188 C 572.003906 528.867188 574.4375 531.300781 574.4375 534.542969 C 574.4375 537.785156 572.003906 540.21875 568.761719 540.21875 C 565.519531 540.21875 563.085938 537.785156 563.085938 534.542969 C 563.085938 531.300781 565.519531 528.867188 568.761719 528.867188 Z M 531.050781 528.867188 C 534.296875 528.867188 536.730469 531.300781 536.730469 534.542969 C 536.730469 537.785156 534.296875 540.21875 531.050781 540.21875 C 527.808594 540.21875 525.375 537.785156 525.375 534.542969 C 525.375 531.300781 527.808594 528.867188 531.050781 528.867188 Z M 531.050781 528.867188 " fill-opacity="1" fill-rule="evenodd"/></g><g clip-path="url(#483448df16)"><path fill="#5ce3eb" d="M 982.5625 527.1875 C 985.804688 527.1875 988.238281 529.621094 988.238281 532.863281 C 988.238281 536.105469 985.804688 538.539062 982.5625 538.539062 C 979.316406 538.539062 976.882812 536.105469 976.882812 532.863281 C 976.882812 529.621094 979.316406 527.1875 982.5625 527.1875 Z M 1434.257812 721.8125 C 1437.503906 721.8125 1439.9375 724.652344 1439.9375 727.492188 C 1439.9375 730.734375 1437.503906 733.167969 1434.257812 733.167969 C 1431.015625 733.167969 1428.582031 730.734375 1428.582031 727.492188 C 1428.582031 724.652344 1431.015625 721.8125 1434.257812 721.8125 Z M 1434.257812 682.890625 C 1437.503906 682.890625 1439.9375 685.320312 1439.9375 688.566406 C 1439.9375 691.808594 1437.503906 694.242188 1434.257812 694.242188 C 1431.015625 694.242188 1428.582031 691.808594 1428.582031 688.566406 C 1428.582031 685.320312 1431.015625 682.890625 1434.257812 682.890625 Z M 1434.257812 643.964844 C 1437.503906 643.964844 1439.9375 646.394531 1439.9375 649.640625 C 1439.9375 652.882812 1437.503906 655.316406 1434.257812 655.316406 C 1431.015625 655.316406 1428.582031 652.882812 1428.582031 649.640625 C 1428.582031 646.394531 1431.015625 643.964844 1434.257812 643.964844 Z M 1434.257812 605.039062 C 1437.503906 605.039062 1439.9375 607.46875 1439.9375 610.714844 C 1439.9375 613.957031 1437.503906 616.390625 1434.257812 616.390625 C 1431.015625 616.390625 1428.582031 613.957031 1428.582031 610.714844 C 1428.582031 607.46875 1431.015625 605.039062 1434.257812 605.039062 Z M 1434.257812 566.113281 C 1437.503906 566.113281 1439.9375 568.542969 1439.9375 571.789062 C 1439.9375 575.03125 1437.503906 577.464844 1434.257812 577.464844 C 1431.015625 577.464844 1428.582031 575.03125 1428.582031 571.789062 C 1428.582031 568.542969 1431.015625 566.113281 1434.257812 566.113281 Z M 1396.550781 721.8125 C 1399.792969 721.8125 1402.226562 724.652344 1402.226562 727.492188 C 1402.226562 730.734375 1399.792969 733.167969 1396.550781 733.167969 C 1393.710938 733.167969 1390.875 730.734375 1390.875 727.492188 C 1390.875 724.652344 1393.710938 721.8125 1396.550781 721.8125 Z M 1396.550781 682.890625 C 1399.792969 682.890625 1402.226562 685.320312 1402.226562 688.566406 C 1402.226562 691.808594 1399.792969 694.242188 1396.550781 694.242188 C 1393.710938 694.242188 1390.875 691.808594 1390.875 688.566406 C 1390.875 685.320312 1393.710938 682.890625 1396.550781 682.890625 Z M 1396.550781 643.964844 C 1399.792969 643.964844 1402.226562 646.394531 1402.226562 649.640625 C 1402.226562 652.882812 1399.792969 655.316406 1396.550781 655.316406 C 1393.710938 655.316406 1390.875 652.882812 1390.875 649.640625 C 1390.875 646.394531 1393.710938 643.964844 1396.550781 643.964844 Z M 1396.550781 605.039062 C 1399.792969 605.039062 1402.226562 607.46875 1402.226562 610.714844 C 1402.226562 613.957031 1399.792969 616.390625 1396.550781 616.390625 C 1393.710938 616.390625 1390.875 613.957031 1390.875 610.714844 C 1390.875 607.46875 1393.710938 605.039062 1396.550781 605.039062 Z M 1396.550781 566.113281 C 1399.792969 566.113281 1402.226562 568.542969 1402.226562 571.789062 C 1402.226562 575.03125 1399.792969 577.464844 1396.550781 577.464844 C 1393.710938 577.464844 1390.875 575.03125 1390.875 571.789062 C 1390.875 568.542969 1393.710938 566.113281 1396.550781 566.113281 Z M 1359.246094 721.8125 C 1362.085938 721.8125 1364.921875 724.652344 1364.921875 727.492188 C 1364.921875 730.734375 1362.085938 733.167969 1359.246094 733.167969 C 1356.003906 733.167969 1353.164062 730.734375 1353.164062 727.492188 C 1353.164062 724.652344 1356.003906 721.8125 1359.246094 721.8125 Z M 1359.246094 682.890625 C 1362.085938 682.890625 1364.921875 685.320312 1364.921875 688.566406 C 1364.921875 691.808594 1362.085938 694.242188 1359.246094 694.242188 C 1356.003906 694.242188 1353.164062 691.808594 1353.164062 688.566406 C 1353.164062 685.320312 1356.003906 682.890625 1359.246094 682.890625 Z M 1359.246094 643.964844 C 1362.085938 643.964844 1364.921875 646.394531 1364.921875 649.640625 C 1364.921875 652.882812 1362.085938 655.316406 1359.246094 655.316406 C 1356.003906 655.316406 1353.164062 652.882812 1353.164062 649.640625 C 1353.164062 646.394531 1356.003906 643.964844 1359.246094 643.964844 Z M 1359.246094 605.039062 C 1362.085938 605.039062 1364.921875 607.46875 1364.921875 610.714844 C 1364.921875 613.957031 1362.085938 616.390625 1359.246094 616.390625 C 1356.003906 616.390625 1353.164062 613.957031 1353.164062 610.714844 C 1353.164062 607.46875 1356.003906 605.039062 1359.246094 605.039062 Z M 1359.246094 566.113281 C 1362.085938 566.113281 1364.921875 568.542969 1364.921875 571.789062 C 1364.921875 575.03125 1362.085938 577.464844 1359.246094 577.464844 C 1356.003906 577.464844 1353.164062 575.03125 1353.164062 571.789062 C 1353.164062 568.542969 1356.003906 566.113281 1359.246094 566.113281 Z M 1321.539062 721.8125 C 1324.375 721.8125 1327.214844 724.652344 1327.214844 727.492188 C 1327.214844 730.734375 1324.375 733.167969 1321.539062 733.167969 C 1318.292969 733.167969 1315.859375 730.734375 1315.859375 727.492188 C 1315.859375 724.652344 1318.292969 721.8125 1321.539062 721.8125 Z M 1321.539062 682.890625 C 1324.375 682.890625 1327.214844 685.320312 1327.214844 688.566406 C 1327.214844 691.808594 1324.375 694.242188 1321.539062 694.242188 C 1318.292969 694.242188 1315.859375 691.808594 1315.859375 688.566406 C 1315.859375 685.320312 1318.292969 682.890625 1321.539062 682.890625 Z M 1321.539062 643.964844 C 1324.375 643.964844 1327.214844 646.394531 1327.214844 649.640625 C 1327.214844 652.882812 1324.375 655.316406 1321.539062 655.316406 C 1318.292969 655.316406 1315.859375 652.882812 1315.859375 649.640625 C 1315.859375 646.394531 1318.292969 643.964844 1321.539062 643.964844 Z M 1321.539062 605.039062 C 1324.375 605.039062 1327.214844 607.46875 1327.214844 610.714844 C 1327.214844 613.957031 1324.375 616.390625 1321.539062 616.390625 C 1318.292969 616.390625 1315.859375 613.957031 1315.859375 610.714844 C 1315.859375 607.46875 1318.292969 605.039062 1321.539062 605.039062 Z M 1321.539062 566.113281 C 1324.375 566.113281 1327.214844 568.542969 1327.214844 571.789062 C 1327.214844 575.03125 1324.375 577.464844 1321.539062 577.464844 C 1318.292969 577.464844 1315.859375 575.03125 1315.859375 571.789062 C 1315.859375 568.542969 1318.292969 566.113281 1321.539062 566.113281 Z M 1283.828125 721.8125 C 1287.070312 721.8125 1289.503906 724.652344 1289.503906 727.492188 C 1289.503906 730.734375 1287.070312 733.167969 1283.828125 733.167969 C 1280.585938 733.167969 1278.152344 730.734375 1278.152344 727.492188 C 1278.152344 724.652344 1280.585938 721.8125 1283.828125 721.8125 Z M 1283.828125 682.890625 C 1287.070312 682.890625 1289.503906 685.320312 1289.503906 688.566406 C 1289.503906 691.808594 1287.070312 694.242188 1283.828125 694.242188 C 1280.585938 694.242188 1278.152344 691.808594 1278.152344 688.566406 C 1278.152344 685.320312 1280.585938 682.890625 1283.828125 682.890625 Z M 1283.828125 643.964844 C 1287.070312 643.964844 1289.503906 646.394531 1289.503906 649.640625 C 1289.503906 652.882812 1287.070312 655.316406 1283.828125 655.316406 C 1280.585938 655.316406 1278.152344 652.882812 1278.152344 649.640625 C 1278.152344 646.394531 1280.585938 643.964844 1283.828125 643.964844 Z M 1283.828125 605.039062 C 1287.070312 605.039062 1289.503906 607.46875 1289.503906 610.714844 C 1289.503906 613.957031 1287.070312 616.390625 1283.828125 616.390625 C 1280.585938 616.390625 1278.152344 613.957031 1278.152344 610.714844 C 1278.152344 607.46875 1280.585938 605.039062 1283.828125 605.039062 Z M 1283.828125 566.113281 C 1287.070312 566.113281 1289.503906 568.542969 1289.503906 571.789062 C 1289.503906 575.03125 1287.070312 577.464844 1283.828125 577.464844 C 1280.585938 577.464844 1278.152344 575.03125 1278.152344 571.789062 C 1278.152344 568.542969 1280.585938 566.113281 1283.828125 566.113281 Z M 1246.121094 721.8125 C 1249.363281 721.8125 1251.796875 724.652344 1251.796875 727.492188 C 1251.796875 730.734375 1249.363281 733.167969 1246.121094 733.167969 C 1242.875 733.167969 1240.441406 730.734375 1240.441406 727.492188 C 1240.441406 724.652344 1242.875 721.8125 1246.121094 721.8125 Z M 1246.121094 682.890625 C 1249.363281 682.890625 1251.796875 685.320312 1251.796875 688.566406 C 1251.796875 691.808594 1249.363281 694.242188 1246.121094 694.242188 C 1242.875 694.242188 1240.441406 691.808594 1240.441406 688.566406 C 1240.441406 685.320312 1242.875 682.890625 1246.121094 682.890625 Z M 1246.121094 643.964844 C 1249.363281 643.964844 1251.796875 646.394531 1251.796875 649.640625 C 1251.796875 652.882812 1249.363281 655.316406 1246.121094 655.316406 C 1242.875 655.316406 1240.441406 652.882812 1240.441406 649.640625 C 1240.441406 646.394531 1242.875 643.964844 1246.121094 643.964844 Z M 1246.121094 605.039062 C 1249.363281 605.039062 1251.796875 607.46875 1251.796875 610.714844 C 1251.796875 613.957031 1249.363281 616.390625 1246.121094 616.390625 C 1242.875 616.390625 1240.441406 613.957031 1240.441406 610.714844 C 1240.441406 607.46875 1242.875 605.039062 1246.121094 605.039062 Z M 1246.121094 566.113281 C 1249.363281 566.113281 1251.796875 568.542969 1251.796875 571.789062 C 1251.796875 575.03125 1249.363281 577.464844 1246.121094 577.464844 C 1242.875 577.464844 1240.441406 575.03125 1240.441406 571.789062 C 1240.441406 568.542969 1242.875 566.113281 1246.121094 566.113281 Z M 1208.410156 721.8125 C 1211.652344 721.8125 1214.085938 724.652344 1214.085938 727.492188 C 1214.085938 730.734375 1211.652344 733.167969 1208.410156 733.167969 C 1205.167969 733.167969 1202.734375 730.734375 1202.734375 727.492188 C 1202.734375 724.652344 1205.167969 721.8125 1208.410156 721.8125 Z M 1208.410156 682.890625 C 1211.652344 682.890625 1214.085938 685.320312 1214.085938 688.566406 C 1214.085938 691.808594 1211.652344 694.242188 1208.410156 694.242188 C 1205.167969 694.242188 1202.734375 691.808594 1202.734375 688.566406 C 1202.734375 685.320312 1205.167969 682.890625 1208.410156 682.890625 Z M 1208.410156 643.964844 C 1211.652344 643.964844 1214.085938 646.394531 1214.085938 649.640625 C 1214.085938 652.882812 1211.652344 655.316406 1208.410156 655.316406 C 1205.167969 655.316406 1202.734375 652.882812 1202.734375 649.640625 C 1202.734375 646.394531 1205.167969 643.964844 1208.410156 643.964844 Z M 1208.410156 605.039062 C 1211.652344 605.039062 1214.085938 607.46875 1214.085938 610.714844 C 1214.085938 613.957031 1211.652344 616.390625 1208.410156 616.390625 C 1205.167969 616.390625 1202.734375 613.957031 1202.734375 610.714844 C 1202.734375 607.46875 1205.167969 605.039062 1208.410156 605.039062 Z M 1208.410156 566.113281 C 1211.652344 566.113281 1214.085938 568.542969 1214.085938 571.789062 C 1214.085938 575.03125 1211.652344 577.464844 1208.410156 577.464844 C 1205.167969 577.464844 1202.734375 575.03125 1202.734375 571.789062 C 1202.734375 568.542969 1205.167969 566.113281 1208.410156 566.113281 Z M 1170.699219 721.8125 C 1173.945312 721.8125 1176.378906 724.652344 1176.378906 727.492188 C 1176.378906 730.734375 1173.945312 733.167969 1170.699219 733.167969 C 1167.863281 733.167969 1165.023438 730.734375 1165.023438 727.492188 C 1165.023438 724.652344 1167.863281 721.8125 1170.699219 721.8125 Z M 1170.699219 682.890625 C 1173.945312 682.890625 1176.378906 685.320312 1176.378906 688.566406 C 1176.378906 691.808594 1173.945312 694.242188 1170.699219 694.242188 C 1167.863281 694.242188 1165.023438 691.808594 1165.023438 688.566406 C 1165.023438 685.320312 1167.863281 682.890625 1170.699219 682.890625 Z M 1170.699219 643.964844 C 1173.945312 643.964844 1176.378906 646.394531 1176.378906 649.640625 C 1176.378906 652.882812 1173.945312 655.316406 1170.699219 655.316406 C 1167.863281 655.316406 1165.023438 652.882812 1165.023438 649.640625 C 1165.023438 646.394531 1167.863281 643.964844 1170.699219 643.964844 Z M 1170.699219 605.039062 C 1173.945312 605.039062 1176.378906 607.46875 1176.378906 610.714844 C 1176.378906 613.957031 1173.945312 616.390625 1170.699219 616.390625 C 1167.863281 616.390625 1165.023438 613.957031 1165.023438 610.714844 C 1165.023438 607.46875 1167.863281 605.039062 1170.699219 605.039062 Z M 1170.699219 566.113281 C 1173.945312 566.113281 1176.378906 568.542969 1176.378906 571.789062 C 1176.378906 575.03125 1173.945312 577.464844 1170.699219 577.464844 C 1167.863281 577.464844 1165.023438 575.03125 1165.023438 571.789062 C 1165.023438 568.542969 1167.863281 566.113281 1170.699219 566.113281 Z M 1132.992188 721.8125 C 1136.234375 721.8125 1139.074219 724.652344 1139.074219 727.492188 C 1139.074219 730.734375 1136.234375 733.167969 1132.992188 733.167969 C 1130.152344 733.167969 1127.316406 730.734375 1127.316406 727.492188 C 1127.316406 724.652344 1130.152344 721.8125 1132.992188 721.8125 Z M 1132.992188 682.890625 C 1136.234375 682.890625 1139.074219 685.320312 1139.074219 688.566406 C 1139.074219 691.808594 1136.234375 694.242188 1132.992188 694.242188 C 1130.152344 694.242188 1127.316406 691.808594 1127.316406 688.566406 C 1127.316406 685.320312 1130.152344 682.890625 1132.992188 682.890625 Z M 1132.992188 643.964844 C 1136.234375 643.964844 1139.074219 646.394531 1139.074219 649.640625 C 1139.074219 652.882812 1136.234375 655.316406 1132.992188 655.316406 C 1130.152344 655.316406 1127.316406 652.882812 1127.316406 649.640625 C 1127.316406 646.394531 1130.152344 643.964844 1132.992188 643.964844 Z M 1132.992188 605.039062 C 1136.234375 605.039062 1139.074219 607.46875 1139.074219 610.714844 C 1139.074219 613.957031 1136.234375 616.390625 1132.992188 616.390625 C 1130.152344 616.390625 1127.316406 613.957031 1127.316406 610.714844 C 1127.316406 607.46875 1130.152344 605.039062 1132.992188 605.039062 Z M 1132.992188 566.113281 C 1136.234375 566.113281 1139.074219 568.542969 1139.074219 571.789062 C 1139.074219 575.03125 1136.234375 577.464844 1132.992188 577.464844 C 1130.152344 577.464844 1127.316406 575.03125 1127.316406 571.789062 C 1127.316406 568.542969 1130.152344 566.113281 1132.992188 566.113281 Z M 1095.6875 721.8125 C 1098.527344 721.8125 1101.363281 724.652344 1101.363281 727.492188 C 1101.363281 730.734375 1098.527344 733.167969 1095.6875 733.167969 C 1092.445312 733.167969 1090.011719 730.734375 1090.011719 727.492188 C 1090.011719 724.652344 1092.445312 721.8125 1095.6875 721.8125 Z M 1095.6875 682.890625 C 1098.527344 682.890625 1101.363281 685.320312 1101.363281 688.566406 C 1101.363281 691.808594 1098.527344 694.242188 1095.6875 694.242188 C 1092.445312 694.242188 1090.011719 691.808594 1090.011719 688.566406 C 1090.011719 685.320312 1092.445312 682.890625 1095.6875 682.890625 Z M 1095.6875 643.964844 C 1098.527344 643.964844 1101.363281 646.394531 1101.363281 649.640625 C 1101.363281 652.882812 1098.527344 655.316406 1095.6875 655.316406 C 1092.445312 655.316406 1090.011719 652.882812 1090.011719 649.640625 C 1090.011719 646.394531 1092.445312 643.964844 1095.6875 643.964844 Z M 1095.6875 605.039062 C 1098.527344 605.039062 1101.363281 607.46875 1101.363281 610.714844 C 1101.363281 613.957031 1098.527344 616.390625 1095.6875 616.390625 C 1092.445312 616.390625 1090.011719 613.957031 1090.011719 610.714844 C 1090.011719 607.46875 1092.445312 605.039062 1095.6875 605.039062 Z M 1095.6875 566.113281 C 1098.527344 566.113281 1101.363281 568.542969 1101.363281 571.789062 C 1101.363281 575.03125 1098.527344 577.464844 1095.6875 577.464844 C 1092.445312 577.464844 1090.011719 575.03125 1090.011719 571.789062 C 1090.011719 568.542969 1092.445312 566.113281 1095.6875 566.113281 Z M 1057.980469 721.8125 C 1061.222656 721.8125 1063.65625 724.652344 1063.65625 727.492188 C 1063.65625 730.734375 1061.222656 733.167969 1057.980469 733.167969 C 1054.734375 733.167969 1052.300781 730.734375 1052.300781 727.492188 C 1052.300781 724.652344 1054.734375 721.8125 1057.980469 721.8125 Z M 1057.980469 682.890625 C 1061.222656 682.890625 1063.65625 685.320312 1063.65625 688.566406 C 1063.65625 691.808594 1061.222656 694.242188 1057.980469 694.242188 C 1054.734375 694.242188 1052.300781 691.808594 1052.300781 688.566406 C 1052.300781 685.320312 1054.734375 682.890625 1057.980469 682.890625 Z M 1057.980469 643.964844 C 1061.222656 643.964844 1063.65625 646.394531 1063.65625 649.640625 C 1063.65625 652.882812 1061.222656 655.316406 1057.980469 655.316406 C 1054.734375 655.316406 1052.300781 652.882812 1052.300781 649.640625 C 1052.300781 646.394531 1054.734375 643.964844 1057.980469 643.964844 Z M 1057.980469 605.039062 C 1061.222656 605.039062 1063.65625 607.46875 1063.65625 610.714844 C 1063.65625 613.957031 1061.222656 616.390625 1057.980469 616.390625 C 1054.734375 616.390625 1052.300781 613.957031 1052.300781 610.714844 C 1052.300781 607.46875 1054.734375 605.039062 1057.980469 605.039062 Z M 1057.980469 566.113281 C 1061.222656 566.113281 1063.65625 568.542969 1063.65625 571.789062 C 1063.65625 575.03125 1061.222656 577.464844 1057.980469 577.464844 C 1054.734375 577.464844 1052.300781 575.03125 1052.300781 571.789062 C 1052.300781 568.542969 1054.734375 566.113281 1057.980469 566.113281 Z M 1020.269531 721.8125 C 1023.511719 721.8125 1025.945312 724.652344 1025.945312 727.492188 C 1025.945312 730.734375 1023.511719 733.167969 1020.269531 733.167969 C 1017.027344 733.167969 1014.59375 730.734375 1014.59375 727.492188 C 1014.59375 724.652344 1017.027344 721.8125 1020.269531 721.8125 Z M 1020.269531 682.890625 C 1023.511719 682.890625 1025.945312 685.320312 1025.945312 688.566406 C 1025.945312 691.808594 1023.511719 694.242188 1020.269531 694.242188 C 1017.027344 694.242188 1014.59375 691.808594 1014.59375 688.566406 C 1014.59375 685.320312 1017.027344 682.890625 1020.269531 682.890625 Z M 1020.269531 643.964844 C 1023.511719 643.964844 1025.945312 646.394531 1025.945312 649.640625 C 1025.945312 652.882812 1023.511719 655.316406 1020.269531 655.316406 C 1017.027344 655.316406 1014.59375 652.882812 1014.59375 649.640625 C 1014.59375 646.394531 1017.027344 643.964844 1020.269531 643.964844 Z M 1020.269531 605.039062 C 1023.511719 605.039062 1025.945312 607.46875 1025.945312 610.714844 C 1025.945312 613.957031 1023.511719 616.390625 1020.269531 616.390625 C 1017.027344 616.390625 1014.59375 613.957031 1014.59375 610.714844 C 1014.59375 607.46875 1017.027344 605.039062 1020.269531 605.039062 Z M 1020.269531 566.113281 C 1023.511719 566.113281 1025.945312 568.542969 1025.945312 571.789062 C 1025.945312 575.03125 1023.511719 577.464844 1020.269531 577.464844 C 1017.027344 577.464844 1014.59375 575.03125 1014.59375 571.789062 C 1014.59375 568.542969 1017.027344 566.113281 1020.269531 566.113281 Z M 982.5625 721.8125 C 985.804688 721.8125 988.238281 724.652344 988.238281 727.492188 C 988.238281 730.734375 985.804688 733.167969 982.5625 733.167969 C 979.316406 733.167969 976.882812 730.734375 976.882812 727.492188 C 976.882812 724.652344 979.316406 721.8125 982.5625 721.8125 Z M 982.5625 682.890625 C 985.804688 682.890625 988.238281 685.320312 988.238281 688.566406 C 988.238281 691.808594 985.804688 694.242188 982.5625 694.242188 C 979.316406 694.242188 976.882812 691.808594 976.882812 688.566406 C 976.882812 685.320312 979.316406 682.890625 982.5625 682.890625 Z M 982.5625 643.964844 C 985.804688 643.964844 988.238281 646.394531 988.238281 649.640625 C 988.238281 652.882812 985.804688 655.316406 982.5625 655.316406 C 979.316406 655.316406 976.882812 652.882812 976.882812 649.640625 C 976.882812 646.394531 979.316406 643.964844 982.5625 643.964844 Z M 982.5625 605.039062 C 985.804688 605.039062 988.238281 607.46875 988.238281 610.714844 C 988.238281 613.957031 985.804688 616.390625 982.5625 616.390625 C 979.316406 616.390625 976.882812 613.957031 976.882812 610.714844 C 976.882812 607.46875 979.316406 605.039062 982.5625 605.039062 Z M 982.5625 566.113281 C 985.804688 566.113281 988.238281 568.542969 988.238281 571.789062 C 988.238281 575.03125 985.804688 577.464844 982.5625 577.464844 C 979.316406 577.464844 976.882812 575.03125 976.882812 571.789062 C 976.882812 568.542969 979.316406 566.113281 982.5625 566.113281 Z M 1434.257812 527.1875 C 1437.503906 527.1875 1439.9375 529.621094 1439.9375 532.863281 C 1439.9375 536.105469 1437.503906 538.539062 1434.257812 538.539062 C 1431.015625 538.539062 1428.582031 536.105469 1428.582031 532.863281 C 1428.582031 529.621094 1431.015625 527.1875 1434.257812 527.1875 Z M 1396.550781 527.1875 C 1399.792969 527.1875 1402.226562 529.621094 1402.226562 532.863281 C 1402.226562 536.105469 1399.792969 538.539062 1396.550781 538.539062 C 1393.710938 538.539062 1390.875 536.105469 1390.875 532.863281 C 1390.875 529.621094 1393.710938 527.1875 1396.550781 527.1875 Z M 1359.246094 527.1875 C 1362.085938 527.1875 1364.921875 529.621094 1364.921875 532.863281 C 1364.921875 536.105469 1362.085938 538.539062 1359.246094 538.539062 C 1356.003906 538.539062 1353.164062 536.105469 1353.164062 532.863281 C 1353.164062 529.621094 1356.003906 527.1875 1359.246094 527.1875 Z M 1321.539062 527.1875 C 1324.375 527.1875 1327.214844 529.621094 1327.214844 532.863281 C 1327.214844 536.105469 1324.375 538.539062 1321.539062 538.539062 C 1318.292969 538.539062 1315.859375 536.105469 1315.859375 532.863281 C 1315.859375 529.621094 1318.292969 527.1875 1321.539062 527.1875 Z M 1283.828125 527.1875 C 1287.070312 527.1875 1289.503906 529.621094 1289.503906 532.863281 C 1289.503906 536.105469 1287.070312 538.539062 1283.828125 538.539062 C 1280.585938 538.539062 1278.152344 536.105469 1278.152344 532.863281 C 1278.152344 529.621094 1280.585938 527.1875 1283.828125 527.1875 Z M 1246.121094 527.1875 C 1249.363281 527.1875 1251.796875 529.621094 1251.796875 532.863281 C 1251.796875 536.105469 1249.363281 538.539062 1246.121094 538.539062 C 1242.875 538.539062 1240.441406 536.105469 1240.441406 532.863281 C 1240.441406 529.621094 1242.875 527.1875 1246.121094 527.1875 Z M 1208.410156 527.1875 C 1211.652344 527.1875 1214.085938 529.621094 1214.085938 532.863281 C 1214.085938 536.105469 1211.652344 538.539062 1208.410156 538.539062 C 1205.167969 538.539062 1202.734375 536.105469 1202.734375 532.863281 C 1202.734375 529.621094 1205.167969 527.1875 1208.410156 527.1875 Z M 1170.699219 527.1875 C 1173.945312 527.1875 1176.378906 529.621094 1176.378906 532.863281 C 1176.378906 536.105469 1173.945312 538.539062 1170.699219 538.539062 C 1167.863281 538.539062 1165.023438 536.105469 1165.023438 532.863281 C 1165.023438 529.621094 1167.863281 527.1875 1170.699219 527.1875 Z M 1132.992188 527.1875 C 1136.234375 527.1875 1139.074219 529.621094 1139.074219 532.863281 C 1139.074219 536.105469 1136.234375 538.539062 1132.992188 538.539062 C 1130.152344 538.539062 1127.316406 536.105469 1127.316406 532.863281 C 1127.316406 529.621094 1130.152344 527.1875 1132.992188 527.1875 Z M 1095.6875 527.1875 C 1098.527344 527.1875 1101.363281 529.621094 1101.363281 532.863281 C 1101.363281 536.105469 1098.527344 538.539062 1095.6875 538.539062 C 1092.445312 538.539062 1090.011719 536.105469 1090.011719 532.863281 C 1090.011719 529.621094 1092.445312 527.1875 1095.6875 527.1875 Z M 1057.980469 527.1875 C 1061.222656 527.1875 1063.65625 529.621094 1063.65625 532.863281 C 1063.65625 536.105469 1061.222656 538.539062 1057.980469 538.539062 C 1054.734375 538.539062 1052.300781 536.105469 1052.300781 532.863281 C 1052.300781 529.621094 1054.734375 527.1875 1057.980469 527.1875 Z M 1020.269531 527.1875 C 1023.511719 527.1875 1025.945312 529.621094 1025.945312 532.863281 C 1025.945312 536.105469 1023.511719 538.539062 1020.269531 538.539062 C 1017.027344 538.539062 1014.59375 536.105469 1014.59375 532.863281 C 1014.59375 529.621094 1017.027344 527.1875 1020.269531 527.1875 Z M 1020.269531 527.1875 " fill-opacity="1" fill-rule="evenodd"/></g></svg>