<svg xmlns="http://www.w3.org/2000/svg" xmlns:xlink="http://www.w3.org/1999/xlink" width="1920" zoomAndPan="magnify" viewBox="0 0 1440 1439.999935" height="1920" preserveAspectRatio="xMidYMid meet" version="1.0"><path fill="#5ce3eb" d="M 358.65625 1050.636719 C 353.28125 1050.636719 347.941406 1050.636719 342.566406 1050.636719 C 342.566406 1045.261719 342.566406 1039.921875 342.566406 1034.546875 C 347.941406 1034.546875 353.28125 1034.546875 358.65625 1034.546875 C 358.65625 1039.921875 358.65625 1045.261719 358.65625 1050.636719 Z M 704.578125 17.699219 C 699.203125 17.699219 693.863281 17.699219 688.488281 17.699219 C 688.488281 23.070312 688.488281 28.414062 688.488281 33.789062 C 693.863281 33.789062 699.203125 33.789062 704.578125 33.789062 C 704.578125 28.414062 704.578125 23.070312 704.578125 17.699219 Z M 342.566406 1086.035156 C 347.941406 1086.035156 353.28125 1086.035156 358.65625 1086.035156 C 358.65625 1080.660156 358.65625 1075.316406 358.65625 1069.945312 C 353.28125 1069.945312 347.941406 1069.945312 342.566406 1069.945312 C 342.566406 1075.316406 342.566406 1080.660156 342.566406 1086.035156 Z M 704.578125 53.09375 C 699.203125 53.09375 693.863281 53.09375 688.488281 53.09375 C 688.488281 58.46875 688.488281 63.808594 688.488281 69.183594 C 693.863281 69.183594 699.203125 69.183594 704.578125 69.183594 C 704.578125 63.808594 704.578125 58.46875 704.578125 53.09375 Z M 342.566406 1121.429688 C 347.941406 1121.429688 353.28125 1121.429688 358.65625 1121.429688 C 358.65625 1116.054688 358.65625 1110.714844 358.65625 1105.339844 C 353.28125 1105.339844 347.941406 1105.339844 342.566406 1105.339844 C 342.566406 1110.714844 342.566406 1116.054688 342.566406 1121.429688 Z M 704.578125 88.492188 C 699.203125 88.492188 693.863281 88.492188 688.488281 88.492188 C 688.488281 93.867188 688.488281 99.207031 688.488281 104.582031 C 693.863281 104.582031 699.203125 104.582031 704.578125 104.582031 C 704.578125 99.207031 704.578125 93.867188 704.578125 88.492188 Z M 342.566406 1192.222656 C 347.941406 1192.222656 353.28125 1192.222656 358.65625 1192.222656 C 358.65625 1186.847656 358.65625 1181.507812 358.65625 1176.132812 C 353.28125 1176.132812 347.941406 1176.132812 342.566406 1176.132812 C 342.566406 1169.699219 342.566406 1163.261719 342.566406 1156.828125 C 347.941406 1156.828125 353.28125 1156.828125 358.65625 1156.828125 C 358.65625 1151.453125 358.65625 1146.109375 358.65625 1140.738281 C 346.847656 1140.738281 335.070312 1140.738281 323.257812 1140.738281 C 323.257812 1152.546875 323.257812 1164.324219 323.257812 1176.132812 C 317.886719 1176.132812 312.542969 1176.132812 307.167969 1176.132812 C 307.167969 1181.507812 307.167969 1186.847656 307.167969 1192.222656 C 312.542969 1192.222656 317.886719 1192.222656 323.257812 1192.222656 C 323.257812 1198.660156 323.257812 1205.09375 323.257812 1211.53125 C 329.695312 1211.53125 336.128906 1211.53125 342.566406 1211.53125 C 342.566406 1205.09375 342.566406 1198.660156 342.566406 1192.222656 Z M 704.578125 123.886719 C 699.203125 123.886719 693.863281 123.886719 688.488281 123.886719 C 688.488281 129.261719 688.488281 134.605469 688.488281 139.976562 C 693.863281 139.976562 699.203125 139.976562 704.578125 139.976562 C 704.578125 134.605469 704.578125 129.261719 704.578125 123.886719 Z M 377.964844 1176.132812 C 377.964844 1169.699219 377.964844 1163.261719 377.964844 1156.828125 C 371.527344 1156.828125 365.089844 1156.828125 358.65625 1156.828125 C 358.65625 1163.261719 358.65625 1169.699219 358.65625 1176.132812 C 365.089844 1176.132812 371.527344 1176.132812 377.964844 1176.132812 Z M 704.578125 159.285156 C 699.203125 159.285156 693.863281 159.285156 688.488281 159.285156 C 688.488281 164.660156 688.488281 170 688.488281 175.375 C 693.863281 175.375 699.203125 175.375 704.578125 175.375 C 704.578125 170 704.578125 164.660156 704.578125 159.285156 Z M 429.449219 1246.925781 C 424.074219 1246.925781 418.734375 1246.925781 413.359375 1246.925781 C 413.359375 1240.492188 413.359375 1234.054688 413.359375 1227.621094 C 406.925781 1227.621094 400.488281 1227.621094 394.050781 1227.621094 C 394.050781 1234.054688 394.050781 1240.492188 394.050781 1246.925781 C 388.679688 1246.925781 383.335938 1246.925781 377.964844 1246.925781 C 377.964844 1252.300781 377.964844 1257.644531 377.964844 1263.015625 C 371.527344 1263.015625 365.089844 1263.015625 358.65625 1263.015625 C 358.65625 1269.453125 358.65625 1275.886719 358.65625 1282.324219 C 353.28125 1282.324219 347.941406 1282.324219 342.566406 1282.324219 C 342.566406 1275.886719 342.566406 1269.453125 342.566406 1263.015625 C 347.941406 1263.015625 353.28125 1263.015625 358.65625 1263.015625 C 358.65625 1257.644531 358.65625 1252.300781 358.65625 1246.925781 C 353.28125 1246.925781 347.941406 1246.925781 342.566406 1246.925781 C 342.566406 1240.492188 342.566406 1234.054688 342.566406 1227.621094 C 336.128906 1227.621094 329.695312 1227.621094 323.257812 1227.621094 C 323.257812 1234.054688 323.257812 1240.492188 323.257812 1246.925781 C 317.886719 1246.925781 312.542969 1246.925781 307.167969 1246.925781 C 307.167969 1240.492188 307.167969 1234.054688 307.167969 1227.621094 C 312.542969 1227.621094 317.886719 1227.621094 323.257812 1227.621094 C 323.257812 1222.246094 323.257812 1216.90625 323.257812 1211.53125 C 306.109375 1211.53125 288.925781 1211.53125 271.773438 1211.53125 C 271.773438 1216.90625 271.773438 1222.246094 271.773438 1227.621094 C 277.148438 1227.621094 282.488281 1227.621094 287.863281 1227.621094 C 287.863281 1234.054688 287.863281 1240.492188 287.863281 1246.925781 C 282.488281 1246.925781 277.148438 1246.925781 271.773438 1246.925781 C 271.773438 1240.492188 271.773438 1234.054688 271.773438 1227.621094 C 265.335938 1227.621094 258.902344 1227.621094 252.464844 1227.621094 C 252.464844 1239.429688 252.464844 1251.207031 252.464844 1263.015625 C 264.277344 1263.015625 276.054688 1263.015625 287.863281 1263.015625 C 287.863281 1269.453125 287.863281 1275.886719 287.863281 1282.324219 C 294.296875 1282.324219 300.734375 1282.324219 307.167969 1282.324219 C 307.167969 1287.699219 307.167969 1293.039062 307.167969 1298.414062 C 312.542969 1298.414062 317.886719 1298.414062 323.257812 1298.414062 C 323.257812 1310.222656 323.257812 1322 323.257812 1333.808594 C 335.070312 1333.808594 346.847656 1333.808594 358.65625 1333.808594 C 358.65625 1328.4375 358.65625 1323.09375 358.65625 1317.71875 C 353.28125 1317.71875 347.941406 1317.71875 342.566406 1317.71875 C 342.566406 1311.285156 342.566406 1304.847656 342.566406 1298.414062 C 347.941406 1298.414062 353.28125 1298.414062 358.65625 1298.414062 C 358.65625 1304.847656 358.65625 1311.285156 358.65625 1317.71875 C 365.089844 1317.71875 371.527344 1317.71875 377.964844 1317.71875 C 377.964844 1311.285156 377.964844 1304.847656 377.964844 1298.414062 C 383.335938 1298.414062 388.679688 1298.414062 394.050781 1298.414062 C 394.050781 1293.039062 394.050781 1287.699219 394.050781 1282.324219 C 400.488281 1282.324219 406.925781 1282.324219 413.359375 1282.324219 C 413.359375 1275.886719 413.359375 1269.453125 413.359375 1263.015625 C 425.167969 1263.015625 436.945312 1263.015625 448.757812 1263.015625 C 448.757812 1251.207031 448.757812 1239.429688 448.757812 1227.621094 C 442.320312 1227.621094 435.886719 1227.621094 429.449219 1227.621094 C 429.449219 1234.054688 429.449219 1240.492188 429.449219 1246.925781 Z M 358.65625 1227.621094 C 358.65625 1222.246094 358.65625 1216.90625 358.65625 1211.53125 C 353.28125 1211.53125 347.941406 1211.53125 342.566406 1211.53125 C 342.566406 1216.90625 342.566406 1222.246094 342.566406 1227.621094 C 347.941406 1227.621094 353.28125 1227.621094 358.65625 1227.621094 Z M 394.050781 1211.53125 C 388.679688 1211.53125 383.335938 1211.53125 377.964844 1211.53125 C 377.964844 1216.90625 377.964844 1222.246094 377.964844 1227.621094 C 383.335938 1227.621094 388.679688 1227.621094 394.050781 1227.621094 C 394.050781 1222.246094 394.050781 1216.90625 394.050781 1211.53125 Z M 429.449219 1211.53125 C 424.074219 1211.53125 418.734375 1211.53125 413.359375 1211.53125 C 413.359375 1216.90625 413.359375 1222.246094 413.359375 1227.621094 C 418.734375 1227.621094 424.074219 1227.621094 429.449219 1227.621094 C 429.449219 1222.246094 429.449219 1216.90625 429.449219 1211.53125 Z M 704.578125 194.679688 C 699.203125 194.679688 693.863281 194.679688 688.488281 194.679688 C 688.488281 200.054688 688.488281 205.398438 688.488281 210.769531 C 693.863281 210.769531 699.203125 210.769531 704.578125 210.769531 C 704.578125 205.398438 704.578125 200.054688 704.578125 194.679688 Z M 181.671875 1246.925781 C 188.109375 1246.925781 194.542969 1246.925781 200.980469 1246.925781 C 200.980469 1240.492188 200.980469 1234.054688 200.980469 1227.621094 C 194.542969 1227.621094 188.109375 1227.621094 181.671875 1227.621094 C 181.671875 1234.054688 181.671875 1240.492188 181.671875 1246.925781 Z M 217.070312 1246.925781 C 223.503906 1246.925781 229.941406 1246.925781 236.375 1246.925781 C 236.375 1240.492188 236.375 1234.054688 236.375 1227.621094 C 229.941406 1227.621094 223.503906 1227.621094 217.070312 1227.621094 C 217.070312 1234.054688 217.070312 1240.492188 217.070312 1246.925781 Z M 377.964844 1246.925781 C 377.964844 1240.492188 377.964844 1234.054688 377.964844 1227.621094 C 371.527344 1227.621094 365.089844 1227.621094 358.65625 1227.621094 C 358.65625 1234.054688 358.65625 1240.492188 358.65625 1246.925781 C 365.089844 1246.925781 371.527344 1246.925781 377.964844 1246.925781 Z M 500.242188 1246.925781 C 506.679688 1246.925781 513.113281 1246.925781 519.550781 1246.925781 C 519.550781 1240.492188 519.550781 1234.054688 519.550781 1227.621094 C 513.113281 1227.621094 506.679688 1227.621094 500.242188 1227.621094 C 500.242188 1234.054688 500.242188 1240.492188 500.242188 1246.925781 Z M 688.488281 230.078125 C 688.488281 235.453125 688.488281 240.792969 688.488281 246.167969 C 693.863281 246.167969 699.203125 246.167969 704.578125 246.167969 C 704.578125 240.792969 704.578125 235.453125 704.578125 230.078125 C 699.203125 230.078125 693.863281 230.078125 688.488281 230.078125 Z M 598.386719 548.648438 C 604.824219 548.648438 611.257812 548.648438 617.695312 548.648438 C 617.695312 542.210938 617.695312 535.777344 617.695312 529.339844 C 623.070312 529.339844 628.410156 529.339844 633.785156 529.339844 C 633.785156 523.96875 633.785156 518.625 633.785156 513.25 C 628.410156 513.25 623.070312 513.25 617.695312 513.25 C 617.695312 506.816406 617.695312 500.378906 617.695312 493.945312 C 623.070312 493.945312 628.410156 493.945312 633.785156 493.945312 C 633.785156 500.378906 633.785156 506.816406 633.785156 513.25 C 640.21875 513.25 646.65625 513.25 653.089844 513.25 C 653.089844 506.816406 653.089844 500.378906 653.089844 493.945312 C 658.464844 493.945312 663.808594 493.945312 669.179688 493.945312 C 669.179688 488.570312 669.179688 483.230469 669.179688 477.855469 C 663.808594 477.855469 658.464844 477.855469 653.089844 477.855469 C 653.089844 471.417969 653.089844 464.984375 653.089844 458.546875 C 658.464844 458.546875 663.808594 458.546875 669.179688 458.546875 C 669.179688 453.171875 669.179688 447.832031 669.179688 442.457031 C 663.808594 442.457031 658.464844 442.457031 653.089844 442.457031 C 653.089844 436.023438 653.089844 429.585938 653.089844 423.152344 C 658.464844 423.152344 663.808594 423.152344 669.179688 423.152344 C 669.179688 417.777344 669.179688 412.433594 669.179688 407.0625 C 675.617188 407.0625 682.050781 407.0625 688.488281 407.0625 C 688.488281 400.625 688.488281 394.191406 688.488281 387.753906 C 693.863281 387.753906 699.203125 387.753906 704.578125 387.753906 C 704.578125 382.378906 704.578125 377.039062 704.578125 371.664062 C 699.203125 371.664062 693.863281 371.664062 688.488281 371.664062 C 688.488281 365.230469 688.488281 358.792969 688.488281 352.359375 C 693.863281 352.359375 699.203125 352.359375 704.578125 352.359375 C 704.578125 346.984375 704.578125 341.640625 704.578125 336.269531 C 699.203125 336.269531 693.863281 336.269531 688.488281 336.269531 C 688.488281 329.832031 688.488281 323.398438 688.488281 316.960938 C 693.863281 316.960938 699.203125 316.960938 704.578125 316.960938 C 704.578125 311.585938 704.578125 306.246094 704.578125 300.871094 C 699.203125 300.871094 693.863281 300.871094 688.488281 300.871094 C 688.488281 294.4375 688.488281 288 688.488281 281.5625 C 693.863281 281.5625 699.203125 281.5625 704.578125 281.5625 C 704.578125 288 704.578125 294.4375 704.578125 300.871094 C 711.011719 300.871094 717.449219 300.871094 723.886719 300.871094 C 723.886719 282.625 723.886719 264.414062 723.886719 246.167969 C 717.449219 246.167969 711.011719 246.167969 704.578125 246.167969 C 704.578125 252.601562 704.578125 259.039062 704.578125 265.476562 C 692.769531 265.476562 680.992188 265.476562 669.179688 265.476562 C 669.179688 294.4375 669.179688 323.398438 669.179688 352.359375 C 663.808594 352.359375 658.464844 352.359375 653.089844 352.359375 C 653.089844 370.601562 653.089844 388.816406 653.089844 407.0625 C 646.65625 407.0625 640.21875 407.0625 633.785156 407.0625 C 633.785156 430.648438 633.785156 454.269531 633.785156 477.855469 C 621.976562 477.855469 610.199219 477.855469 598.386719 477.855469 C 598.386719 489.664062 598.386719 501.441406 598.386719 513.25 C 593.015625 513.25 587.671875 513.25 582.296875 513.25 C 582.296875 518.625 582.296875 523.96875 582.296875 529.339844 C 587.671875 529.339844 593.015625 529.339844 598.386719 529.339844 C 598.386719 535.777344 598.386719 542.210938 598.386719 548.648438 Z M 723.886719 336.269531 C 723.886719 329.832031 723.886719 323.398438 723.886719 316.960938 C 717.449219 316.960938 711.011719 316.960938 704.578125 316.960938 C 704.578125 323.398438 704.578125 329.832031 704.578125 336.269531 C 711.011719 336.269531 717.449219 336.269531 723.886719 336.269531 Z M 342.566406 1369.207031 C 347.941406 1369.207031 353.28125 1369.207031 358.65625 1369.207031 C 358.65625 1363.832031 358.65625 1358.492188 358.65625 1353.117188 C 353.28125 1353.117188 347.941406 1353.117188 342.566406 1353.117188 C 342.566406 1358.492188 342.566406 1363.832031 342.566406 1369.207031 Z M 739.972656 352.359375 C 739.972656 346.984375 739.972656 341.640625 739.972656 336.269531 C 734.601562 336.269531 729.257812 336.269531 723.886719 336.269531 C 723.886719 341.640625 723.886719 346.984375 723.886719 352.359375 C 729.257812 352.359375 734.601562 352.359375 739.972656 352.359375 Z M 704.578125 371.664062 C 711.011719 371.664062 717.449219 371.664062 723.886719 371.664062 C 723.886719 365.230469 723.886719 358.792969 723.886719 352.359375 C 717.449219 352.359375 711.011719 352.359375 704.578125 352.359375 C 704.578125 358.792969 704.578125 365.230469 704.578125 371.664062 Z M 342.566406 1404.601562 C 347.941406 1404.601562 353.28125 1404.601562 358.65625 1404.601562 C 358.65625 1399.230469 358.65625 1393.886719 358.65625 1388.515625 C 353.28125 1388.515625 347.941406 1388.515625 342.566406 1388.515625 C 342.566406 1393.886719 342.566406 1399.230469 342.566406 1404.601562 Z M 739.972656 387.753906 C 739.972656 382.378906 739.972656 377.039062 739.972656 371.664062 C 734.601562 371.664062 729.257812 371.664062 723.886719 371.664062 C 723.886719 377.039062 723.886719 382.378906 723.886719 387.753906 C 729.257812 387.753906 734.601562 387.753906 739.972656 387.753906 Z M 342.566406 1440 C 347.941406 1440 353.28125 1440 358.65625 1440 C 358.65625 1434.625 358.65625 1429.285156 358.65625 1423.910156 C 353.28125 1423.910156 347.941406 1423.910156 342.566406 1423.910156 C 342.566406 1429.285156 342.566406 1434.625 342.566406 1440 Z M 704.578125 423.152344 C 704.578125 417.777344 704.578125 412.433594 704.578125 407.0625 C 699.203125 407.0625 693.863281 407.0625 688.488281 407.0625 C 688.488281 412.433594 688.488281 417.777344 688.488281 423.152344 C 693.863281 423.152344 699.203125 423.152344 704.578125 423.152344 Z M 739.972656 407.0625 C 734.601562 407.0625 729.257812 407.0625 723.886719 407.0625 C 723.886719 412.433594 723.886719 417.777344 723.886719 423.152344 C 729.257812 423.152344 734.601562 423.152344 739.972656 423.152344 C 739.972656 417.777344 739.972656 412.433594 739.972656 407.0625 Z M 688.488281 423.152344 C 682.050781 423.152344 675.617188 423.152344 669.179688 423.152344 C 669.179688 429.585938 669.179688 436.023438 669.179688 442.457031 C 675.617188 442.457031 682.050781 442.457031 688.488281 442.457031 C 688.488281 436.023438 688.488281 429.585938 688.488281 423.152344 Z M 723.886719 442.457031 C 723.886719 436.023438 723.886719 429.585938 723.886719 423.152344 C 717.449219 423.152344 711.011719 423.152344 704.578125 423.152344 C 704.578125 429.585938 704.578125 436.023438 704.578125 442.457031 C 711.011719 442.457031 717.449219 442.457031 723.886719 442.457031 Z M 759.28125 442.457031 C 759.28125 436.023438 759.28125 429.585938 759.28125 423.152344 C 752.847656 423.152344 746.410156 423.152344 739.972656 423.152344 C 739.972656 429.585938 739.972656 436.023438 739.972656 442.457031 C 746.410156 442.457031 752.847656 442.457031 759.28125 442.457031 Z M 704.578125 458.546875 C 704.578125 453.171875 704.578125 447.832031 704.578125 442.457031 C 699.203125 442.457031 693.863281 442.457031 688.488281 442.457031 C 688.488281 447.832031 688.488281 453.171875 688.488281 458.546875 C 693.863281 458.546875 699.203125 458.546875 704.578125 458.546875 Z M 739.972656 458.546875 C 739.972656 453.171875 739.972656 447.832031 739.972656 442.457031 C 734.601562 442.457031 729.257812 442.457031 723.886719 442.457031 C 723.886719 447.832031 723.886719 453.171875 723.886719 458.546875 C 729.257812 458.546875 734.601562 458.546875 739.972656 458.546875 Z M 775.371094 458.546875 C 775.371094 453.171875 775.371094 447.832031 775.371094 442.457031 C 769.996094 442.457031 764.65625 442.457031 759.28125 442.457031 C 759.28125 447.832031 759.28125 453.171875 759.28125 458.546875 C 764.65625 458.546875 769.996094 458.546875 775.371094 458.546875 Z M 688.488281 458.546875 C 682.050781 458.546875 675.617188 458.546875 669.179688 458.546875 C 669.179688 464.984375 669.179688 471.417969 669.179688 477.855469 C 675.617188 477.855469 682.050781 477.855469 688.488281 477.855469 C 688.488281 471.417969 688.488281 464.984375 688.488281 458.546875 Z M 739.972656 477.855469 C 746.410156 477.855469 752.847656 477.855469 759.28125 477.855469 C 759.28125 471.417969 759.28125 464.984375 759.28125 458.546875 C 752.847656 458.546875 746.410156 458.546875 739.972656 458.546875 C 739.972656 464.984375 739.972656 471.417969 739.972656 477.855469 Z M 704.578125 477.855469 C 699.203125 477.855469 693.863281 477.855469 688.488281 477.855469 C 688.488281 483.230469 688.488281 488.570312 688.488281 493.945312 C 693.863281 493.945312 699.203125 493.945312 704.578125 493.945312 C 704.578125 488.570312 704.578125 483.230469 704.578125 477.855469 Z M 723.886719 493.945312 C 729.257812 493.945312 734.601562 493.945312 739.972656 493.945312 C 739.972656 488.570312 739.972656 483.230469 739.972656 477.855469 C 734.601562 477.855469 729.257812 477.855469 723.886719 477.855469 C 723.886719 483.230469 723.886719 488.570312 723.886719 493.945312 Z M 775.371094 493.945312 C 775.371094 500.378906 775.371094 506.816406 775.371094 513.25 C 781.808594 513.25 788.242188 513.25 794.679688 513.25 C 794.679688 501.441406 794.679688 489.664062 794.679688 477.855469 C 782.867188 477.855469 771.089844 477.855469 759.28125 477.855469 C 759.28125 483.230469 759.28125 488.570312 759.28125 493.945312 C 764.65625 493.945312 769.996094 493.945312 775.371094 493.945312 Z M 688.488281 513.25 C 688.488281 506.816406 688.488281 500.378906 688.488281 493.945312 C 682.050781 493.945312 675.617188 493.945312 669.179688 493.945312 C 669.179688 500.378906 669.179688 506.816406 669.179688 513.25 C 675.617188 513.25 682.050781 513.25 688.488281 513.25 Z M 723.886719 513.25 C 723.886719 506.816406 723.886719 500.378906 723.886719 493.945312 C 717.449219 493.945312 711.011719 493.945312 704.578125 493.945312 C 704.578125 500.378906 704.578125 506.816406 704.578125 513.25 C 711.011719 513.25 717.449219 513.25 723.886719 513.25 Z M 759.28125 513.25 C 759.28125 506.816406 759.28125 500.378906 759.28125 493.945312 C 752.847656 493.945312 746.410156 493.945312 739.972656 493.945312 C 739.972656 500.378906 739.972656 506.816406 739.972656 513.25 C 746.410156 513.25 752.847656 513.25 759.28125 513.25 Z M 669.179688 529.339844 C 669.179688 523.96875 669.179688 518.625 669.179688 513.25 C 663.808594 513.25 658.464844 513.25 653.089844 513.25 C 653.089844 518.625 653.089844 523.96875 653.089844 529.339844 C 658.464844 529.339844 663.808594 529.339844 669.179688 529.339844 Z M 704.578125 529.339844 C 704.578125 523.96875 704.578125 518.625 704.578125 513.25 C 699.203125 513.25 693.863281 513.25 688.488281 513.25 C 688.488281 518.625 688.488281 523.96875 688.488281 529.339844 C 693.863281 529.339844 699.203125 529.339844 704.578125 529.339844 Z M 739.972656 529.339844 C 739.972656 523.96875 739.972656 518.625 739.972656 513.25 C 734.601562 513.25 729.257812 513.25 723.886719 513.25 C 723.886719 518.625 723.886719 523.96875 723.886719 529.339844 C 729.257812 529.339844 734.601562 529.339844 739.972656 529.339844 Z M 759.28125 529.339844 C 764.65625 529.339844 769.996094 529.339844 775.371094 529.339844 C 775.371094 523.96875 775.371094 518.625 775.371094 513.25 C 769.996094 513.25 764.65625 513.25 759.28125 513.25 C 759.28125 518.625 759.28125 523.96875 759.28125 529.339844 Z M 810.765625 529.339844 C 810.765625 523.96875 810.765625 518.625 810.765625 513.25 C 805.394531 513.25 800.050781 513.25 794.679688 513.25 C 794.679688 518.625 794.679688 523.96875 794.679688 529.339844 C 800.050781 529.339844 805.394531 529.339844 810.765625 529.339844 Z M 562.992188 584.042969 C 569.425781 584.042969 575.863281 584.042969 582.296875 584.042969 C 582.296875 577.609375 582.296875 571.171875 582.296875 564.738281 C 587.671875 564.738281 593.015625 564.738281 598.386719 564.738281 C 598.386719 559.363281 598.386719 554.023438 598.386719 548.648438 C 593.015625 548.648438 587.671875 548.648438 582.296875 548.648438 C 582.296875 542.210938 582.296875 535.777344 582.296875 529.339844 C 575.863281 529.339844 569.425781 529.339844 562.992188 529.339844 C 562.992188 535.777344 562.992188 542.210938 562.992188 548.648438 C 557.617188 548.648438 552.277344 548.648438 546.902344 548.648438 C 546.902344 554.023438 546.902344 559.363281 546.902344 564.738281 C 552.277344 564.738281 557.617188 564.738281 562.992188 564.738281 C 562.992188 571.171875 562.992188 577.609375 562.992188 584.042969 Z M 633.785156 564.738281 C 633.785156 571.171875 633.785156 577.609375 633.785156 584.042969 C 640.21875 584.042969 646.65625 584.042969 653.089844 584.042969 C 653.089844 577.609375 653.089844 571.171875 653.089844 564.738281 C 658.464844 564.738281 663.808594 564.738281 669.179688 564.738281 C 669.179688 559.363281 669.179688 554.023438 669.179688 548.648438 C 663.808594 548.648438 658.464844 548.648438 653.089844 548.648438 C 653.089844 542.210938 653.089844 535.777344 653.089844 529.339844 C 646.65625 529.339844 640.21875 529.339844 633.785156 529.339844 C 633.785156 535.777344 633.785156 542.210938 633.785156 548.648438 C 628.410156 548.648438 623.070312 548.648438 617.695312 548.648438 C 617.695312 554.023438 617.695312 559.363281 617.695312 564.738281 C 623.070312 564.738281 628.410156 564.738281 633.785156 564.738281 Z M 688.488281 529.339844 C 682.050781 529.339844 675.617188 529.339844 669.179688 529.339844 C 669.179688 535.777344 669.179688 542.210938 669.179688 548.648438 C 675.617188 548.648438 682.050781 548.648438 688.488281 548.648438 C 688.488281 542.210938 688.488281 535.777344 688.488281 529.339844 Z M 739.972656 548.648438 C 746.410156 548.648438 752.847656 548.648438 759.28125 548.648438 C 759.28125 542.210938 759.28125 535.777344 759.28125 529.339844 C 752.847656 529.339844 746.410156 529.339844 739.972656 529.339844 C 739.972656 535.777344 739.972656 542.210938 739.972656 548.648438 Z M 830.074219 548.648438 C 830.074219 542.210938 830.074219 535.777344 830.074219 529.339844 C 823.640625 529.339844 817.203125 529.339844 810.765625 529.339844 C 810.765625 535.777344 810.765625 542.210938 810.765625 548.648438 C 817.203125 548.648438 823.640625 548.648438 830.074219 548.648438 Z M 704.578125 548.648438 C 699.203125 548.648438 693.863281 548.648438 688.488281 548.648438 C 688.488281 554.023438 688.488281 559.363281 688.488281 564.738281 C 693.863281 564.738281 699.203125 564.738281 704.578125 564.738281 C 704.578125 559.363281 704.578125 554.023438 704.578125 548.648438 Z M 723.886719 564.738281 C 729.257812 564.738281 734.601562 564.738281 739.972656 564.738281 C 739.972656 559.363281 739.972656 554.023438 739.972656 548.648438 C 734.601562 548.648438 729.257812 548.648438 723.886719 548.648438 C 723.886719 554.023438 723.886719 559.363281 723.886719 564.738281 Z M 775.371094 564.738281 C 775.371094 559.363281 775.371094 554.023438 775.371094 548.648438 C 769.996094 548.648438 764.65625 548.648438 759.28125 548.648438 C 759.28125 554.023438 759.28125 559.363281 759.28125 564.738281 C 764.65625 564.738281 769.996094 564.738281 775.371094 564.738281 Z M 810.765625 548.648438 C 805.394531 548.648438 800.050781 548.648438 794.679688 548.648438 C 794.679688 554.023438 794.679688 559.363281 794.679688 564.738281 C 800.050781 564.738281 805.394531 564.738281 810.765625 564.738281 C 810.765625 559.363281 810.765625 554.023438 810.765625 548.648438 Z M 846.164062 564.738281 C 846.164062 571.171875 846.164062 577.609375 846.164062 584.042969 C 852.601562 584.042969 859.035156 584.042969 865.472656 584.042969 C 865.472656 572.234375 865.472656 560.457031 865.472656 548.648438 C 853.660156 548.648438 841.882812 548.648438 830.074219 548.648438 C 830.074219 554.023438 830.074219 559.363281 830.074219 564.738281 C 835.449219 564.738281 840.789062 564.738281 846.164062 564.738281 Z M 1058.542969 670.925781 C 1064.980469 670.925781 1071.414062 670.925781 1077.851562 670.925781 C 1077.851562 677.363281 1077.851562 683.796875 1077.851562 690.234375 C 1054.265625 690.234375 1030.644531 690.234375 1007.058594 690.234375 C 1007.058594 695.609375 1007.058594 700.949219 1007.058594 706.324219 C 988.8125 706.324219 970.597656 706.324219 952.355469 706.324219 C 952.355469 712.757812 952.355469 719.195312 952.355469 725.632812 C 935.203125 725.632812 918.019531 725.632812 900.867188 725.632812 C 900.867188 731.003906 900.867188 736.347656 900.867188 741.71875 C 894.433594 741.71875 887.996094 741.71875 881.5625 741.71875 C 881.5625 748.15625 881.5625 754.59375 881.5625 761.027344 C 869.75 761.027344 857.972656 761.027344 846.164062 761.027344 C 846.164062 754.59375 846.164062 748.15625 846.164062 741.71875 C 840.789062 741.71875 835.449219 741.71875 830.074219 741.71875 C 830.074219 748.15625 830.074219 754.59375 830.074219 761.027344 C 835.449219 761.027344 840.789062 761.027344 846.164062 761.027344 C 846.164062 766.402344 846.164062 771.742188 846.164062 777.117188 C 840.789062 777.117188 835.449219 777.117188 830.074219 777.117188 C 830.074219 783.554688 830.074219 789.988281 830.074219 796.425781 C 823.640625 796.425781 817.203125 796.425781 810.765625 796.425781 C 810.765625 789.988281 810.765625 783.554688 810.765625 777.117188 C 805.394531 777.117188 800.050781 777.117188 794.679688 777.117188 C 794.679688 783.554688 794.679688 789.988281 794.679688 796.425781 C 800.050781 796.425781 805.394531 796.425781 810.765625 796.425781 C 810.765625 801.796875 810.765625 807.140625 810.765625 812.515625 C 805.394531 812.515625 800.050781 812.515625 794.679688 812.515625 C 794.679688 824.324219 794.679688 836.101562 794.679688 847.910156 C 782.867188 847.910156 771.089844 847.910156 759.28125 847.910156 C 759.28125 854.347656 759.28125 860.78125 759.28125 867.21875 C 764.65625 867.21875 769.996094 867.21875 775.371094 867.21875 C 775.371094 872.589844 775.371094 877.933594 775.371094 883.308594 C 769.996094 883.308594 764.65625 883.308594 759.28125 883.308594 C 759.28125 895.117188 759.28125 906.894531 759.28125 918.703125 C 747.472656 918.703125 735.695312 918.703125 723.886719 918.703125 C 723.886719 925.140625 723.886719 931.574219 723.886719 938.011719 C 717.449219 938.011719 711.011719 938.011719 704.578125 938.011719 C 704.578125 931.574219 704.578125 925.140625 704.578125 918.703125 C 699.203125 918.703125 693.863281 918.703125 688.488281 918.703125 C 688.488281 925.140625 688.488281 931.574219 688.488281 938.011719 C 693.863281 938.011719 699.203125 938.011719 704.578125 938.011719 C 704.578125 943.386719 704.578125 948.726562 704.578125 954.101562 C 699.203125 954.101562 693.863281 954.101562 688.488281 954.101562 C 688.488281 960.535156 688.488281 966.972656 688.488281 973.40625 C 693.863281 973.40625 699.203125 973.40625 704.578125 973.40625 C 704.578125 966.972656 704.578125 960.535156 704.578125 954.101562 C 711.011719 954.101562 717.449219 954.101562 723.886719 954.101562 C 723.886719 960.535156 723.886719 966.972656 723.886719 973.40625 C 729.257812 973.40625 734.601562 973.40625 739.972656 973.40625 C 739.972656 978.78125 739.972656 984.125 739.972656 989.496094 C 734.601562 989.496094 729.257812 989.496094 723.886719 989.496094 C 723.886719 995.933594 723.886719 1002.367188 723.886719 1008.804688 C 717.449219 1008.804688 711.011719 1008.804688 704.578125 1008.804688 C 704.578125 1002.367188 704.578125 995.933594 704.578125 989.496094 C 699.203125 989.496094 693.863281 989.496094 688.488281 989.496094 C 688.488281 995.933594 688.488281 1002.367188 688.488281 1008.804688 C 693.863281 1008.804688 699.203125 1008.804688 704.578125 1008.804688 C 704.578125 1014.179688 704.578125 1019.519531 704.578125 1024.894531 C 699.203125 1024.894531 693.863281 1024.894531 688.488281 1024.894531 C 688.488281 1031.328125 688.488281 1037.765625 688.488281 1044.199219 C 682.050781 1044.199219 675.617188 1044.199219 669.179688 1044.199219 C 669.179688 1014.179688 669.179688 984.125 669.179688 954.101562 C 663.808594 954.101562 658.464844 954.101562 653.089844 954.101562 C 653.089844 936.949219 653.089844 919.765625 653.089844 902.613281 C 646.65625 902.613281 640.21875 902.613281 633.785156 902.613281 C 633.785156 890.804688 633.785156 879.027344 633.785156 867.21875 C 628.410156 867.21875 623.070312 867.21875 617.695312 867.21875 C 617.695312 855.40625 617.695312 843.628906 617.695312 831.820312 C 611.257812 831.820312 604.824219 831.820312 598.386719 831.820312 C 598.386719 825.386719 598.386719 818.949219 598.386719 812.515625 C 593.015625 812.515625 587.671875 812.515625 582.296875 812.515625 C 582.296875 807.140625 582.296875 801.796875 582.296875 796.425781 C 575.863281 796.425781 569.425781 796.425781 562.992188 796.425781 C 562.992188 789.988281 562.992188 783.554688 562.992188 777.117188 C 557.617188 777.117188 552.277344 777.117188 546.902344 777.117188 C 546.902344 771.742188 546.902344 766.402344 546.902344 761.027344 C 540.464844 761.027344 534.03125 761.027344 527.59375 761.027344 C 527.59375 754.59375 527.59375 748.15625 527.59375 741.71875 C 515.785156 741.71875 504.007812 741.71875 492.199219 741.71875 C 492.199219 736.347656 492.199219 731.003906 492.199219 725.632812 C 480.386719 725.632812 468.609375 725.632812 456.800781 725.632812 C 456.800781 719.195312 456.800781 712.757812 456.800781 706.324219 C 433.214844 706.324219 409.59375 706.324219 386.007812 706.324219 C 386.007812 700.949219 386.007812 695.609375 386.007812 690.234375 C 362.421875 690.234375 338.800781 690.234375 315.214844 690.234375 C 315.214844 683.796875 315.214844 677.363281 315.214844 670.925781 C 309.839844 670.925781 304.5 670.925781 299.125 670.925781 C 299.125 665.554688 299.125 660.210938 299.125 654.839844 C 304.5 654.839844 309.839844 654.839844 315.214844 654.839844 C 315.214844 648.402344 315.214844 641.964844 315.214844 635.53125 C 321.648438 635.53125 328.085938 635.53125 334.523438 635.53125 C 334.523438 641.964844 334.523438 648.402344 334.523438 654.839844 C 339.894531 654.839844 345.238281 654.839844 350.609375 654.839844 C 350.609375 648.402344 350.609375 641.964844 350.609375 635.53125 C 357.046875 635.53125 363.484375 635.53125 369.917969 635.53125 C 369.917969 641.964844 369.917969 648.402344 369.917969 654.839844 C 375.292969 654.839844 380.632812 654.839844 386.007812 654.839844 C 386.007812 648.402344 386.007812 641.964844 386.007812 635.53125 C 392.445312 635.53125 398.878906 635.53125 405.316406 635.53125 C 405.316406 641.964844 405.316406 648.402344 405.316406 654.839844 C 410.6875 654.839844 416.03125 654.839844 421.40625 654.839844 C 421.40625 648.402344 421.40625 641.964844 421.40625 635.53125 C 416.03125 635.53125 410.6875 635.53125 405.316406 635.53125 C 405.316406 630.15625 405.316406 624.816406 405.316406 619.441406 C 422.464844 619.441406 439.648438 619.441406 456.800781 619.441406 C 456.800781 624.816406 456.800781 630.15625 456.800781 635.53125 C 451.425781 635.53125 446.085938 635.53125 440.710938 635.53125 C 440.710938 641.964844 440.710938 648.402344 440.710938 654.839844 C 446.085938 654.839844 451.425781 654.839844 456.800781 654.839844 C 456.800781 648.402344 456.800781 641.964844 456.800781 635.53125 C 463.238281 635.53125 469.671875 635.53125 476.109375 635.53125 C 476.109375 641.964844 476.109375 648.402344 476.109375 654.839844 C 481.480469 654.839844 486.824219 654.839844 492.199219 654.839844 C 492.199219 648.402344 492.199219 641.964844 492.199219 635.53125 C 486.824219 635.53125 481.480469 635.53125 476.109375 635.53125 C 476.109375 630.15625 476.109375 624.816406 476.109375 619.441406 C 481.480469 619.441406 486.824219 619.441406 492.199219 619.441406 C 492.199219 613.003906 492.199219 606.570312 492.199219 600.132812 C 498.632812 600.132812 505.070312 600.132812 511.503906 600.132812 C 511.503906 606.570312 511.503906 613.003906 511.503906 619.441406 C 516.878906 619.441406 522.21875 619.441406 527.59375 619.441406 C 527.59375 613.003906 527.59375 606.570312 527.59375 600.132812 C 522.21875 600.132812 516.878906 600.132812 511.503906 600.132812 C 511.503906 594.761719 511.503906 589.417969 511.503906 584.042969 C 516.878906 584.042969 522.21875 584.042969 527.59375 584.042969 C 527.59375 577.609375 527.59375 571.171875 527.59375 564.738281 C 534.03125 564.738281 540.464844 564.738281 546.902344 564.738281 C 546.902344 571.171875 546.902344 577.609375 546.902344 584.042969 C 552.277344 584.042969 557.617188 584.042969 562.992188 584.042969 C 562.992188 589.417969 562.992188 594.761719 562.992188 600.132812 C 557.617188 600.132812 552.277344 600.132812 546.902344 600.132812 C 546.902344 606.570312 546.902344 613.003906 546.902344 619.441406 C 552.277344 619.441406 557.617188 619.441406 562.992188 619.441406 C 562.992188 613.003906 562.992188 606.570312 562.992188 600.132812 C 569.425781 600.132812 575.863281 600.132812 582.296875 600.132812 C 582.296875 606.570312 582.296875 613.003906 582.296875 619.441406 C 587.671875 619.441406 593.015625 619.441406 598.386719 619.441406 C 598.386719 624.816406 598.386719 630.15625 598.386719 635.53125 C 593.015625 635.53125 587.671875 635.53125 582.296875 635.53125 C 582.296875 641.964844 582.296875 648.402344 582.296875 654.839844 C 575.863281 654.839844 569.425781 654.839844 562.992188 654.839844 C 562.992188 648.402344 562.992188 641.964844 562.992188 635.53125 C 557.617188 635.53125 552.277344 635.53125 546.902344 635.53125 C 546.902344 641.964844 546.902344 648.402344 546.902344 654.839844 C 552.277344 654.839844 557.617188 654.839844 562.992188 654.839844 C 562.992188 660.210938 562.992188 665.554688 562.992188 670.925781 C 557.617188 670.925781 552.277344 670.925781 546.902344 670.925781 C 546.902344 677.363281 546.902344 683.796875 546.902344 690.234375 C 552.277344 690.234375 557.617188 690.234375 562.992188 690.234375 C 562.992188 683.796875 562.992188 677.363281 562.992188 670.925781 C 569.425781 670.925781 575.863281 670.925781 582.296875 670.925781 C 582.296875 677.363281 582.296875 683.796875 582.296875 690.234375 C 587.671875 690.234375 593.015625 690.234375 598.386719 690.234375 C 598.386719 683.796875 598.386719 677.363281 598.386719 670.925781 C 593.015625 670.925781 587.671875 670.925781 582.296875 670.925781 C 582.296875 665.554688 582.296875 660.210938 582.296875 654.839844 C 587.671875 654.839844 593.015625 654.839844 598.386719 654.839844 C 598.386719 648.402344 598.386719 641.964844 598.386719 635.53125 C 604.824219 635.53125 611.257812 635.53125 617.695312 635.53125 C 617.695312 641.964844 617.695312 648.402344 617.695312 654.839844 C 623.070312 654.839844 628.410156 654.839844 633.785156 654.839844 C 633.785156 660.210938 633.785156 665.554688 633.785156 670.925781 C 628.410156 670.925781 623.070312 670.925781 617.695312 670.925781 C 617.695312 677.363281 617.695312 683.796875 617.695312 690.234375 C 623.070312 690.234375 628.410156 690.234375 633.785156 690.234375 C 633.785156 683.796875 633.785156 677.363281 633.785156 670.925781 C 640.21875 670.925781 646.65625 670.925781 653.089844 670.925781 C 653.089844 677.363281 653.089844 683.796875 653.089844 690.234375 C 658.464844 690.234375 663.808594 690.234375 669.179688 690.234375 C 669.179688 695.609375 669.179688 700.949219 669.179688 706.324219 C 663.808594 706.324219 658.464844 706.324219 653.089844 706.324219 C 653.089844 712.757812 653.089844 719.195312 653.089844 725.632812 C 658.464844 725.632812 663.808594 725.632812 669.179688 725.632812 C 669.179688 719.195312 669.179688 712.757812 669.179688 706.324219 C 675.617188 706.324219 682.050781 706.324219 688.488281 706.324219 C 688.488281 712.757812 688.488281 719.195312 688.488281 725.632812 C 693.863281 725.632812 699.203125 725.632812 704.578125 725.632812 C 704.578125 731.003906 704.578125 736.347656 704.578125 741.71875 C 699.203125 741.71875 693.863281 741.71875 688.488281 741.71875 C 688.488281 748.15625 688.488281 754.59375 688.488281 761.027344 C 693.863281 761.027344 699.203125 761.027344 704.578125 761.027344 C 704.578125 754.59375 704.578125 748.15625 704.578125 741.71875 C 711.011719 741.71875 717.449219 741.71875 723.886719 741.71875 C 723.886719 748.15625 723.886719 754.59375 723.886719 761.027344 C 729.257812 761.027344 734.601562 761.027344 739.972656 761.027344 C 739.972656 754.59375 739.972656 748.15625 739.972656 741.71875 C 734.601562 741.71875 729.257812 741.71875 723.886719 741.71875 C 723.886719 736.347656 723.886719 731.003906 723.886719 725.632812 C 729.257812 725.632812 734.601562 725.632812 739.972656 725.632812 C 739.972656 719.195312 739.972656 712.757812 739.972656 706.324219 C 746.410156 706.324219 752.847656 706.324219 759.28125 706.324219 C 759.28125 712.757812 759.28125 719.195312 759.28125 725.632812 C 764.65625 725.632812 769.996094 725.632812 775.371094 725.632812 C 775.371094 731.003906 775.371094 736.347656 775.371094 741.71875 C 769.996094 741.71875 764.65625 741.71875 759.28125 741.71875 C 759.28125 748.15625 759.28125 754.59375 759.28125 761.027344 C 764.65625 761.027344 769.996094 761.027344 775.371094 761.027344 C 775.371094 754.59375 775.371094 748.15625 775.371094 741.71875 C 781.808594 741.71875 788.242188 741.71875 794.679688 741.71875 C 794.679688 736.347656 794.679688 731.003906 794.679688 725.632812 C 800.050781 725.632812 805.394531 725.632812 810.765625 725.632812 C 810.765625 719.195312 810.765625 712.757812 810.765625 706.324219 C 817.203125 706.324219 823.640625 706.324219 830.074219 706.324219 C 830.074219 712.757812 830.074219 719.195312 830.074219 725.632812 C 835.449219 725.632812 840.789062 725.632812 846.164062 725.632812 C 846.164062 719.195312 846.164062 712.757812 846.164062 706.324219 C 840.789062 706.324219 835.449219 706.324219 830.074219 706.324219 C 830.074219 700.949219 830.074219 695.609375 830.074219 690.234375 C 835.449219 690.234375 840.789062 690.234375 846.164062 690.234375 C 846.164062 683.796875 846.164062 677.363281 846.164062 670.925781 C 852.601562 670.925781 859.035156 670.925781 865.472656 670.925781 C 865.472656 677.363281 865.472656 683.796875 865.472656 690.234375 C 870.84375 690.234375 876.1875 690.234375 881.5625 690.234375 C 881.5625 683.796875 881.5625 677.363281 881.5625 670.925781 C 887.996094 670.925781 894.433594 670.925781 900.867188 670.925781 C 900.867188 677.363281 900.867188 683.796875 900.867188 690.234375 C 906.242188 690.234375 911.582031 690.234375 916.957031 690.234375 C 916.957031 683.796875 916.957031 677.363281 916.957031 670.925781 C 923.394531 670.925781 929.828125 670.925781 936.265625 670.925781 C 936.265625 677.363281 936.265625 683.796875 936.265625 690.234375 C 941.636719 690.234375 946.980469 690.234375 952.355469 690.234375 C 952.355469 683.796875 952.355469 677.363281 952.355469 670.925781 C 958.789062 670.925781 965.226562 670.925781 971.660156 670.925781 C 971.660156 677.363281 971.660156 683.796875 971.660156 690.234375 C 977.035156 690.234375 982.375 690.234375 987.75 690.234375 C 987.75 683.796875 987.75 677.363281 987.75 670.925781 C 994.1875 670.925781 1000.621094 670.925781 1007.058594 670.925781 C 1007.058594 665.554688 1007.058594 660.210938 1007.058594 654.839844 C 1012.433594 654.839844 1017.773438 654.839844 1023.148438 654.839844 C 1023.148438 660.210938 1023.148438 665.554688 1023.148438 670.925781 C 1029.582031 670.925781 1036.019531 670.925781 1042.453125 670.925781 C 1042.453125 665.554688 1042.453125 660.210938 1042.453125 654.839844 C 1047.828125 654.839844 1053.171875 654.839844 1058.542969 654.839844 C 1058.542969 660.210938 1058.542969 665.554688 1058.542969 670.925781 Z M 492.199219 670.925781 C 486.824219 670.925781 481.480469 670.925781 476.109375 670.925781 C 476.109375 677.363281 476.109375 683.796875 476.109375 690.234375 C 481.480469 690.234375 486.824219 690.234375 492.199219 690.234375 C 492.199219 683.796875 492.199219 677.363281 492.199219 670.925781 Z M 527.59375 635.53125 C 522.21875 635.53125 516.878906 635.53125 511.503906 635.53125 C 511.503906 641.964844 511.503906 648.402344 511.503906 654.839844 C 516.878906 654.839844 522.21875 654.839844 527.59375 654.839844 C 527.59375 648.402344 527.59375 641.964844 527.59375 635.53125 Z M 598.386719 706.324219 C 593.015625 706.324219 587.671875 706.324219 582.296875 706.324219 C 582.296875 712.757812 582.296875 719.195312 582.296875 725.632812 C 587.671875 725.632812 593.015625 725.632812 598.386719 725.632812 C 598.386719 719.195312 598.386719 712.757812 598.386719 706.324219 Z M 633.785156 741.71875 C 628.410156 741.71875 623.070312 741.71875 617.695312 741.71875 C 617.695312 748.15625 617.695312 754.59375 617.695312 761.027344 C 623.070312 761.027344 628.410156 761.027344 633.785156 761.027344 C 633.785156 754.59375 633.785156 748.15625 633.785156 741.71875 Z M 633.785156 706.324219 C 628.410156 706.324219 623.070312 706.324219 617.695312 706.324219 C 617.695312 712.757812 617.695312 719.195312 617.695312 725.632812 C 623.070312 725.632812 628.410156 725.632812 633.785156 725.632812 C 633.785156 719.195312 633.785156 712.757812 633.785156 706.324219 Z M 669.179688 777.117188 C 663.808594 777.117188 658.464844 777.117188 653.089844 777.117188 C 653.089844 783.554688 653.089844 789.988281 653.089844 796.425781 C 658.464844 796.425781 663.808594 796.425781 669.179688 796.425781 C 669.179688 789.988281 669.179688 783.554688 669.179688 777.117188 Z M 704.578125 883.308594 C 699.203125 883.308594 693.863281 883.308594 688.488281 883.308594 C 688.488281 889.742188 688.488281 896.179688 688.488281 902.613281 C 693.863281 902.613281 699.203125 902.613281 704.578125 902.613281 C 704.578125 896.179688 704.578125 889.742188 704.578125 883.308594 Z M 704.578125 812.515625 C 699.203125 812.515625 693.863281 812.515625 688.488281 812.515625 C 688.488281 818.949219 688.488281 825.386719 688.488281 831.820312 C 693.863281 831.820312 699.203125 831.820312 704.578125 831.820312 C 704.578125 825.386719 704.578125 818.949219 704.578125 812.515625 Z M 704.578125 777.117188 C 699.203125 777.117188 693.863281 777.117188 688.488281 777.117188 C 688.488281 783.554688 688.488281 789.988281 688.488281 796.425781 C 693.863281 796.425781 699.203125 796.425781 704.578125 796.425781 C 704.578125 789.988281 704.578125 783.554688 704.578125 777.117188 Z M 739.972656 883.308594 C 734.601562 883.308594 729.257812 883.308594 723.886719 883.308594 C 723.886719 889.742188 723.886719 896.179688 723.886719 902.613281 C 729.257812 902.613281 734.601562 902.613281 739.972656 902.613281 C 739.972656 896.179688 739.972656 889.742188 739.972656 883.308594 Z M 739.972656 847.910156 C 734.601562 847.910156 729.257812 847.910156 723.886719 847.910156 C 723.886719 854.347656 723.886719 860.78125 723.886719 867.21875 C 729.257812 867.21875 734.601562 867.21875 739.972656 867.21875 C 739.972656 860.78125 739.972656 854.347656 739.972656 847.910156 Z M 739.972656 812.515625 C 734.601562 812.515625 729.257812 812.515625 723.886719 812.515625 C 723.886719 818.949219 723.886719 825.386719 723.886719 831.820312 C 729.257812 831.820312 734.601562 831.820312 739.972656 831.820312 C 739.972656 825.386719 739.972656 818.949219 739.972656 812.515625 Z M 739.972656 777.117188 C 734.601562 777.117188 729.257812 777.117188 723.886719 777.117188 C 723.886719 783.554688 723.886719 789.988281 723.886719 796.425781 C 729.257812 796.425781 734.601562 796.425781 739.972656 796.425781 C 739.972656 789.988281 739.972656 783.554688 739.972656 777.117188 Z M 775.371094 812.515625 C 769.996094 812.515625 764.65625 812.515625 759.28125 812.515625 C 759.28125 818.949219 759.28125 825.386719 759.28125 831.820312 C 764.65625 831.820312 769.996094 831.820312 775.371094 831.820312 C 775.371094 825.386719 775.371094 818.949219 775.371094 812.515625 Z M 775.371094 777.117188 C 769.996094 777.117188 764.65625 777.117188 759.28125 777.117188 C 759.28125 783.554688 759.28125 789.988281 759.28125 796.425781 C 764.65625 796.425781 769.996094 796.425781 775.371094 796.425781 C 775.371094 789.988281 775.371094 783.554688 775.371094 777.117188 Z M 881.5625 706.324219 C 876.1875 706.324219 870.84375 706.324219 865.472656 706.324219 C 865.472656 712.757812 865.472656 719.195312 865.472656 725.632812 C 870.84375 725.632812 876.1875 725.632812 881.5625 725.632812 C 881.5625 719.195312 881.5625 712.757812 881.5625 706.324219 Z M 617.695312 584.042969 C 617.695312 577.609375 617.695312 571.171875 617.695312 564.738281 C 611.257812 564.738281 604.824219 564.738281 598.386719 564.738281 C 598.386719 571.171875 598.386719 577.609375 598.386719 584.042969 C 604.824219 584.042969 611.257812 584.042969 617.695312 584.042969 Z M 688.488281 584.042969 C 688.488281 577.609375 688.488281 571.171875 688.488281 564.738281 C 682.050781 564.738281 675.617188 564.738281 669.179688 564.738281 C 669.179688 571.171875 669.179688 577.609375 669.179688 584.042969 C 675.617188 584.042969 682.050781 584.042969 688.488281 584.042969 Z M 704.578125 584.042969 C 711.011719 584.042969 717.449219 584.042969 723.886719 584.042969 C 723.886719 577.609375 723.886719 571.171875 723.886719 564.738281 C 717.449219 564.738281 711.011719 564.738281 704.578125 564.738281 C 704.578125 571.171875 704.578125 577.609375 704.578125 584.042969 Z M 794.679688 584.042969 C 794.679688 577.609375 794.679688 571.171875 794.679688 564.738281 C 788.242188 564.738281 781.808594 564.738281 775.371094 564.738281 C 775.371094 571.171875 775.371094 577.609375 775.371094 584.042969 C 781.808594 584.042969 788.242188 584.042969 794.679688 584.042969 Z M 830.074219 584.042969 C 830.074219 577.609375 830.074219 571.171875 830.074219 564.738281 C 823.640625 564.738281 817.203125 564.738281 810.765625 564.738281 C 810.765625 571.171875 810.765625 577.609375 810.765625 584.042969 C 817.203125 584.042969 823.640625 584.042969 830.074219 584.042969 Z M 492.199219 584.042969 C 486.824219 584.042969 481.480469 584.042969 476.109375 584.042969 C 476.109375 589.417969 476.109375 594.761719 476.109375 600.132812 C 481.480469 600.132812 486.824219 600.132812 492.199219 600.132812 C 492.199219 594.761719 492.199219 589.417969 492.199219 584.042969 Z M 598.386719 584.042969 C 593.015625 584.042969 587.671875 584.042969 582.296875 584.042969 C 582.296875 589.417969 582.296875 594.761719 582.296875 600.132812 C 587.671875 600.132812 593.015625 600.132812 598.386719 600.132812 C 598.386719 594.761719 598.386719 589.417969 598.386719 584.042969 Z M 617.695312 584.042969 C 617.695312 589.417969 617.695312 594.761719 617.695312 600.132812 C 623.070312 600.132812 628.410156 600.132812 633.785156 600.132812 C 633.785156 594.761719 633.785156 589.417969 633.785156 584.042969 C 628.410156 584.042969 623.070312 584.042969 617.695312 584.042969 Z M 669.179688 584.042969 C 663.808594 584.042969 658.464844 584.042969 653.089844 584.042969 C 653.089844 589.417969 653.089844 594.761719 653.089844 600.132812 C 658.464844 600.132812 663.808594 600.132812 669.179688 600.132812 C 669.179688 594.761719 669.179688 589.417969 669.179688 584.042969 Z M 688.488281 600.132812 C 693.863281 600.132812 699.203125 600.132812 704.578125 600.132812 C 704.578125 594.761719 704.578125 589.417969 704.578125 584.042969 C 699.203125 584.042969 693.863281 584.042969 688.488281 584.042969 C 688.488281 589.417969 688.488281 594.761719 688.488281 600.132812 Z M 759.28125 600.132812 C 764.65625 600.132812 769.996094 600.132812 775.371094 600.132812 C 775.371094 594.761719 775.371094 589.417969 775.371094 584.042969 C 769.996094 584.042969 764.65625 584.042969 759.28125 584.042969 C 759.28125 589.417969 759.28125 594.761719 759.28125 600.132812 Z M 794.679688 584.042969 C 794.679688 589.417969 794.679688 594.761719 794.679688 600.132812 C 800.050781 600.132812 805.394531 600.132812 810.765625 600.132812 C 810.765625 594.761719 810.765625 589.417969 810.765625 584.042969 C 805.394531 584.042969 800.050781 584.042969 794.679688 584.042969 Z M 830.074219 600.132812 C 835.449219 600.132812 840.789062 600.132812 846.164062 600.132812 C 846.164062 594.761719 846.164062 589.417969 846.164062 584.042969 C 840.789062 584.042969 835.449219 584.042969 830.074219 584.042969 C 830.074219 589.417969 830.074219 594.761719 830.074219 600.132812 Z M 881.5625 600.132812 C 881.5625 594.761719 881.5625 589.417969 881.5625 584.042969 C 876.1875 584.042969 870.84375 584.042969 865.472656 584.042969 C 865.472656 589.417969 865.472656 594.761719 865.472656 600.132812 C 870.84375 600.132812 876.1875 600.132812 881.5625 600.132812 Z M 916.957031 584.042969 C 911.582031 584.042969 906.242188 584.042969 900.867188 584.042969 C 900.867188 589.417969 900.867188 594.761719 900.867188 600.132812 C 906.242188 600.132812 911.582031 600.132812 916.957031 600.132812 C 916.957031 594.761719 916.957031 589.417969 916.957031 584.042969 Z M 476.109375 600.132812 C 469.671875 600.132812 463.238281 600.132812 456.800781 600.132812 C 456.800781 606.570312 456.800781 613.003906 456.800781 619.441406 C 463.238281 619.441406 469.671875 619.441406 476.109375 619.441406 C 476.109375 613.003906 476.109375 606.570312 476.109375 600.132812 Z M 617.695312 600.132812 C 611.257812 600.132812 604.824219 600.132812 598.386719 600.132812 C 598.386719 606.570312 598.386719 613.003906 598.386719 619.441406 C 604.824219 619.441406 611.257812 619.441406 617.695312 619.441406 C 617.695312 613.003906 617.695312 606.570312 617.695312 600.132812 Z M 653.089844 635.53125 C 658.464844 635.53125 663.808594 635.53125 669.179688 635.53125 C 669.179688 630.15625 669.179688 624.816406 669.179688 619.441406 C 663.808594 619.441406 658.464844 619.441406 653.089844 619.441406 C 653.089844 613.003906 653.089844 606.570312 653.089844 600.132812 C 646.65625 600.132812 640.21875 600.132812 633.785156 600.132812 C 633.785156 606.570312 633.785156 613.003906 633.785156 619.441406 C 628.410156 619.441406 623.070312 619.441406 617.695312 619.441406 C 617.695312 624.816406 617.695312 630.15625 617.695312 635.53125 C 623.070312 635.53125 628.410156 635.53125 633.785156 635.53125 C 633.785156 641.964844 633.785156 648.402344 633.785156 654.839844 C 640.21875 654.839844 646.65625 654.839844 653.089844 654.839844 C 653.089844 648.402344 653.089844 641.964844 653.089844 635.53125 Z M 688.488281 600.132812 C 682.050781 600.132812 675.617188 600.132812 669.179688 600.132812 C 669.179688 606.570312 669.179688 613.003906 669.179688 619.441406 C 675.617188 619.441406 682.050781 619.441406 688.488281 619.441406 C 688.488281 613.003906 688.488281 606.570312 688.488281 600.132812 Z M 810.765625 619.441406 C 817.203125 619.441406 823.640625 619.441406 830.074219 619.441406 C 830.074219 613.003906 830.074219 606.570312 830.074219 600.132812 C 823.640625 600.132812 817.203125 600.132812 810.765625 600.132812 C 810.765625 606.570312 810.765625 613.003906 810.765625 619.441406 Z M 900.867188 619.441406 C 900.867188 613.003906 900.867188 606.570312 900.867188 600.132812 C 894.433594 600.132812 887.996094 600.132812 881.5625 600.132812 C 881.5625 606.570312 881.5625 613.003906 881.5625 619.441406 C 887.996094 619.441406 894.433594 619.441406 900.867188 619.441406 Z M 386.007812 619.441406 C 380.632812 619.441406 375.292969 619.441406 369.917969 619.441406 C 369.917969 624.816406 369.917969 630.15625 369.917969 635.53125 C 375.292969 635.53125 380.632812 635.53125 386.007812 635.53125 C 386.007812 630.15625 386.007812 624.816406 386.007812 619.441406 Z M 704.578125 635.53125 C 704.578125 630.15625 704.578125 624.816406 704.578125 619.441406 C 699.203125 619.441406 693.863281 619.441406 688.488281 619.441406 C 688.488281 624.816406 688.488281 630.15625 688.488281 635.53125 C 693.863281 635.53125 699.203125 635.53125 704.578125 635.53125 Z M 739.972656 619.441406 C 734.601562 619.441406 729.257812 619.441406 723.886719 619.441406 C 723.886719 624.816406 723.886719 630.15625 723.886719 635.53125 C 729.257812 635.53125 734.601562 635.53125 739.972656 635.53125 C 739.972656 630.15625 739.972656 624.816406 739.972656 619.441406 Z M 775.371094 619.441406 C 769.996094 619.441406 764.65625 619.441406 759.28125 619.441406 C 759.28125 624.816406 759.28125 630.15625 759.28125 635.53125 C 764.65625 635.53125 769.996094 635.53125 775.371094 635.53125 C 775.371094 630.15625 775.371094 624.816406 775.371094 619.441406 Z M 810.765625 619.441406 C 805.394531 619.441406 800.050781 619.441406 794.679688 619.441406 C 794.679688 624.816406 794.679688 630.15625 794.679688 635.53125 C 800.050781 635.53125 805.394531 635.53125 810.765625 635.53125 C 810.765625 630.15625 810.765625 624.816406 810.765625 619.441406 Z M 846.164062 635.53125 C 846.164062 630.15625 846.164062 624.816406 846.164062 619.441406 C 840.789062 619.441406 835.449219 619.441406 830.074219 619.441406 C 830.074219 624.816406 830.074219 630.15625 830.074219 635.53125 C 835.449219 635.53125 840.789062 635.53125 846.164062 635.53125 Z M 881.5625 619.441406 C 876.1875 619.441406 870.84375 619.441406 865.472656 619.441406 C 865.472656 624.816406 865.472656 630.15625 865.472656 635.53125 C 870.84375 635.53125 876.1875 635.53125 881.5625 635.53125 C 881.5625 630.15625 881.5625 624.816406 881.5625 619.441406 Z M 916.957031 635.53125 C 916.957031 630.15625 916.957031 624.816406 916.957031 619.441406 C 911.582031 619.441406 906.242188 619.441406 900.867188 619.441406 C 900.867188 624.816406 900.867188 630.15625 900.867188 635.53125 C 906.242188 635.53125 911.582031 635.53125 916.957031 635.53125 Z M 952.355469 619.441406 C 946.980469 619.441406 941.636719 619.441406 936.265625 619.441406 C 936.265625 624.816406 936.265625 630.15625 936.265625 635.53125 C 941.636719 635.53125 946.980469 635.53125 952.355469 635.53125 C 952.355469 630.15625 952.355469 624.816406 952.355469 619.441406 Z M 987.75 619.441406 C 982.375 619.441406 977.035156 619.441406 971.660156 619.441406 C 971.660156 624.816406 971.660156 630.15625 971.660156 635.53125 C 977.035156 635.53125 982.375 635.53125 987.75 635.53125 C 987.75 630.15625 987.75 624.816406 987.75 619.441406 Z M 1023.148438 619.441406 C 1017.773438 619.441406 1012.433594 619.441406 1007.058594 619.441406 C 1007.058594 624.816406 1007.058594 630.15625 1007.058594 635.53125 C 1012.433594 635.53125 1017.773438 635.53125 1023.148438 635.53125 C 1023.148438 630.15625 1023.148438 624.816406 1023.148438 619.441406 Z M 279.816406 635.53125 C 279.816406 641.964844 279.816406 648.402344 279.816406 654.839844 C 286.253906 654.839844 292.6875 654.839844 299.125 654.839844 C 299.125 648.402344 299.125 641.964844 299.125 635.53125 C 292.6875 635.53125 286.253906 635.53125 279.816406 635.53125 Z M 688.488281 635.53125 C 682.050781 635.53125 675.617188 635.53125 669.179688 635.53125 C 669.179688 641.964844 669.179688 648.402344 669.179688 654.839844 C 675.617188 654.839844 682.050781 654.839844 688.488281 654.839844 C 688.488281 648.402344 688.488281 641.964844 688.488281 635.53125 Z M 723.886719 654.839844 C 723.886719 648.402344 723.886719 641.964844 723.886719 635.53125 C 717.449219 635.53125 711.011719 635.53125 704.578125 635.53125 C 704.578125 641.964844 704.578125 648.402344 704.578125 654.839844 C 711.011719 654.839844 717.449219 654.839844 723.886719 654.839844 Z M 759.28125 654.839844 C 759.28125 648.402344 759.28125 641.964844 759.28125 635.53125 C 752.847656 635.53125 746.410156 635.53125 739.972656 635.53125 C 739.972656 641.964844 739.972656 648.402344 739.972656 654.839844 C 746.410156 654.839844 752.847656 654.839844 759.28125 654.839844 Z M 794.679688 654.839844 C 794.679688 648.402344 794.679688 641.964844 794.679688 635.53125 C 788.242188 635.53125 781.808594 635.53125 775.371094 635.53125 C 775.371094 641.964844 775.371094 648.402344 775.371094 654.839844 C 781.808594 654.839844 788.242188 654.839844 794.679688 654.839844 Z M 810.765625 635.53125 C 810.765625 641.964844 810.765625 648.402344 810.765625 654.839844 C 817.203125 654.839844 823.640625 654.839844 830.074219 654.839844 C 830.074219 648.402344 830.074219 641.964844 830.074219 635.53125 C 823.640625 635.53125 817.203125 635.53125 810.765625 635.53125 Z M 865.472656 654.839844 C 865.472656 648.402344 865.472656 641.964844 865.472656 635.53125 C 859.035156 635.53125 852.601562 635.53125 846.164062 635.53125 C 846.164062 641.964844 846.164062 648.402344 846.164062 654.839844 C 852.601562 654.839844 859.035156 654.839844 865.472656 654.839844 Z M 900.867188 654.839844 C 900.867188 648.402344 900.867188 641.964844 900.867188 635.53125 C 894.433594 635.53125 887.996094 635.53125 881.5625 635.53125 C 881.5625 641.964844 881.5625 648.402344 881.5625 654.839844 C 887.996094 654.839844 894.433594 654.839844 900.867188 654.839844 Z M 936.265625 654.839844 C 936.265625 648.402344 936.265625 641.964844 936.265625 635.53125 C 929.828125 635.53125 923.394531 635.53125 916.957031 635.53125 C 916.957031 641.964844 916.957031 648.402344 916.957031 654.839844 C 923.394531 654.839844 929.828125 654.839844 936.265625 654.839844 Z M 971.660156 654.839844 C 971.660156 648.402344 971.660156 641.964844 971.660156 635.53125 C 965.226562 635.53125 958.789062 635.53125 952.355469 635.53125 C 952.355469 641.964844 952.355469 648.402344 952.355469 654.839844 C 958.789062 654.839844 965.226562 654.839844 971.660156 654.839844 Z M 1007.058594 654.839844 C 1007.058594 648.402344 1007.058594 641.964844 1007.058594 635.53125 C 1000.621094 635.53125 994.1875 635.53125 987.75 635.53125 C 987.75 641.964844 987.75 648.402344 987.75 654.839844 C 994.1875 654.839844 1000.621094 654.839844 1007.058594 654.839844 Z M 1042.453125 654.839844 C 1042.453125 648.402344 1042.453125 641.964844 1042.453125 635.53125 C 1036.019531 635.53125 1029.582031 635.53125 1023.148438 635.53125 C 1023.148438 641.964844 1023.148438 648.402344 1023.148438 654.839844 C 1029.582031 654.839844 1036.019531 654.839844 1042.453125 654.839844 Z M 1077.851562 635.53125 C 1071.414062 635.53125 1064.980469 635.53125 1058.542969 635.53125 C 1058.542969 641.964844 1058.542969 648.402344 1058.542969 654.839844 C 1064.980469 654.839844 1071.414062 654.839844 1077.851562 654.839844 C 1077.851562 648.402344 1077.851562 641.964844 1077.851562 635.53125 Z M 1093.941406 635.53125 C 1093.941406 641.964844 1093.941406 648.402344 1093.941406 654.839844 C 1100.375 654.839844 1106.8125 654.839844 1113.246094 654.839844 C 1113.246094 648.402344 1113.246094 641.964844 1113.246094 635.53125 C 1106.8125 635.53125 1100.375 635.53125 1093.941406 635.53125 Z M 86.746094 670.925781 C 151.101562 670.925781 215.460938 670.925781 279.816406 670.925781 C 279.816406 665.554688 279.816406 660.210938 279.816406 654.839844 C 215.460938 654.839844 151.101562 654.839844 86.746094 654.839844 C 86.746094 660.210938 86.746094 665.554688 86.746094 670.925781 Z M 669.179688 654.839844 C 663.808594 654.839844 658.464844 654.839844 653.089844 654.839844 C 653.089844 660.210938 653.089844 665.554688 653.089844 670.925781 C 658.464844 670.925781 663.808594 670.925781 669.179688 670.925781 C 669.179688 665.554688 669.179688 660.210938 669.179688 654.839844 Z M 688.488281 654.839844 C 688.488281 660.210938 688.488281 665.554688 688.488281 670.925781 C 693.863281 670.925781 699.203125 670.925781 704.578125 670.925781 C 704.578125 665.554688 704.578125 660.210938 704.578125 654.839844 C 699.203125 654.839844 693.863281 654.839844 688.488281 654.839844 Z M 739.972656 654.839844 C 734.601562 654.839844 729.257812 654.839844 723.886719 654.839844 C 723.886719 660.210938 723.886719 665.554688 723.886719 670.925781 C 729.257812 670.925781 734.601562 670.925781 739.972656 670.925781 C 739.972656 665.554688 739.972656 660.210938 739.972656 654.839844 Z M 759.28125 654.839844 C 759.28125 660.210938 759.28125 665.554688 759.28125 670.925781 C 764.65625 670.925781 769.996094 670.925781 775.371094 670.925781 C 775.371094 665.554688 775.371094 660.210938 775.371094 654.839844 C 769.996094 654.839844 764.65625 654.839844 759.28125 654.839844 Z M 794.679688 654.839844 C 794.679688 660.210938 794.679688 665.554688 794.679688 670.925781 C 800.050781 670.925781 805.394531 670.925781 810.765625 670.925781 C 810.765625 665.554688 810.765625 660.210938 810.765625 654.839844 C 805.394531 654.839844 800.050781 654.839844 794.679688 654.839844 Z M 830.074219 654.839844 C 830.074219 660.210938 830.074219 665.554688 830.074219 670.925781 C 835.449219 670.925781 840.789062 670.925781 846.164062 670.925781 C 846.164062 665.554688 846.164062 660.210938 846.164062 654.839844 C 840.789062 654.839844 835.449219 654.839844 830.074219 654.839844 Z M 865.472656 654.839844 C 865.472656 660.210938 865.472656 665.554688 865.472656 670.925781 C 870.84375 670.925781 876.1875 670.925781 881.5625 670.925781 C 881.5625 665.554688 881.5625 660.210938 881.5625 654.839844 C 876.1875 654.839844 870.84375 654.839844 865.472656 654.839844 Z M 900.867188 654.839844 C 900.867188 660.210938 900.867188 665.554688 900.867188 670.925781 C 906.242188 670.925781 911.582031 670.925781 916.957031 670.925781 C 916.957031 665.554688 916.957031 660.210938 916.957031 654.839844 C 911.582031 654.839844 906.242188 654.839844 900.867188 654.839844 Z M 936.265625 654.839844 C 936.265625 660.210938 936.265625 665.554688 936.265625 670.925781 C 941.636719 670.925781 946.980469 670.925781 952.355469 670.925781 C 952.355469 665.554688 952.355469 660.210938 952.355469 654.839844 C 946.980469 654.839844 941.636719 654.839844 936.265625 654.839844 Z M 971.660156 654.839844 C 971.660156 660.210938 971.660156 665.554688 971.660156 670.925781 C 977.035156 670.925781 982.375 670.925781 987.75 670.925781 C 987.75 665.554688 987.75 660.210938 987.75 654.839844 C 982.375 654.839844 977.035156 654.839844 971.660156 654.839844 Z M 1077.851562 670.925781 C 1083.226562 670.925781 1088.566406 670.925781 1093.941406 670.925781 C 1093.941406 665.554688 1093.941406 660.210938 1093.941406 654.839844 C 1088.566406 654.839844 1083.226562 654.839844 1077.851562 654.839844 C 1077.851562 660.210938 1077.851562 665.554688 1077.851562 670.925781 Z M 1113.246094 670.925781 C 1118.621094 670.925781 1123.964844 670.925781 1129.335938 670.925781 C 1129.335938 665.554688 1129.335938 660.210938 1129.335938 654.839844 C 1123.964844 654.839844 1118.621094 654.839844 1113.246094 654.839844 C 1113.246094 660.210938 1113.246094 665.554688 1113.246094 670.925781 Z M 1148.644531 670.925781 C 1165.796875 670.925781 1182.980469 670.925781 1200.128906 670.925781 C 1200.128906 665.554688 1200.128906 660.210938 1200.128906 654.839844 C 1182.980469 654.839844 1165.796875 654.839844 1148.644531 654.839844 C 1148.644531 660.210938 1148.644531 665.554688 1148.644531 670.925781 Z M 1219.4375 670.925781 C 1248.398438 670.925781 1277.359375 670.925781 1306.320312 670.925781 C 1306.320312 665.554688 1306.320312 660.210938 1306.320312 654.839844 C 1277.359375 654.839844 1248.398438 654.839844 1219.4375 654.839844 C 1219.4375 660.210938 1219.4375 665.554688 1219.4375 670.925781 Z M 688.488281 670.925781 C 682.050781 670.925781 675.617188 670.925781 669.179688 670.925781 C 669.179688 677.363281 669.179688 683.796875 669.179688 690.234375 C 675.617188 690.234375 682.050781 690.234375 688.488281 690.234375 C 688.488281 683.796875 688.488281 677.363281 688.488281 670.925781 Z M 723.886719 690.234375 C 723.886719 683.796875 723.886719 677.363281 723.886719 670.925781 C 717.449219 670.925781 711.011719 670.925781 704.578125 670.925781 C 704.578125 677.363281 704.578125 683.796875 704.578125 690.234375 C 699.203125 690.234375 693.863281 690.234375 688.488281 690.234375 C 688.488281 695.609375 688.488281 700.949219 688.488281 706.324219 C 693.863281 706.324219 699.203125 706.324219 704.578125 706.324219 C 704.578125 712.757812 704.578125 719.195312 704.578125 725.632812 C 711.011719 725.632812 717.449219 725.632812 723.886719 725.632812 C 723.886719 719.195312 723.886719 712.757812 723.886719 706.324219 C 729.257812 706.324219 734.601562 706.324219 739.972656 706.324219 C 739.972656 700.949219 739.972656 695.609375 739.972656 690.234375 C 734.601562 690.234375 729.257812 690.234375 723.886719 690.234375 Z M 739.972656 670.925781 C 739.972656 677.363281 739.972656 683.796875 739.972656 690.234375 C 746.410156 690.234375 752.847656 690.234375 759.28125 690.234375 C 759.28125 683.796875 759.28125 677.363281 759.28125 670.925781 C 752.847656 670.925781 746.410156 670.925781 739.972656 670.925781 Z M 794.679688 690.234375 C 794.679688 683.796875 794.679688 677.363281 794.679688 670.925781 C 788.242188 670.925781 781.808594 670.925781 775.371094 670.925781 C 775.371094 677.363281 775.371094 683.796875 775.371094 690.234375 C 769.996094 690.234375 764.65625 690.234375 759.28125 690.234375 C 759.28125 695.609375 759.28125 700.949219 759.28125 706.324219 C 764.65625 706.324219 769.996094 706.324219 775.371094 706.324219 C 775.371094 712.757812 775.371094 719.195312 775.371094 725.632812 C 781.808594 725.632812 788.242188 725.632812 794.679688 725.632812 C 794.679688 719.195312 794.679688 712.757812 794.679688 706.324219 C 800.050781 706.324219 805.394531 706.324219 810.765625 706.324219 C 810.765625 700.949219 810.765625 695.609375 810.765625 690.234375 C 805.394531 690.234375 800.050781 690.234375 794.679688 690.234375 Z M 810.765625 670.925781 C 810.765625 677.363281 810.765625 683.796875 810.765625 690.234375 C 817.203125 690.234375 823.640625 690.234375 830.074219 690.234375 C 830.074219 683.796875 830.074219 677.363281 830.074219 670.925781 C 823.640625 670.925781 817.203125 670.925781 810.765625 670.925781 Z M 739.972656 954.101562 C 739.972656 948.726562 739.972656 943.386719 739.972656 938.011719 C 734.601562 938.011719 729.257812 938.011719 723.886719 938.011719 C 723.886719 943.386719 723.886719 948.726562 723.886719 954.101562 C 729.257812 954.101562 734.601562 954.101562 739.972656 954.101562 Z M 1140.601562 0 C 1140.601562 11.808594 1140.601562 23.585938 1140.601562 35.398438 C 1145.972656 35.398438 1151.316406 35.398438 1156.6875 35.398438 C 1156.6875 23.585938 1156.6875 11.808594 1156.6875 0 C 1151.316406 0 1145.972656 0 1140.601562 0 Z M 688.488281 1044.199219 C 688.488281 1049.574219 688.488281 1054.917969 688.488281 1060.289062 C 693.863281 1060.289062 699.203125 1060.289062 704.578125 1060.289062 C 704.578125 1066.726562 704.578125 1073.160156 704.578125 1079.597656 C 711.011719 1079.597656 717.449219 1079.597656 723.886719 1079.597656 C 723.886719 1061.351562 723.886719 1043.140625 723.886719 1024.894531 C 717.449219 1024.894531 711.011719 1024.894531 704.578125 1024.894531 C 704.578125 1031.328125 704.578125 1037.765625 704.578125 1044.199219 C 699.203125 1044.199219 693.863281 1044.199219 688.488281 1044.199219 Z M 1175.996094 35.398438 C 1169.5625 35.398438 1163.125 35.398438 1156.6875 35.398438 C 1156.6875 41.832031 1156.6875 48.269531 1156.6875 54.703125 C 1163.125 54.703125 1169.5625 54.703125 1175.996094 54.703125 C 1175.996094 48.269531 1175.996094 41.832031 1175.996094 35.398438 Z M 1140.601562 54.703125 C 1140.601562 60.078125 1140.601562 65.417969 1140.601562 70.792969 C 1145.972656 70.792969 1151.316406 70.792969 1156.6875 70.792969 C 1156.6875 65.417969 1156.6875 60.078125 1156.6875 54.703125 C 1151.316406 54.703125 1145.972656 54.703125 1140.601562 54.703125 Z M 1175.996094 70.792969 C 1169.5625 70.792969 1163.125 70.792969 1156.6875 70.792969 C 1156.6875 77.230469 1156.6875 83.664062 1156.6875 90.101562 C 1163.125 90.101562 1169.5625 90.101562 1175.996094 90.101562 C 1175.996094 83.664062 1175.996094 77.230469 1175.996094 70.792969 Z M 688.488281 1095.6875 C 693.863281 1095.6875 699.203125 1095.6875 704.578125 1095.6875 C 704.578125 1090.3125 704.578125 1084.972656 704.578125 1079.597656 C 699.203125 1079.597656 693.863281 1079.597656 688.488281 1079.597656 C 688.488281 1084.972656 688.488281 1090.3125 688.488281 1095.6875 Z M 1121.292969 160.894531 C 1127.726562 160.894531 1134.164062 160.894531 1140.601562 160.894531 C 1140.601562 154.457031 1140.601562 148.023438 1140.601562 141.585938 C 1145.972656 141.585938 1151.316406 141.585938 1156.6875 141.585938 C 1156.6875 136.210938 1156.6875 130.871094 1156.6875 125.496094 C 1151.316406 125.496094 1145.972656 125.496094 1140.601562 125.496094 C 1140.601562 119.0625 1140.601562 112.625 1140.601562 106.191406 C 1145.972656 106.191406 1151.316406 106.191406 1156.6875 106.191406 C 1156.6875 100.816406 1156.6875 95.472656 1156.6875 90.101562 C 1144.878906 90.101562 1133.101562 90.101562 1121.292969 90.101562 C 1121.292969 101.910156 1121.292969 113.6875 1121.292969 125.496094 C 1115.917969 125.496094 1110.578125 125.496094 1105.203125 125.496094 C 1105.203125 130.871094 1105.203125 136.210938 1105.203125 141.585938 C 1110.578125 141.585938 1115.917969 141.585938 1121.292969 141.585938 C 1121.292969 148.023438 1121.292969 154.457031 1121.292969 160.894531 Z M 688.488281 1131.082031 C 693.863281 1131.082031 699.203125 1131.082031 704.578125 1131.082031 C 704.578125 1125.710938 704.578125 1120.367188 704.578125 1114.996094 C 699.203125 1114.996094 693.863281 1114.996094 688.488281 1114.996094 C 688.488281 1120.367188 688.488281 1125.710938 688.488281 1131.082031 Z M 1175.996094 125.496094 C 1175.996094 130.871094 1175.996094 136.210938 1175.996094 141.585938 C 1181.371094 141.585938 1186.710938 141.585938 1192.085938 141.585938 C 1192.085938 136.210938 1192.085938 130.871094 1192.085938 125.496094 C 1186.710938 125.496094 1181.371094 125.496094 1175.996094 125.496094 Z M 1246.789062 212.378906 C 1240.355469 212.378906 1233.917969 212.378906 1227.484375 212.378906 C 1227.484375 218.816406 1227.484375 225.25 1227.484375 231.6875 C 1222.109375 231.6875 1216.765625 231.6875 1211.394531 231.6875 C 1211.394531 225.25 1211.394531 218.816406 1211.394531 212.378906 C 1204.957031 212.378906 1198.523438 212.378906 1192.085938 212.378906 C 1192.085938 218.816406 1192.085938 225.25 1192.085938 231.6875 C 1186.710938 231.6875 1181.371094 231.6875 1175.996094 231.6875 C 1175.996094 237.0625 1175.996094 242.402344 1175.996094 247.777344 C 1181.371094 247.777344 1186.710938 247.777344 1192.085938 247.777344 C 1192.085938 254.210938 1192.085938 260.648438 1192.085938 267.082031 C 1186.710938 267.082031 1181.371094 267.082031 1175.996094 267.082031 C 1175.996094 260.648438 1175.996094 254.210938 1175.996094 247.777344 C 1169.5625 247.777344 1163.125 247.777344 1156.6875 247.777344 C 1156.6875 254.210938 1156.6875 260.648438 1156.6875 267.082031 C 1151.316406 267.082031 1145.972656 267.082031 1140.601562 267.082031 C 1140.601562 260.648438 1140.601562 254.210938 1140.601562 247.777344 C 1145.972656 247.777344 1151.316406 247.777344 1156.6875 247.777344 C 1156.6875 242.402344 1156.6875 237.0625 1156.6875 231.6875 C 1151.316406 231.6875 1145.972656 231.6875 1140.601562 231.6875 C 1140.601562 225.25 1140.601562 218.816406 1140.601562 212.378906 C 1134.164062 212.378906 1127.726562 212.378906 1121.292969 212.378906 C 1121.292969 218.816406 1121.292969 225.25 1121.292969 231.6875 C 1115.917969 231.6875 1110.578125 231.6875 1105.203125 231.6875 C 1105.203125 225.25 1105.203125 218.816406 1105.203125 212.378906 C 1110.578125 212.378906 1115.917969 212.378906 1121.292969 212.378906 C 1121.292969 207.007812 1121.292969 201.664062 1121.292969 196.289062 C 1115.917969 196.289062 1110.578125 196.289062 1105.203125 196.289062 C 1105.203125 189.855469 1105.203125 183.417969 1105.203125 176.984375 C 1110.578125 176.984375 1115.917969 176.984375 1121.292969 176.984375 C 1121.292969 171.609375 1121.292969 166.269531 1121.292969 160.894531 C 1115.917969 160.894531 1110.578125 160.894531 1105.203125 160.894531 C 1105.203125 154.457031 1105.203125 148.023438 1105.203125 141.585938 C 1098.765625 141.585938 1092.332031 141.585938 1085.894531 141.585938 C 1085.894531 148.023438 1085.894531 154.457031 1085.894531 160.894531 C 1080.523438 160.894531 1075.179688 160.894531 1069.808594 160.894531 C 1069.808594 166.269531 1069.808594 171.609375 1069.808594 176.984375 C 1075.179688 176.984375 1080.523438 176.984375 1085.894531 176.984375 C 1085.894531 183.417969 1085.894531 189.855469 1085.894531 196.289062 C 1080.523438 196.289062 1075.179688 196.289062 1069.808594 196.289062 C 1069.808594 189.855469 1069.808594 183.417969 1069.808594 176.984375 C 1063.371094 176.984375 1056.933594 176.984375 1050.5 176.984375 C 1050.5 183.417969 1050.5 189.855469 1050.5 196.289062 C 1033.347656 196.289062 1016.164062 196.289062 999.011719 196.289062 C 999.011719 201.664062 999.011719 207.007812 999.011719 212.378906 C 992.578125 212.378906 986.140625 212.378906 979.707031 212.378906 C 979.707031 218.816406 979.707031 225.25 979.707031 231.6875 C 997.953125 231.6875 1016.164062 231.6875 1034.410156 231.6875 C 1034.410156 237.0625 1034.410156 242.402344 1034.410156 247.777344 C 1051.5625 247.777344 1068.746094 247.777344 1085.894531 247.777344 C 1085.894531 259.585938 1085.894531 271.363281 1085.894531 283.171875 C 1092.332031 283.171875 1098.765625 283.171875 1105.203125 283.171875 C 1105.203125 289.609375 1105.203125 296.042969 1105.203125 302.480469 C 1110.578125 302.480469 1115.917969 302.480469 1121.292969 302.480469 C 1121.292969 314.289062 1121.292969 326.066406 1121.292969 337.878906 C 1127.726562 337.878906 1134.164062 337.878906 1140.601562 337.878906 C 1140.601562 331.441406 1140.601562 325.003906 1140.601562 318.570312 C 1145.972656 318.570312 1151.316406 318.570312 1156.6875 318.570312 C 1156.6875 325.003906 1156.6875 331.441406 1156.6875 337.878906 C 1151.316406 337.878906 1145.972656 337.878906 1140.601562 337.878906 C 1140.601562 366.839844 1140.601562 395.800781 1140.601562 424.757812 C 1145.972656 424.757812 1151.316406 424.757812 1156.6875 424.757812 C 1156.6875 412.949219 1156.6875 401.171875 1156.6875 389.363281 C 1163.125 389.363281 1169.5625 389.363281 1175.996094 389.363281 C 1175.996094 365.777344 1175.996094 342.15625 1175.996094 318.570312 C 1181.371094 318.570312 1186.710938 318.570312 1192.085938 318.570312 C 1192.085938 313.195312 1192.085938 307.855469 1192.085938 302.480469 C 1186.710938 302.480469 1181.371094 302.480469 1175.996094 302.480469 C 1175.996094 296.042969 1175.996094 289.609375 1175.996094 283.171875 C 1187.804688 283.171875 1199.582031 283.171875 1211.394531 283.171875 C 1211.394531 271.363281 1211.394531 259.585938 1211.394531 247.777344 C 1228.542969 247.777344 1245.726562 247.777344 1262.878906 247.777344 C 1262.878906 242.402344 1262.878906 237.0625 1262.878906 231.6875 C 1257.503906 231.6875 1252.164062 231.6875 1246.789062 231.6875 C 1246.789062 225.25 1246.789062 218.816406 1246.789062 212.378906 Z M 1211.394531 141.585938 C 1204.957031 141.585938 1198.523438 141.585938 1192.085938 141.585938 C 1192.085938 148.023438 1192.085938 154.457031 1192.085938 160.894531 C 1198.523438 160.894531 1204.957031 160.894531 1211.394531 160.894531 C 1211.394531 154.457031 1211.394531 148.023438 1211.394531 141.585938 Z M 688.488281 1166.480469 C 693.863281 1166.480469 699.203125 1166.480469 704.578125 1166.480469 C 704.578125 1161.105469 704.578125 1155.765625 704.578125 1150.390625 C 699.203125 1150.390625 693.863281 1150.390625 688.488281 1150.390625 C 688.488281 1155.765625 688.488281 1161.105469 688.488281 1166.480469 Z M 1156.6875 176.984375 C 1156.6875 171.609375 1156.6875 166.269531 1156.6875 160.894531 C 1151.316406 160.894531 1145.972656 160.894531 1140.601562 160.894531 C 1140.601562 166.269531 1140.601562 171.609375 1140.601562 176.984375 C 1145.972656 176.984375 1151.316406 176.984375 1156.6875 176.984375 Z M 1175.996094 160.894531 C 1175.996094 166.269531 1175.996094 171.609375 1175.996094 176.984375 C 1181.371094 176.984375 1186.710938 176.984375 1192.085938 176.984375 C 1192.085938 171.609375 1192.085938 166.269531 1192.085938 160.894531 C 1186.710938 160.894531 1181.371094 160.894531 1175.996094 160.894531 Z M 1227.484375 176.984375 C 1227.484375 171.609375 1227.484375 166.269531 1227.484375 160.894531 C 1222.109375 160.894531 1216.765625 160.894531 1211.394531 160.894531 C 1211.394531 166.269531 1211.394531 171.609375 1211.394531 176.984375 C 1216.765625 176.984375 1222.109375 176.984375 1227.484375 176.984375 Z M 1121.292969 196.289062 C 1127.726562 196.289062 1134.164062 196.289062 1140.601562 196.289062 C 1140.601562 189.855469 1140.601562 183.417969 1140.601562 176.984375 C 1134.164062 176.984375 1127.726562 176.984375 1121.292969 176.984375 C 1121.292969 183.417969 1121.292969 189.855469 1121.292969 196.289062 Z M 1211.394531 176.984375 C 1204.957031 176.984375 1198.523438 176.984375 1192.085938 176.984375 C 1192.085938 183.417969 1192.085938 189.855469 1192.085938 196.289062 C 1198.523438 196.289062 1204.957031 196.289062 1211.394531 196.289062 C 1211.394531 189.855469 1211.394531 183.417969 1211.394531 176.984375 Z M 1282.1875 176.984375 C 1275.75 176.984375 1269.316406 176.984375 1262.878906 176.984375 C 1262.878906 183.417969 1262.878906 189.855469 1262.878906 196.289062 C 1269.316406 196.289062 1275.75 196.289062 1282.1875 196.289062 C 1282.1875 189.855469 1282.1875 183.417969 1282.1875 176.984375 Z M 688.488281 1201.878906 C 693.863281 1201.878906 699.203125 1201.878906 704.578125 1201.878906 C 704.578125 1196.503906 704.578125 1191.160156 704.578125 1185.789062 C 699.203125 1185.789062 693.863281 1185.789062 688.488281 1185.789062 C 688.488281 1191.160156 688.488281 1196.503906 688.488281 1201.878906 Z M 963.617188 196.289062 C 963.617188 201.664062 963.617188 207.007812 963.617188 212.378906 C 968.992188 212.378906 974.332031 212.378906 979.707031 212.378906 C 979.707031 207.007812 979.707031 201.664062 979.707031 196.289062 C 974.332031 196.289062 968.992188 196.289062 963.617188 196.289062 Z M 1156.6875 212.378906 C 1156.6875 207.007812 1156.6875 201.664062 1156.6875 196.289062 C 1151.316406 196.289062 1145.972656 196.289062 1140.601562 196.289062 C 1140.601562 201.664062 1140.601562 207.007812 1140.601562 212.378906 C 1145.972656 212.378906 1151.316406 212.378906 1156.6875 212.378906 Z M 1192.085938 196.289062 C 1186.710938 196.289062 1181.371094 196.289062 1175.996094 196.289062 C 1175.996094 201.664062 1175.996094 207.007812 1175.996094 212.378906 C 1181.371094 212.378906 1186.710938 212.378906 1192.085938 212.378906 C 1192.085938 207.007812 1192.085938 201.664062 1192.085938 196.289062 Z M 1227.484375 212.378906 C 1227.484375 207.007812 1227.484375 201.664062 1227.484375 196.289062 C 1222.109375 196.289062 1216.765625 196.289062 1211.394531 196.289062 C 1211.394531 201.664062 1211.394531 207.007812 1211.394531 212.378906 C 1216.765625 212.378906 1222.109375 212.378906 1227.484375 212.378906 Z M 1262.878906 196.289062 C 1257.503906 196.289062 1252.164062 196.289062 1246.789062 196.289062 C 1246.789062 201.664062 1246.789062 207.007812 1246.789062 212.378906 C 1252.164062 212.378906 1257.503906 212.378906 1262.878906 212.378906 C 1262.878906 207.007812 1262.878906 201.664062 1262.878906 196.289062 Z M 1282.1875 196.289062 C 1282.1875 201.664062 1282.1875 207.007812 1282.1875 212.378906 C 1287.558594 212.378906 1292.902344 212.378906 1298.277344 212.378906 C 1298.277344 207.007812 1298.277344 201.664062 1298.277344 196.289062 C 1292.902344 196.289062 1287.558594 196.289062 1282.1875 196.289062 Z M 1317.582031 196.289062 C 1317.582031 201.664062 1317.582031 207.007812 1317.582031 212.378906 C 1311.148438 212.378906 1304.710938 212.378906 1298.277344 212.378906 C 1298.277344 218.816406 1298.277344 225.25 1298.277344 231.6875 C 1310.085938 231.6875 1321.863281 231.6875 1333.671875 231.6875 C 1333.671875 219.878906 1333.671875 208.101562 1333.671875 196.289062 C 1328.296875 196.289062 1322.957031 196.289062 1317.582031 196.289062 Z M 1175.996094 231.6875 C 1175.996094 225.25 1175.996094 218.816406 1175.996094 212.378906 C 1169.5625 212.378906 1163.125 212.378906 1156.6875 212.378906 C 1156.6875 218.816406 1156.6875 225.25 1156.6875 231.6875 C 1163.125 231.6875 1169.5625 231.6875 1175.996094 231.6875 Z M 1262.878906 231.6875 C 1269.316406 231.6875 1275.75 231.6875 1282.1875 231.6875 C 1282.1875 225.25 1282.1875 218.816406 1282.1875 212.378906 C 1275.75 212.378906 1269.316406 212.378906 1262.878906 212.378906 C 1262.878906 218.816406 1262.878906 225.25 1262.878906 231.6875 Z M 688.488281 1237.273438 C 693.863281 1237.273438 699.203125 1237.273438 704.578125 1237.273438 C 704.578125 1231.898438 704.578125 1226.558594 704.578125 1221.183594 C 699.203125 1221.183594 693.863281 1221.183594 688.488281 1221.183594 C 688.488281 1226.558594 688.488281 1231.898438 688.488281 1237.273438 Z M 688.488281 1272.671875 C 693.863281 1272.671875 699.203125 1272.671875 704.578125 1272.671875 C 704.578125 1267.296875 704.578125 1261.953125 704.578125 1256.582031 C 699.203125 1256.582031 693.863281 1256.582031 688.488281 1256.582031 C 688.488281 1261.953125 688.488281 1267.296875 688.488281 1272.671875 Z M 688.488281 1308.066406 C 693.863281 1308.066406 699.203125 1308.066406 704.578125 1308.066406 C 704.578125 1302.691406 704.578125 1297.351562 704.578125 1291.976562 C 699.203125 1291.976562 693.863281 1291.976562 688.488281 1291.976562 C 688.488281 1297.351562 688.488281 1302.691406 688.488281 1308.066406 Z M 688.488281 1308.066406 " fill-opacity="1" fill-rule="evenodd"/></svg>